<svg xmlns="http://www.w3.org/2000/svg" width="24" height="25" fill="none" viewBox="0 0 24 25">
  <path fill="#8497B0" d="M11.936 0C5.344 0 0 4.966 0 11.092c0 3.619 1.864 6.832 4.75 8.857v4.868a.184.184 0 0 0 .29.149l4.271-3.051c.845.176 1.723.27 2.625.27 6.592 0 11.936-4.966 11.936-11.093C23.872 4.966 18.528 0 11.936 0Z"/>
  <path fill="#333F50" d="M19.392 9.809c-.405-.44-1.004-.663-1.78-.663-.431 0-.824.095-1.168.282-.258.14-.483.307-.67.497v-3.59h-1.688v9.515h1.676v-3.555c0-.294.04-.561.12-.793.08-.23.188-.427.323-.585a1.33 1.33 0 0 1 1.035-.487c.346 0 .615.094.802.28.187.185.281.53.281 1.023v4.117H20V11.8c0-.884-.204-1.554-.608-1.991ZM8.379 8.312c1.177 0 2.18.762 2.582 1.836h1.801c-.455-2.078-2.244-3.629-4.383-3.629-2.483 0-4.496 2.089-4.496 4.665 0 2.577 2.013 4.666 4.496 4.666 2.14 0 3.928-1.551 4.383-3.629h-1.801c-.401 1.074-1.405 1.836-2.582 1.836-1.529 0-2.768-1.286-2.768-2.873 0-1.586 1.239-2.872 2.768-2.872Z"/>
</svg>
