<svg xmlns="http://www.w3.org/2000/svg" width="31" height="31" fill="none" viewBox="0 0 31 31">
  <path fill="#555" d="M12.657 15.204a1.158 1.158 0 10.001 2.315 1.158 1.158 0 000-2.315zm5.556 0a1.158 1.158 0 100 2.315 1.158 1.158 0 000-2.315zm-2.778-9.028c-5.111 0-9.26 4.148-9.26 9.259 0 5.111 4.149 9.26 9.26 9.26s9.26-4.149 9.26-9.26-4.149-9.26-9.26-9.26zm0 16.666c-4.083 0-7.407-3.324-7.407-7.407 0-.269.018-.537.046-.796a9.316 9.316 0 004.824-4.972 9.235 9.235 0 009.639 3.675c.194.658.305 1.362.305 2.093 0 4.083-3.324 7.407-7.407 7.407zM1.917 20.25C1 20.25.25 21 .25 21.917v5c0 1.833 1.5 3.333 3.333 3.333h5c.917 0 1.667-.75 1.667-1.667 0-.916-.75-1.666-1.667-1.666H5.25c-.917 0-1.667-.75-1.667-1.667v-3.333c0-.917-.75-1.667-1.666-1.667zm1.666-15c0-.917.75-1.667 1.667-1.667h3.333c.917 0 1.667-.75 1.667-1.666C10.25 1 9.5.25 8.583.25h-5A3.343 3.343 0 00.25 3.583v5c0 .917.75 1.667 1.667 1.667.916 0 1.666-.75 1.666-1.667V5.25zm23.334-5h-5C21 .25 20.25 1 20.25 1.917c0 .916.75 1.666 1.667 1.666h3.333c.917 0 1.667.75 1.667 1.667v3.333c0 .917.75 1.667 1.666 1.667.917 0 1.667-.75 1.667-1.667v-5c0-1.833-1.5-3.333-3.333-3.333zm0 25c0 .917-.75 1.667-1.667 1.667h-3.333c-.917 0-1.667.75-1.667 1.666 0 .917.75 1.667 1.667 1.667h5c1.833 0 3.333-1.5 3.333-3.333v-5c0-.917-.75-1.667-1.667-1.667-.916 0-1.666.75-1.666 1.667v3.333z"/>
</svg>
