<svg xmlns="http://www.w3.org/2000/svg" width="27" height="27" fill="none" viewBox="0 0 27 27">
  <path fill="#1DA1F2" d="M8.491 24.47c10.189 0 15.762-8.442 15.762-15.762 0-.24 0-.479-.017-.716A11.27 11.27 0 0027 5.124c-1.01.448-2.084.742-3.182.872a5.557 5.557 0 002.436-3.064 11.098 11.098 0 01-3.518 1.344 5.545 5.545 0 00-9.44 5.053A15.728 15.728 0 011.879 3.54a5.544 5.544 0 001.715 7.395 5.49 5.49 0 01-2.514-.694v.07a5.541 5.541 0 004.444 5.43 5.53 5.53 0 01-2.501.096 5.547 5.547 0 005.175 3.847A11.113 11.113 0 010 21.98a15.685 15.685 0 008.491 2.484"/>
</svg>
