<svg xmlns="http://www.w3.org/2000/svg" width="20" height="20" fill="none" viewBox="0 0 20 20">
  <path fill="#555" d="M12.511 19v-2.997H8.28V19c0 .265-.112.519-.31.706A1.09 1.09 0 017.22 20c-.28 0-.55-.105-.748-.293a.972.972 0 01-.31-.706v-2.998H5.104c-.28 0-.55-.106-.748-.293a.972.972 0 01-.31-.707v-4.997h12.698v4.997c0 .265-.111.52-.31.707a1.09 1.09 0 01-.748.293h-1.058V19c0 .265-.112.519-.31.706a1.09 1.09 0 01-.748.293c-.281 0-.55-.105-.749-.293a.972.972 0 01-.31-.706zm6.35-2.997c.28 0 .55-.106.748-.293a.972.972 0 00.31-.707v-3.998a.972.972 0 00-.31-.706 1.09 1.09 0 00-.749-.293c-.28 0-.55.105-.748.293a.972.972 0 00-.31.707v3.997c0 .265.112.52.31.707.199.187.468.293.748.293zM.87 11.005v3.998c0 .265.112.52.31.707.198.187.468.293.748.293.281 0 .55-.106.749-.293a.972.972 0 00.31-.707v-3.998a.972.972 0 00-.31-.706 1.09 1.09 0 00-.749-.293c-.28 0-.55.105-.748.293a.972.972 0 00-.31.707zM4.794.306L6.72 2.124a6.58 6.58 0 013.675-1.112 6.58 6.58 0 013.675 1.112L15.996.305c.098-.095.214-.171.343-.224a1.112 1.112 0 011.166.212c.1.094.178.205.232.328a.951.951 0 01-.008.773 1.002 1.002 0 01-.237.324l-1.926 1.82a5.741 5.741 0 011.178 3.47v1H4.046v-1c0-1.245.411-2.458 1.177-3.47l-1.925-1.82A.97.97 0 013 1.015a.972.972 0 01.31-.698A1.09 1.09 0 014.05.025c.277-.003.544.098.744.28zm6.66 4.704c0 .198.061.391.177.555.117.165.282.293.475.369.194.075.406.095.612.056a1.08 1.08 0 00.542-.273.984.984 0 00.29-.512.949.949 0 00-.061-.577 1.014 1.014 0 00-.39-.449 1.103 1.103 0 00-1.336.125.972.972 0 00-.31.706zm-4.234 0c0 .198.062.391.179.555.116.165.281.293.475.369.193.075.406.095.61.056.206-.038.395-.133.543-.273a.983.983 0 00.29-.512.948.948 0 00-.06-.577 1.014 1.014 0 00-.39-.449 1.103 1.103 0 00-1.337.125.972.972 0 00-.31.706z"/>
</svg>
