<svg xmlns="http://www.w3.org/2000/svg" width="35" height="27" fill="none" viewBox="0 0 35 27">
  <path fill="#323232" d="M31.765 7.941c-2.303 0-3.59 2.288-3.066 3.987l-5.638 5.654a3.236 3.236 0 0 0-1.652 0l-4.05-4.05c.54-1.7-.746-4.002-3.065-4.002-2.303 0-3.605 2.287-3.065 4.002l-7.243 7.227C2.287 20.234 0 21.52 0 23.824A3.186 3.186 0 0 0 3.176 27c2.303 0 3.59-2.287 3.066-3.986l7.226-7.243a3.236 3.236 0 0 0 1.652 0l4.05 4.05c-.54 1.7.746 4.003 3.065 4.003 2.303 0 3.606-2.287 3.066-4.003l5.654-5.638c1.7.524 3.986-.762 3.986-3.065a3.186 3.186 0 0 0-3.176-3.177Z"/>
  <path fill="#323232" d="M22.706 9.765 24.2 6.477 27.471 5l-3.272-1.477L22.706.235l-1.461 3.288L17.94 5l3.304 1.477 1.461 3.288ZM3.97 12.941l.795-3.176L7.94 8.97l-3.176-.795L3.97 5l-.795 3.176L0 8.971l3.176.794.795 3.176Z"/>
</svg>
