<svg width="9" height="15" viewBox="0 0 9 15" fill="none" xmlns="http://www.w3.org/2000/svg">
<path id="Vector" d="M4.77557 2.01875L7.14895 4.06875C7.52522 4.39375 8.13303 4.39375 8.5093 4.06875C8.88556 3.74375 8.88556 3.21875 8.5093 2.89375L5.45092 0.24375C5.07466 -0.08125 4.46684 -0.08125 4.09057 0.24375L1.0322 2.89375C0.655933 3.21875 0.655933 3.74375 1.0322 4.06875C1.40847 4.39375 2.01628 4.39375 2.39255 4.06875L4.77557 2.01875ZM4.77557 12.3021L2.4022 10.2521C2.02593 9.92708 1.41812 9.92708 1.04185 10.2521C0.665581 10.5771 0.665581 11.1021 1.04185 11.4271L4.10022 14.0771C4.47649 14.4021 5.0843 14.4021 5.46057 14.0771L8.51895 11.4354C8.89521 11.1104 8.89521 10.5854 8.51895 10.2604C8.14268 9.93542 7.53486 9.93542 7.1586 10.2604L4.77557 12.3021Z" fill="#111111"/>
</svg>
