<svg xmlns="http://www.w3.org/2000/svg" width="20" height="18" fill="none" viewBox="0 0 20 18">
  <path fill="#fff" d="M19 9.22C19 3.73 14.74 0 10 0 5.31 0 1 3.65 1 9.28c-.6.34-1 .98-1 1.72v2c0 1.1.9 2 2 2 .55 0 1-.45 1-1V9.19C3 5.36 5.95 2.01 9.78 1.9a7.007 7.007 0 017.22 7V16h-7c-.55 0-1 .45-1 1s.45 1 1 1h7c1.1 0 2-.9 2-2v-1.22c.59-.31 1-.92 1-1.64v-2.3c0-.7-.41-1.31-1-1.62z"/>
  <path fill="#fff" d="M7 11a1 1 0 100-2 1 1 0 000 2zM13 11a1 1 0 100-2 1 1 0 000 2z"/>
  <path fill="#fff" d="M16.002 8.03A6.04 6.04 0 0010.052 3c-3.03 0-6.29 2.51-6.03 6.45a8.075 8.075 0 004.86-5.89c1.31 2.63 4 4.44 7.12 4.47z"/>
</svg>
