<svg xmlns="http://www.w3.org/2000/svg" width="18" height="15" fill="none" viewBox="0 0 18 15">
  <path fill="#999" d="M15.015.842C12.77-.688 10 .026 8.504 1.777 7.008.027 4.237-.696 1.993.842A4.651 4.651 0 00.003 4.49c-.118 3.298 2.806 5.941 7.268 9.996l.085.076c.646.587 1.64.587 2.287-.008l.093-.085c4.463-4.046 7.378-6.69 7.268-9.988a4.648 4.648 0 00-1.99-3.638zM8.589 13.218l-.085.085-.085-.085C4.373 9.555 1.704 7.132 1.704 4.676c0-1.7 1.275-2.975 2.975-2.975 1.309 0 2.584.841 3.034 2.006h1.59C9.745 2.542 11.02 1.7 12.329 1.7c1.7 0 2.975 1.275 2.975 2.975 0 2.456-2.67 4.879-6.715 8.542z"/>
</svg>
