<svg xmlns="http://www.w3.org/2000/svg" width="20" height="25" fill="none" viewBox="0 0 20 25">
  <path fill="#555" d="M12.5 0h-10A2.497 2.497 0 0 0 .013 2.5L0 22.5C0 23.875 1.113 25 2.487 25H17.5c1.375 0 2.5-1.125 2.5-2.5v-15L12.5 0Zm-10 2.5h8.75l6.25 6.25v10.725l-2.3-2.3a6.24 6.24 0 0 0-.8-7.85A6.2 6.2 0 0 0 10 7.5c-1.6 0-3.188.613-4.412 1.825-2.438 2.438-2.438 6.388 0 8.813a6.228 6.228 0 0 0 7.85.787L17 22.5H2.5v-20Zm10.137 13.875c-.7.7-1.637 1.1-2.637 1.1s-1.938-.388-2.638-1.1c-.7-.7-1.1-1.637-1.1-2.637s.388-1.938 1.1-2.638C8.063 10.387 9 10 10 10s1.938.387 2.637 1.1c.7.7 1.1 1.638 1.1 2.638s-.387 1.937-1.1 2.637Z"/>
</svg>
