<svg xmlns="http://www.w3.org/2000/svg" width="20" height="21" fill="none" viewBox="0 0 20 21">
  <path fill="#3B2C30" d="M10 0C4.477 0 0 4.16 0 9.293c0 3.032 1.562 5.724 3.979 7.42v4.079a.154.154 0 00.243.125l3.579-2.556c.708.147 1.443.226 2.199.226 5.523 0 10-4.161 10-9.294C20 4.161 15.523 0 10 0z"/>
  <path fill="#EFD23F" d="M16.25 8.218c-.34-.369-.841-.555-1.491-.555-.361 0-.69.08-.979.236a2.36 2.36 0 00-.56.416V5.307h-1.415v7.972h1.404V10.3c0-.247.034-.47.101-.665.066-.193.157-.358.27-.49.112-.131.244-.233.392-.303a1.11 1.11 0 01.476-.105c.289 0 .515.079.671.234.157.156.236.444.236.858v3.449h1.404V9.886c0-.74-.17-1.302-.509-1.668zM7.017 6.964c.986 0 1.827.638 2.163 1.538h1.51c-.382-1.74-1.88-3.04-3.673-3.04-2.08 0-3.767 1.75-3.767 3.908 0 2.16 1.686 3.91 3.767 3.91 1.792 0 3.291-1.3 3.672-3.04H9.18c-.336.899-1.177 1.537-2.163 1.537-1.281 0-2.32-1.077-2.32-2.407 0-1.329 1.039-2.406 2.32-2.406z"/>
</svg>
