<svg xmlns="http://www.w3.org/2000/svg" width="32" height="33" fill="none" viewBox="0 0 32 33">
  <path stroke="#333" stroke-linecap="round" stroke-linejoin="round" stroke-width="3.015" d="M6.755 2A15.077 15.077 0 0 0 2 8.034M24.902 2a15.077 15.077 0 0 1 4.755 6.034M5.273 24.595h21.108c.832 0 1.507-.675 1.507-1.508v-.883c0-.4-.159-.784-.441-1.066l-.77-.77a1.01 1.01 0 0 1-.296-.715v-5.612c0-5.829-4.725-10.554-10.554-10.554-5.829 0-10.554 4.725-10.554 10.554v5.612c0 .268-.106.525-.296.715l-.77.77a1.508 1.508 0 0 0-.441 1.066v.883c0 .833.675 1.508 1.507 1.508Zm15.077 0h-9.045v1.507a4.523 4.523 0 1 0 9.046 0v-1.507Z"/>
</svg>
