<svg xmlns="http://www.w3.org/2000/svg" width="301" height="300" fill="none" viewBox="0 0 301 300">
  <circle cx="151" cy="150" r="150" fill="#EAF3F9"/>
  <mask id="a" width="300" height="300" x="0" y="0" maskUnits="userSpaceOnUse" style="mask-type:alpha">
    <circle cx="150" cy="150" r="150" fill="#C4C4C4"/>
  </mask>
  <g mask="url(#a)">
    <path fill="#EAF3F9" d="M0 0h300v300H0z"/>
    <path fill="#fff" d="M150.5 176.5c34.117 0 61.75-27.633 61.75-61.75 0-34.117-27.633-61.75-61.75-61.75-34.117 0-61.75 27.633-61.75 61.75 0 34.117 27.633 61.75 61.75 61.75Zm0 30.875c-41.218 0-123.5 20.686-123.5 61.75v15.437C27 293.053 33.947 300 42.438 300h216.124c8.491 0 15.438-6.947 15.438-15.438v-15.437c0-41.064-82.282-61.75-123.5-61.75Z"/>
  </g>
</svg>
