<svg xmlns="http://www.w3.org/2000/svg" width="22" height="25" fill="none" viewBox="0 0 22 25">
  <path fill="#999" d="M17.286 9.375C19.889 9.375 22 7.276 22 4.687 22 2.1 19.89 0 17.286 0c-2.604 0-4.715 2.099-4.715 4.688 0 .349.039.69.112 1.017L7.65 8.833a4.711 4.711 0 00-2.937-1.02C2.111 7.813 0 9.91 0 12.5c0 2.589 2.11 4.688 4.714 4.688 1.11 0 2.131-.382 2.937-1.02l5.032 3.127a4.678 4.678 0 00-.112 1.017c0 2.59 2.111 4.688 4.715 4.688C19.889 25 22 22.901 22 20.312c0-2.588-2.11-4.687-4.714-4.687-1.11 0-2.131.382-2.937 1.02l-5.032-3.127a4.68 4.68 0 000-2.036l5.032-3.127a4.711 4.711 0 002.937 1.02z"/>
</svg>
