<svg xmlns="http://www.w3.org/2000/svg" width="28" height="25" fill="none" viewBox="0 0 28 25">
  <path fill="#8497B0" fill-rule="evenodd" d="M22.714 0H4.64C2.083 0 0 2.058 0 4.565v11.05c0 2.516 2.092 4.565 4.641 4.565h6.382l1.099 1.867 1.08 1.842a.516.516 0 0 0 .889 0l1.08-1.842 1.1-1.867h6.451c2.558 0 4.642-2.058 4.642-4.565V4.574c0-2.516-2.092-4.574-4.65-4.574Zm-7.772 8.092c-1.398 0-2.532 1.098-2.532 2.456 0 1.357 1.134 2.455 2.532 2.455 1.397 0 2.531-1.098 2.531-2.455 0-1.358-1.125-2.456-2.531-2.456Zm0 3.632c-.668 0-1.213-.528-1.213-1.176 0-.649.545-1.176 1.213-1.176s1.213.527 1.213 1.176c0 .648-.537 1.176-1.213 1.176Zm-9.457-3.07a2.17 2.17 0 0 1 1.45-.561c1.266 0 2.277 1.106 2.277 2.464 0 1.357-1.02 2.455-2.277 2.455a2.195 2.195 0 0 1-1.45-.562v.441H4.078V6.623h1.407v2.032Zm.008 2.378c.194.441.642.744 1.16.744.704 0 1.266-.545 1.266-1.228 0-.683-.562-1.228-1.265-1.228a1.26 1.26 0 0 0-1.16.744c-.071.147-.106.311-.106.484s.044.337.105.484ZM21.86 8.196v.39a2.328 2.328 0 0 0-1.415-.485c-1.293 0-2.338 1.064-2.338 2.37 0 1.305 1.045 2.368 2.338 2.368a2.29 2.29 0 0 0 1.415-.484v.657s-.14.649-1.125.649v1.219s1.063.12 2.013-.813c0 0 .44-.458.536-1.064V8.196H21.86Zm-1.152 3.476c-.712 0-1.283-.545-1.283-1.21 0-.666.58-1.211 1.283-1.211.501 0 .94.277 1.152.674.088.165.132.346.132.536 0 .19-.053.38-.132.537-.211.406-.65.674-1.152.674ZM9.371 7.755V6.502s.932-.121 1.758.838c0 0 .378.467.466 1.09v4.46h-1.45V8.464c-.123-.622-.774-.709-.774-.709Z" clip-rule="evenodd"/>
</svg>
