<svg xmlns="http://www.w3.org/2000/svg" width="15" height="18" fill="none" viewBox="0 0 15 18">
  <path fill="#0A75C2" d="M13.125 6h-.938V4.286C12.188 1.92 10.088 0 7.5 0 4.912 0 2.812 1.92 2.812 4.286V6h-.937C.844 6 0 6.771 0 7.714v8.572C0 17.229.844 18 1.875 18h11.25C14.156 18 15 17.229 15 16.286V7.714C15 6.771 14.156 6 13.125 6zM7.5 13.714c-1.031 0-1.875-.771-1.875-1.714s.844-1.714 1.875-1.714c1.031 0 1.875.771 1.875 1.714s-.844 1.714-1.875 1.714zM4.687 6V4.286c0-1.423 1.257-2.572 2.813-2.572 1.556 0 2.813 1.149 2.813 2.572V6H4.686z"/>
</svg>
