<svg xmlns="http://www.w3.org/2000/svg" width="26" height="26" fill="none" viewBox="0 0 26 26">
  <path fill="url(#paint0_radial_514_1589)" d="M13.332.024c-5.219 0-6.745.006-7.041.03-1.071.09-1.738.258-2.464.62-.56.278-1 .6-1.436 1.051-.793.824-1.274 1.837-1.448 3.041-.084.585-.109.704-.114 3.69-.002.996 0 2.306 0 4.063 0 5.216.006 6.741.03 7.037.087 1.043.25 1.698.597 2.416a5.266 5.266 0 003.413 2.788c.515.133 1.084.206 1.815.24.31.014 3.464.024 6.621.024 3.157 0 6.314-.004 6.616-.02.846-.04 1.337-.105 1.88-.246a5.234 5.234 0 003.413-2.794c.34-.7.512-1.38.59-2.369.016-.215.024-3.65.024-7.08s-.008-6.857-.025-7.073c-.079-1.003-.251-1.679-.601-2.392a4.956 4.956 0 00-1.07-1.466C23.305.794 22.294.313 21.088.139c-.584-.084-.7-.11-3.688-.115h-4.068z"/>
  <path fill="url(#paint1_radial_514_1589)" d="M13.332.024c-5.219 0-6.745.006-7.041.03-1.071.09-1.738.258-2.464.62-.56.278-1 .6-1.436 1.051-.793.824-1.274 1.837-1.448 3.041-.084.585-.109.704-.114 3.69-.002.996 0 2.306 0 4.063 0 5.216.006 6.741.03 7.037.087 1.043.25 1.698.597 2.416a5.266 5.266 0 003.413 2.788c.515.133 1.084.206 1.815.24.31.014 3.464.024 6.621.024 3.157 0 6.314-.004 6.616-.02.846-.04 1.337-.105 1.88-.246a5.234 5.234 0 003.413-2.794c.34-.7.512-1.38.59-2.369.016-.215.024-3.65.024-7.08s-.008-6.857-.025-7.073c-.079-1.003-.251-1.679-.601-2.392a4.956 4.956 0 00-1.07-1.466C23.305.794 22.294.313 21.088.139c-.584-.084-.7-.11-3.688-.115h-4.068z"/>
  <path fill="#fff" d="M13.327 3.295c-2.506 0-2.82.01-3.805.056-.983.045-1.653.2-2.24.429a4.519 4.519 0 00-1.635 1.064 4.532 4.532 0 00-1.065 1.635c-.229.587-.385 1.258-.429 2.24-.044.985-.055 1.3-.055 3.807 0 2.507.01 2.821.055 3.806.046.982.201 1.653.43 2.24a4.524 4.524 0 001.064 1.636c.512.513 1.027.83 1.634 1.065.587.228 1.258.384 2.24.429.984.045 1.299.056 3.805.056 2.507 0 2.82-.011 3.805-.056.982-.045 1.654-.2 2.24-.43a4.515 4.515 0 001.634-1.064 4.532 4.532 0 001.066-1.636c.226-.587.382-1.258.428-2.24.045-.985.056-1.299.056-3.806s-.011-2.821-.056-3.806c-.046-.983-.202-1.654-.428-2.24a4.53 4.53 0 00-1.066-1.636 4.51 4.51 0 00-1.634-1.064c-.588-.229-1.26-.384-2.242-.43-.984-.044-1.298-.055-3.805-.055h.003zm-.828 1.663h.828c2.464 0 2.756.01 3.73.054.9.04 1.387.191 1.713.317.43.168.738.368 1.06.69.323.324.523.632.69 1.063.127.325.278.813.319 1.713.044.973.053 1.265.053 3.73 0 2.463-.01 2.755-.053 3.728-.041.9-.192 1.389-.318 1.714-.167.43-.368.737-.69 1.06-.324.323-.63.523-1.061.69-.325.128-.814.278-1.714.319-.973.044-1.265.054-3.729.054-2.464 0-2.756-.01-3.73-.054-.899-.042-1.387-.192-1.713-.319a2.858 2.858 0 01-1.061-.69 2.861 2.861 0 01-.69-1.061c-.127-.325-.278-.814-.319-1.714-.044-.973-.053-1.265-.053-3.73s.01-2.756.053-3.73c.042-.9.192-1.388.318-1.713a2.86 2.86 0 01.69-1.062c.324-.323.631-.523 1.062-.69.325-.128.814-.278 1.714-.319.851-.038 1.181-.05 2.901-.052v.002zm5.754 1.533a1.107 1.107 0 100 2.216 1.107 1.107 0 000-2.216zm-4.926 1.295a4.74 4.74 0 10.002 9.48 4.74 4.74 0 00-.002-9.48zm0 1.663a3.077 3.077 0 110 6.154 3.077 3.077 0 010-6.154z"/>
  <defs>
    <radialGradient id="paint0_radial_514_1589" cx="0" cy="0" r="1" gradientTransform="matrix(0 -24.7762 23.0438 0 7.469 26.95)" gradientUnits="userSpaceOnUse">
      <stop stop-color="#FD5"/>
      <stop offset=".1" stop-color="#FD5"/>
      <stop offset=".5" stop-color="#FF543E"/>
      <stop offset="1" stop-color="#C837AB"/>
    </radialGradient>
    <radialGradient id="paint1_radial_514_1589" cx="0" cy="0" r="1" gradientTransform="matrix(2.1738 10.85967 -44.76399 8.9605 -3.36 1.825)" gradientUnits="userSpaceOnUse">
      <stop stop-color="#3771C8"/>
      <stop offset=".128" stop-color="#3771C8"/>
      <stop offset="1" stop-color="#60F" stop-opacity="0"/>
    </radialGradient>
  </defs>
</svg>
