<svg xmlns="http://www.w3.org/2000/svg" width="15" height="17" fill="none" viewBox="0 0 15 17">
  <path fill="#0A75C2" d="M13.947 2.833c-.583 0-1.054.475-1.054 1.063v3.542a.35.35 0 0 1-.35.354.35.35 0 0 1-.352-.354V1.77c0-.588-.47-1.063-1.053-1.063s-1.053.475-1.053 1.063v5.667a.35.35 0 0 1-.352.354.35.35 0 0 1-.35-.354V1.063A1.059 1.059 0 0 0 8.328 0c-.583 0-1.053.475-1.053 1.063V7.43a.35.35 0 0 1-.351.355.35.35 0 0 1-.351-.355V3.188c0-.588-.47-1.063-1.054-1.063-.583 0-1.053.475-1.053 1.063v8.082L1.574 9.605a1.043 1.043 0 0 0-1.25.156 1.065 1.065 0 0 0-.021 1.509l4.76 4.88a2.77 2.77 0 0 0 2.002.85h5.126C13.743 17 15 15.732 15 14.167V3.896c0-.588-.47-1.063-1.053-1.063Z"/>
</svg>
