<svg xmlns="http://www.w3.org/2000/svg" width="109" height="117" fill="none" viewBox="0 0 109 117">
  <path fill="#333" d="M30.53 56.026a2.468 2.468 0 100-4.935 2.468 2.468 0 000 4.935zM34.434 104.731l-4.682-.99a1.096 1.096 0 00-1.322 1.104l.297 10.167a1.095 1.095 0 002.084.44l4.386-9.178a1.095 1.095 0 00-.763-1.543zM71.973 103.74l-4.682.99c-.33.069-.607.287-.755.588-.15.301-.152.653-.007.957l4.386 9.178a1.096 1.096 0 002.084-.44l.294-10.167a1.093 1.093 0 00-.39-.872 1.103 1.103 0 00-.93-.234zM55.262 24.419a4.44 4.44 0 001.396-.205c1.286-.415 1.915-1.338 1.966-2.069.045-.622-.3-1.131-1-1.473-.698-.343-1.524-.597-2.362-.828v4.575zM51.628 14.064c-.327.513-.356 1.163-.083 1.739.304.639 1.582 1.043 2.943 1.412V12.85c-1.376.045-2.39.47-2.86 1.213z"/>
  <path fill="#333" d="M54.878 4.587c-8.062 0-14.62 6.559-14.62 14.62 0 4.922 2.45 9.273 6.187 11.924h14.92c.63 0 1.254.02 1.875.054 3.777-2.646 6.258-7.025 6.258-11.978 0-8.062-6.56-14.62-14.62-14.62zm3.782 13.977c1.558.762 2.42 2.161 2.307 3.743-.131 1.85-1.54 3.471-3.584 4.13-.7.226-1.407.325-2.097.325l-.019-.002v1.49a.391.391 0 01-.781 0v-1.546c-2.606-.279-4.871-1.829-5.62-2.992a1.169 1.169 0 01.351-1.617 1.17 1.17 0 011.618.35c.42.65 1.943 1.645 3.65 1.903V19.63a6.584 6.584 0 00-.023-.006c-2.172-.573-4.224-1.114-5.036-2.824-.62-1.304-.54-2.798.218-3.995.53-.84 1.87-2.221 4.84-2.3V9.37a.39.39 0 01.781 0v1.144c4.291.226 5.647 3.129 5.704 3.258a1.171 1.171 0 01-2.133.968c-.05-.1-.882-1.7-3.571-1.887v4.563c1.152.304 2.331.625 3.395 1.149z"/>
  <path fill="#333" d="M54.877 0C44.264 0 35.663 8.601 35.663 19.211c0 4.522 1.571 8.67 4.184 11.95.223-.004.443-.026.666-.026h3.056c-3.162-3-5.148-7.23-5.148-11.924 0-9.073 7.383-16.453 16.455-16.453 9.071 0 16.453 7.381 16.453 16.453 0 4.851-2.123 9.204-5.471 12.218 1.121.143 2.226.339 3.312.586 3.047-3.4 4.917-7.879 4.917-12.804C74.088 8.601 65.486 0 54.877 0z"/>
  <path fill="#0A75C2" d="M107.359 55.341h-.002c-.906 0-1.643.736-1.643 1.643-.002 2.785-.802 4.84-2.377 6.107-2.025 1.63-4.976 1.788-6.95 1.668-1.59-15.069-12.72-27.327-27.22-30.624a35.168 35.168 0 00-3.312-.586 35.026 35.026 0 00-2.622-.241 35.417 35.417 0 00-1.875-.054H40.511c-.223 0-.443.022-.666.026a34.97 34.97 0 00-4.811.405l-.195-1.342a4.384 4.384 0 00-4.34-3.751 4.383 4.383 0 00-4.256 3.354l-1.18 4.88a35.443 35.443 0 00-16.282 16.42h-1.97C3.057 53.245 0 56.57 0 60.656v15.656c0 4.086 3.056 7.408 6.812 7.408H8.78c5.814 12.073 18.202 19.99 31.731 19.99h20.85c19.423 0 35.226-15.802 35.226-35.226 0-.143-.01-.282-.01-.423.248.01.51.017.78.017 2.434 0 5.589-.461 8.026-2.413 2.4-1.922 3.615-4.84 3.617-8.679a1.642 1.642 0 00-1.641-1.645zM61.36 99.328H40.511c-13.21 0-24.448-8.32-28.843-19.99H6.812c-1.342 0-2.429-1.355-2.429-3.026V60.655c0-1.67 1.087-3.025 2.429-3.025h4.856c3.019-8.014 9.26-14.446 17.153-17.69l1.681-6.964.88 6.052a30.726 30.726 0 019.129-1.39h12.271c.686.087 1.381.148 2.092.148.71 0 1.404-.06 2.091-.148h4.395c1.128 0 2.24.065 3.337.183 15.466 1.664 27.507 14.756 27.507 30.663 0 17.035-13.808 30.844-30.844 30.844z"/>
</svg>
