<svg xmlns="http://www.w3.org/2000/svg" width="115" height="141" fill="none" viewBox="0 0 115 141">
  <path fill="#0A75C2" d="M57.42 102.891C30.72 102.891 9 79.813 9 51.445 9 23.078 30.722 0 57.42 0s48.419 23.079 48.419 51.446c0 28.368-21.72 51.445-48.419 51.445zm0-98.635c-24.315 0-44.098 21.168-44.098 47.19 0 26.023 19.783 47.19 44.098 47.19 24.315 0 44.097-21.169 44.097-47.19 0-26.023-19.782-47.19-44.097-47.19zM64.504 113.312l-2.924-7.637a.817.817 0 00-.761-.526H51.2a.816.816 0 00-.762.526l-2.924 7.637a.817.817 0 00.762 1.107h15.465a.815.815 0 00.763-1.107z"/>
  <path fill="#0A75C2" d="M56.007 139.072a.815.815 0 01-.816-.817v-26.036a.815.815 0 111.632 0v26.035a.817.817 0 01-.816.818z"/>
  <path fill="#333" d="M37.505 127.528l-2.229-2.511a.822.822 0 00-.898-.222l-3.699 1.392a.814.814 0 00-.529.76l-.017 3.358a.817.817 0 001.104.768l5.945-2.238a.815.815 0 00.323-1.307z"/>
  <path fill="#333" d="M38 140.808a.815.815 0 01-.762-.529l-3.767-10.005a.816.816 0 011.527-.576l3.767 10.005a.817.817 0 01-.764 1.105zM31.552 122.899a17.539 17.539 0 01-6.208 1.13c-8.225 0-15.858-5.596-18.997-13.927-3.672-9.758-.131-20.321 7.892-24.978a60.212 60.212 0 01-3.1-3.86c-9.606 6.014-13.804 18.796-9.374 30.563 3.85 10.228 13.325 17.1 23.579 17.1 2.719 0 5.389-.487 7.935-1.445 9.558-3.601 15.284-13.142 15.095-23.424a53.684 53.684 0 01-4.927-.947c.573 8.662-4.005 16.816-11.895 19.788zM101.738 80.089a61.795 61.795 0 01-3.064 3.995c9.477 3.926 13.959 15.447 9.981 26.014-3.14 8.332-10.773 13.93-18.997 13.929-2.13 0-4.217-.38-6.209-1.131-8.144-3.068-12.757-11.655-11.82-20.623a53.876 53.876 0 01-4.985 1.264c-.395 10.477 5.359 20.28 15.079 23.943a22.443 22.443 0 007.935 1.444h.001c10.251 0 19.726-6.871 23.578-17.099 4.743-12.604-.409-26.37-11.499-31.736z"/>
  <path fill="#333" d="M84.834 126.946a.82.82 0 00-.53-.76l-3.697-1.391a.822.822 0 00-.898.222l-2.23 2.511a.816.816 0 00.323 1.305l5.946 2.238a.804.804 0 00.752-.094.813.813 0 00.351-.674l-.017-3.357z"/>
  <path fill="#333" d="M76.992 140.809a.815.815 0 01-.763-1.105l3.768-10.005a.815.815 0 111.526.576l-3.768 10.005a.814.814 0 01-.763.529z"/>
  <path fill="#0A75C2" d="M34.4 62.21h3.64v-7.696c0-2.236-.313-4.654-.495-6.708h.13l1.95 4.108L45.19 62.21h3.926V42.97H45.45v7.67c0 2.184.312 4.758.52 6.76h-.13l-1.95-4.16-5.59-10.27h-3.9v19.24zm19.474 0h3.848v-7.8h6.838v-3.198h-6.838v-5.044h8.008V42.97H53.874v19.24zm19.03 0h3.849V46.168h5.434V42.97H67.47v3.198h5.434V62.21z"/>
</svg>
