<svg xmlns="http://www.w3.org/2000/svg" width="31" height="31" fill="none" viewBox="0 0 31 31">
  <g filter="url(#a)">
    <path fill="#fff" d="M25.6 3H5.4c-.371 0-.727.151-.99.421S4 4.056 4 4.438v20.125c0 .38.147.746.41 1.016s.619.421.99.421h20.2c.371 0 .727-.151.99-.421.262-.27.41-.635.41-1.017V4.438c0-.38-.148-.746-.41-1.016A1.382 1.382 0 0 0 25.6 3ZM11 7.313a2.75 2.75 0 0 1 1.556.484c.46.316.819.765 1.03 1.29.213.526.268 1.104.16 1.661a2.899 2.899 0 0 1-.766 1.472c-.392.402-.89.676-1.434.787a2.733 2.733 0 0 1-1.618-.163 2.817 2.817 0 0 1-1.256-1.06 2.93 2.93 0 0 1-.472-1.597c0-.762.295-1.493.82-2.032A2.763 2.763 0 0 1 11 7.313Zm13.2 15.812H6.8v-2.396l5.6-4.791 4 3.08 4.1-7.393 3.7 7.666v3.834Z"/>
  </g>
  <defs>
    <filter id="a" width="31" height="31" x="0" y="0" color-interpolation-filters="sRGB" filterUnits="userSpaceOnUse">
      <feFlood flood-opacity="0" result="BackgroundImageFix"/>
      <feColorMatrix in="SourceAlpha" result="hardAlpha" values="0 0 0 0 0 0 0 0 0 0 0 0 0 0 0 0 0 0 127 0"/>
      <feOffset dy="1"/>
      <feGaussianBlur stdDeviation="2"/>
      <feComposite in2="hardAlpha" operator="out"/>
      <feColorMatrix values="0 0 0 0 0.333333 0 0 0 0 0.333333 0 0 0 0 0.333333 0 0 0 0.25 0"/>
      <feBlend in2="BackgroundImageFix" result="effect1_dropShadow_988_923"/>
      <feBlend in="SourceGraphic" in2="effect1_dropShadow_988_923" result="shape"/>
    </filter>
  </defs>
</svg>
