<svg xmlns="http://www.w3.org/2000/svg" width="155" height="126" fill="none" viewBox="0 0 155 126">
  <path fill="#0A75C2" d="M130.082 29.014l1.006 3.036c6.148-2.034 12.779 1.3 14.814 7.446l3.036-1.004h-.003c-2.582-7.81-11.041-12.062-18.853-9.478z"/>
  <path fill="#0A75C2" d="M132.078 35.09l1.005 3.035a5.333 5.333 0 016.733 3.386l3.037-1.004v-.002c-1.477-4.46-6.311-6.893-10.775-5.415zM128.066 22.945l1.005 3.037c9.486-3.14 19.757 2.023 22.895 11.51l3.035-1.004c-3.689-11.158-15.774-17.236-26.935-13.543zM59.831 111.607c-3.335 0-6.115 2.342-6.809 5.468-16.056-.058-23.434-4.212-26.79-7.703-3.524-3.668-3.422-7.268-3.416-7.421l-1.346-.063-1.345-.073c-.01.196-.207 4.809 4.08 9.334 5.371 5.668 15.048 8.562 28.758 8.618.562 3.293 3.413 5.808 6.867 5.808a6.985 6.985 0 00.001-13.968z"/>
  <g>
    <path fill="#58595B" d="M25.452 47.66h-7.955c-3.712 0-6.732 3.019-6.732 6.729v1.517C4.631 57.336 0 63.543 0 70.965v10.309c0 7.421 4.63 13.63 10.765 15.059v1.518c0 3.711 3.02 6.729 6.732 6.729h7.955c3.713 0 6.733-3.018 6.733-6.729V54.39a6.74 6.74 0 00-6.733-6.729zM2.692 81.274V70.965c.001-5.892 3.438-10.849 8.073-12.261v34.832c-4.635-1.414-8.072-6.369-8.072-12.262zM26.799 97.85c0 .74-.604 1.343-1.347 1.343h-7.955a1.346 1.346 0 01-1.346-1.343V54.39c0-.741.604-1.343 1.346-1.343h7.955c.742 0 1.347.602 1.347 1.343V97.85zM129.789 55.909V54.39c0-3.71-3.02-6.728-6.731-6.728h-7.955c-3.712 0-6.732 3.019-6.732 6.728v43.463c0 3.711 3.02 6.729 6.732 6.729h7.955c3.711 0 6.731-3.018 6.731-6.729v-1.519c6.136-1.428 10.767-7.637 10.767-15.058v-10.31c.001-7.422-4.631-13.63-10.767-15.058zm-5.385 41.944c0 .74-.604 1.342-1.346 1.342h-7.955a1.346 1.346 0 01-1.346-1.342V54.39c0-.74.603-1.342 1.346-1.342h7.955c.742 0 1.346.602 1.346 1.342v43.463zm13.46-16.578c0 5.894-3.437 10.849-8.073 12.261v-34.83c4.636 1.412 8.073 6.367 8.073 12.26v10.31z"/>
  </g>
  <path fill="#58595B" d="M70.01 0C31.177 0 18.106 27.755 18.106 40.416v8.59a3.367 3.367 0 006.733 0v-8.59c0-10.552 11.375-33.684 45.173-33.684 33.799 0 45.174 23.131 45.174 33.684v8.59a3.367 3.367 0 006.732 0v-8.59C121.917 27.755 108.847 0 70.011 0z"/>
</svg>
