<svg xmlns="http://www.w3.org/2000/svg" width="50" height="50" fill="none" viewBox="0 0 50 50">
  <path fill="#999" d="M25 12.5a2.507 2.507 0 00-2.5 2.5v7.5H15a2.507 2.507 0 00-2.5 2.5c0 1.375 1.125 2.5 2.5 2.5h7.5V35c0 1.375 1.125 2.5 2.5 2.5s2.5-1.125 2.5-2.5v-7.5H35c1.375 0 2.5-1.125 2.5-2.5s-1.125-2.5-2.5-2.5h-7.5V15c0-1.375-1.125-2.5-2.5-2.5zM25 0C11.225 0 0 11.225 0 25s11.225 25 25 25 25-11.225 25-25S38.775 0 25 0zm0 45C13.975 45 5 36.025 5 25S13.975 5 25 5s20 8.975 20 20-8.975 20-20 20z"/>
</svg>
