<svg xmlns="http://www.w3.org/2000/svg" width="32" height="21" fill="none" viewBox="0 0 32 21">
  <path fill="#555" d="M25.8 7.928C24.893 3.399 20.853 0 16 0c-3.853 0-7.2 2.152-8.867 5.303C3.12 5.723 0 9.069 0 13.125 0 17.469 3.587 21 8 21h17.333C29.013 21 32 18.06 32 14.437c0-3.464-2.733-6.273-6.2-6.51Zm-.467 10.447H8c-2.947 0-5.333-2.35-5.333-5.25 0-2.69 2.04-4.935 4.746-5.21L8.84 7.77l.667-1.247A7.306 7.306 0 0 1 16 2.625c3.493 0 6.507 2.441 7.187 5.814l.4 1.97 2.04.143c2.08.132 3.706 1.851 3.706 3.886 0 2.165-1.8 3.937-4 3.937Zm-12-5.014-2.786-2.743-1.88 1.85 4.666 4.595 8.014-7.889-1.88-1.85-6.134 6.037Z"/>
</svg>
