<svg xmlns="http://www.w3.org/2000/svg" width="27" height="27" fill="none" viewBox="0 0 27 27">
  <g clip-path="url(#a)">
    <path fill="#CCC" d="M8.494 24.469c10.186 0 15.76-8.442 15.76-15.76 0-.237-.006-.48-.017-.717A11.25 11.25 0 0 0 27 5.125c-1.01.449-2.082.742-3.18.87a5.57 5.57 0 0 0 2.436-3.064 11.135 11.135 0 0 1-3.516 1.345 5.547 5.547 0 0 0-9.443 5.05A15.733 15.733 0 0 1 1.882 3.543a5.546 5.546 0 0 0 1.714 7.392 5.546 5.546 0 0 1-2.51-.691v.069a5.537 5.537 0 0 0 4.445 5.431 5.506 5.506 0 0 1-2.5.095 5.55 5.55 0 0 0 5.173 3.85A11.11 11.11 0 0 1 0 21.98a15.715 15.715 0 0 0 8.494 2.488Z"/>
  </g>
  <defs>
    <clipPath id="a">
      <path fill="#fff" d="M0 0h27v27H0z"/>
    </clipPath>
  </defs>
</svg>
