<svg xmlns="http://www.w3.org/2000/svg" width="18" height="20" fill="none" viewBox="0 0 18 20">
  <path fill="#555" d="M17.32 6.819c-.12.09-2.25 1.244-2.25 3.81 0 2.968 2.71 4.019 2.79 4.045-.012.064-.43 1.438-1.428 2.838-.89 1.232-1.82 2.462-3.234 2.462s-1.778-.79-3.41-.79c-1.592 0-2.157.816-3.451.816s-2.196-1.14-3.234-2.54C1.901 15.816.93 13.26.93 10.837c0-3.888 2.628-5.95 5.216-5.95 1.374 0 2.52.868 3.383.868.822 0 2.103-.92 3.667-.92.593 0 2.722.051 4.124 1.984zm-4.866-3.63c.646-.739 1.104-1.763 1.104-2.787 0-.142-.013-.286-.04-.402-1.052.038-2.304.674-3.059 1.516-.593.648-1.146 1.672-1.146 2.71 0 .156.027.312.04.362.066.012.174.026.283.026.944 0 2.131-.608 2.818-1.426z"/>
</svg>
