<svg xmlns="http://www.w3.org/2000/svg" width="14" height="14" fill="none" viewBox="0 0 14 14">
  <path fill="#999" d="M5.921 11.045a6.216 6.216 0 002.902-.712l2.456 2.29c.299.28.705.436 1.128.436.423 0 .829-.157 1.128-.436.299-.279.467-.657.467-1.052 0-.394-.168-.772-.467-1.051l-2.456-2.29a5.199 5.199 0 00.639-3.83c-.29-1.307-1.079-2.471-2.219-3.278A6.224 6.224 0 005.517.012C4.089.105 2.746.675 1.734 1.619a5.417 5.417 0 00-1.62 2.828 5.177 5.177 0 00.337 3.19 5.624 5.624 0 002.18 2.478 6.23 6.23 0 003.29.93zM2.776 2.59a4.586 4.586 0 012.709-1.194 4.696 4.696 0 012.905.68 4.183 4.183 0 011.784 2.244 3.886 3.886 0 01-.147 2.79 4.266 4.266 0 01-2.012 2.07 4.73 4.73 0 01-2.963.41 4.514 4.514 0 01-2.57-1.437 3.979 3.979 0 01-1.009-2.63 3.876 3.876 0 01.337-1.588c.223-.504.552-.96.966-1.345z"/>
</svg>
