<svg xmlns="http://www.w3.org/2000/svg" width="31" height="30" fill="none" viewBox="0 0 31 30">
  <path fill="#555" d="M31 15l-3.438-3.986.479-5.271-5.087-1.172L20.291 0 15.5 2.086 10.71 0 8.045 4.557 2.959 5.714 3.44 11 0 15l3.438 3.986-.479 5.285 5.087 1.172L10.709 30l4.791-2.1 4.79 2.086 2.664-4.557 5.087-1.172-.48-5.271L31 15zm-19.192 5.729L8.455 17.3a1.437 1.437 0 010-2.014l.098-.1a1.407 1.407 0 012.001 0l2.269 2.314 7.256-7.371a1.407 1.407 0 012.002 0l.098.1c.55.557.55 1.457 0 2.014l-8.342 8.486a1.44 1.44 0 01-2.029 0z"/>
</svg>
