<svg xmlns="http://www.w3.org/2000/svg" width="20" height="25" fill="none" viewBox="0 0 20 25">
  <path fill="#555" d="m11.364 2.5 5.985 6.037V22.5H2.48v-20h8.885ZM12.392 0H2.478C1.115 0 0 1.125 0 2.5v20C0 23.875 1.115 25 2.478 25H17.35c1.363 0 2.479-1.125 2.479-2.5v-15L12.392 0ZM9.914 15c1.363 0 2.478-1.125 2.478-2.5S11.277 10 9.914 10c-1.363 0-2.479 1.125-2.479 2.5S8.551 15 9.914 15Zm4.957 4.288a2.514 2.514 0 0 0-1.512-2.313 8.55 8.55 0 0 0-6.89 0c-.917.4-1.512 1.3-1.512 2.313V20h9.914v-.712Z"/>
</svg>
