<svg xmlns="http://www.w3.org/2000/svg" xmlns:xlink="http://www.w3.org/1999/xlink" width="296" height="589" fill="none" viewBox="0 0 296 589">
  <g class="채팅1" filter="url(#a)">
    <g class="MockUp">
      <g class="Right Side">
        <g class="Battery">
          <path stroke="#000" stroke-width=".773" d="M105.144 189.165h4.145a1.816 1.816 0 1 1 0 3.631h-4.145a1.816 1.816 0 1 1 0-3.631Z" class="Rectangle" opacity=".35"/>
          <path fill="#000" d="M111.879 190.203v.566c0 .47.516.681.516.211a.843.843 0 0 0-.516-.777" class="Combined Shape" opacity=".4"/>
          <path fill="#000" d="M103.719 190.98c0-.787.638-1.425 1.425-1.425h4.145a1.425 1.425 0 0 1 0 2.85h-4.145a1.425 1.425 0 0 1-1.425-1.425Z" class="Rectangle"/>
        </g>
        <path fill="#000" fill-rule="evenodd" d="M98.023 189.662c.86 0 1.69.331 2.313.925a.12.12 0 0 0 .169-.002l.449-.453a.129.129 0 0 0 .036-.089.122.122 0 0 0-.037-.088 4.235 4.235 0 0 0-5.86 0 .124.124 0 0 0-.002.177l.45.453a.12.12 0 0 0 .168.002 3.356 3.356 0 0 1 2.314-.925Zm-.004 1.476c.473 0 .93.175 1.28.493a.12.12 0 0 0 .168-.002l.45-.454a.124.124 0 0 0-.002-.178 2.783 2.783 0 0 0-3.79 0 .124.124 0 0 0-.002.178l.448.454a.12.12 0 0 0 .169.002c.35-.317.806-.493 1.279-.493Zm.9.992a.123.123 0 0 1-.037.09l-.776.783a.121.121 0 0 1-.172 0l-.776-.783a.123.123 0 0 1 .003-.178 1.33 1.33 0 0 1 1.718 0 .12.12 0 0 1 .04.088Z" class="Wifi" clip-rule="evenodd"/>
        <path fill="#000" fill-rule="evenodd" d="M92.71 188.908h-.388a.389.389 0 0 0-.388.389v3.368c0 .215.174.389.388.389h.389a.389.389 0 0 0 .389-.389v-3.368a.389.389 0 0 0-.39-.389Zm-2.196.907h.388c.215 0 .389.174.389.389v2.461a.389.389 0 0 1-.389.389h-.388a.389.389 0 0 1-.389-.389v-2.461c0-.215.174-.389.389-.389Zm-1.428.908h-.389a.388.388 0 0 0-.388.388v1.555c0 .215.174.389.388.389h.389a.389.389 0 0 0 .389-.389v-1.555a.388.388 0 0 0-.39-.388Zm-1.813.776h-.388a.389.389 0 0 0-.389.389v.777c0 .215.174.389.389.389h.388a.389.389 0 0 0 .389-.389v-.777a.389.389 0 0 0-.389-.389Z" class="Mobile Signal" clip-rule="evenodd"/>
      </g>
      <g class="Btns">
        <path fill="#727272" d="M4 141.052a2.045 2.045 0 0 1 4.09 0v10.909a2.045 2.045 0 0 1-4.09 0v-10.909Z" class="Rectangle 24"/>
        <path fill="#727272" d="M4 231.046a2.045 2.045 0 0 1 4.09 0v44.998a2.045 2.045 0 0 1-4.09 0v-44.998Z" class="Rectangle 26"/>
        <path fill="#727272" d="M291.031 193.549a2.045 2.045 0 1 0-4.09 0v76.359a2.044 2.044 0 1 0 4.09 0v-76.359Z" class="Rectangle 28"/>
        <path fill="#727272" d="M4 172.413a2.045 2.045 0 0 1 4.09 0v44.998a2.045 2.045 0 0 1-4.09 0v-44.998Z" class="Rectangle 27"/>
      </g>
      <rect width="283.125" height="580.798" x="6.238" fill="url(#b)" class="Outline" rx="29.388"/>
      <rect width="275.291" height="574.083" x="9.594" y="3.357" fill="#232020" class="Inline" rx="29.388"/>
    </g>
    <rect width="254.687" height="553.842" x="19.941" y="13.662" fill="#FEFEFE" class="Rectangle 2" rx="21.654"/>
    <g class="Phone App - IOS">
      <g class="Mask group">
        <mask id="c" width="255" height="555" x="20" y="13" class="c" maskUnits="userSpaceOnUse" style="mask-type:alpha">
          <rect width="254.437" height="553.73" x="20.242" y="13.921" fill="#FEFEFE" class="Rectangle 2" rx="21.654"/>
        </mask>
        <g mask="url(#c)">
          <path fill="url(#d)" d="M20.242 40.989h254.437v526.662H20.242z" class="1-채팅방"/>
          <g class="logo">
            <g class="Group">
              <path fill="url(#e)" d="M37.678 115.925h1.107l.36 1.488h.008l.36-1.488h1.108v2.529h-.736v-1.622h-.008l-.439 1.622h-.58l-.439-1.622h-.008v1.622h-.735v-2.529h.002Z" class="Vector"/>
              <path fill="url(#f)" d="M41.728 116.416h-.7v-.493h.7v.493Zm-.7.2h.7v1.838h-.7v-1.838Z" class="Vector"/>
              <path fill="url(#g)" d="M42.125 116.615h.676v.234h.008c.132-.186.331-.28.598-.28.176 0 .325.054.448.161.12.108.182.261.182.462v1.26h-.701v-.962a.656.656 0 0 0-.044-.273c-.029-.059-.092-.088-.186-.088a.333.333 0 0 0-.098.016.261.261 0 0 0-.09.053.261.261 0 0 0-.067.108.52.52 0 0 0-.025.176v.97h-.701v-1.837Z" class="Vector"/>
              <path fill="url(#h)" d="M45.26 116.615h.375v.431h-.375v.641c0 .09.015.153.044.19.028.036.086.055.172.055.054 0 .107-.004.16-.011v.531c-.05 0-.123.004-.22.011a3.414 3.414 0 0 1-.23.012 1.55 1.55 0 0 1-.239-.017.543.543 0 0 1-.193-.073.387.387 0 0 1-.142-.167.702.702 0 0 1-.054-.291v-.879h-.312v-.431h.312v-.56h.702v.558Z" class="Vector"/>
              <path fill="url(#i)" d="M47.069 116.658a1.166 1.166 0 0 1 .669-.696 1.32 1.32 0 0 1 .518-.098c.19 0 .362.032.52.098a1.193 1.193 0 0 1 .668.696 1.5 1.5 0 0 1 .092.531c0 .191-.03.368-.092.531a1.179 1.179 0 0 1-.669.696 1.35 1.35 0 0 1-.519.098 1.34 1.34 0 0 1-.519-.098 1.193 1.193 0 0 1-.406-.274 1.239 1.239 0 0 1-.263-.422 1.497 1.497 0 0 1-.091-.531c0-.192.03-.368.092-.531Zm.735.866a.576.576 0 0 0 .125.217c.05.052.103.088.16.109a.491.491 0 0 0 .171.033.491.491 0 0 0 .17-.033.425.425 0 0 0 .162-.109.602.602 0 0 0 .124-.217 1.01 1.01 0 0 0 .048-.335 1 1 0 0 0-.048-.336.59.59 0 0 0-.124-.217.437.437 0 0 0-.161-.109.49.49 0 0 0-.17-.032.49.49 0 0 0-.171.032.438.438 0 0 0-.161.109.602.602 0 0 0-.125.217 1.018 1.018 0 0 0-.048.336c0 .132.016.243.048.335Z" class="Vector"/>
              <path fill="url(#j)" d="M51.044 117.313c-.008-.078-.033-.136-.079-.172-.042-.041-.101-.06-.176-.06a.297.297 0 0 0-.157.037.233.233 0 0 0-.094.103.502.502 0 0 0-.044.144 1.205 1.205 0 0 0 0 .347.43.43 0 0 0 .044.142.26.26 0 0 0 .096.102.302.302 0 0 0 .157.036.253.253 0 0 0 .186-.079.3.3 0 0 0 .086-.191h.669a.833.833 0 0 1-.313.571 1.005 1.005 0 0 1-.643.207 1.07 1.07 0 0 1-.386-.069.986.986 0 0 1-.318-.195.9.9 0 0 1-.214-.307.973.973 0 0 1-.077-.391c0-.142.025-.273.077-.393a.87.87 0 0 1 .213-.309.959.959 0 0 1 .318-.198c.12-.046.25-.069.387-.069.254 0 .469.064.641.19.175.127.27.311.292.554h-.665Z" class="Vector"/>
              <path fill="url(#k)" d="M52.608 117.691c.01.11.044.196.105.261a.33.33 0 0 0 .251.098.433.433 0 0 0 .173-.035.258.258 0 0 0 .12-.097h.656a.792.792 0 0 1-.358.433 1.158 1.158 0 0 1-.587.148c-.145 0-.281-.021-.408-.064a.937.937 0 0 1-.33-.188.844.844 0 0 1-.216-.302 1.01 1.01 0 0 1-.077-.405c0-.132.024-.257.07-.376a.927.927 0 0 1 .197-.312c.086-.09.19-.16.31-.209.12-.05.251-.075.393-.075.356 0 .619.096.79.287.17.192.254.47.254.836h-1.343Zm.673-.364a.294.294 0 0 0-.087-.218.293.293 0 0 0-.22-.089c-.207 0-.328.104-.36.309h.667v-.002Z" class="Vector"/>
              <path fill="url(#l)" d="M56.037 118.042c0 .084.006.161.016.23a.456.456 0 0 0 .069.18h-.715a.493.493 0 0 1-.025-.174h-.008a.587.587 0 0 1-.254.17c-.1.033-.211.05-.336.05a.739.739 0 0 1-.465-.14c-.121-.094-.182-.232-.182-.416a.5.5 0 0 1 .076-.286.507.507 0 0 1 .198-.172 1.02 1.02 0 0 1 .255-.09 3.6 3.6 0 0 1 .316-.05c.088-.012.151-.021.191-.029a.373.373 0 0 0 .14-.052c.034-.023.052-.059.052-.111a.138.138 0 0 0-.067-.126.292.292 0 0 0-.163-.043c-.098 0-.165.02-.201.056a.187.187 0 0 0-.06.132h-.651a.567.567 0 0 1 .09-.306.536.536 0 0 1 .218-.186c.09-.043.188-.071.294-.087.105-.015.22-.023.342-.023.207 0 .372.02.493.06.12.038.207.09.26.155a.445.445 0 0 1 .1.211c.013.075.02.174.02.293v.754h-.003Zm-.672-.414a1.269 1.269 0 0 1-.276.088.508.508 0 0 0-.182.069c-.036.027-.056.071-.056.128 0 .045.021.085.064.119a.234.234 0 0 0 .155.052.29.29 0 0 0 .205-.075.296.296 0 0 0 .088-.213v-.168h.002Z" class="Vector"/>
              <path fill="url(#m)" d="M56.41 116.615h.677v.234h.007c.132-.186.332-.28.598-.28.176 0 .326.054.448.161.12.108.182.261.182.462v1.26h-.701v-.962a.654.654 0 0 0-.044-.273c-.029-.059-.092-.088-.186-.088a.332.332 0 0 0-.098.016.263.263 0 0 0-.09.053.261.261 0 0 0-.067.108.518.518 0 0 0-.025.176v.97h-.7v-1.837Z" class="Vector"/>
            </g>
            <g class="Group">
              <path fill="url(#n)" d="M58.213 105.174c0-5.957-4.842-10.802-10.794-10.802-5.953 0-10.794 4.845-10.794 10.802 0 3.636 1.807 6.855 4.566 8.814h-.801v.246h3.615l.01-.002a.58.58 0 0 0 .534-.631v-2.793h-.245v2.805a.338.338 0 0 1-.316.374h-2.363c-2.86-1.891-4.753-5.135-4.753-8.815 0-5.82 4.732-10.554 10.547-10.554 5.817 0 10.547 4.735 10.547 10.554 0 3.67-1.882 6.907-4.73 8.799-.585-.004-1.25-.006-1.868-.006-.893 0-1.453.068-2.045.138a19.78 19.78 0 0 1-1.8.154c-1.455.057-2.261-.282-2.426-.51-.044-.06-.033-.094-.027-.106.119-.324.567-.542 1.44-.696-.005-.074-.013-.157-.02-.245-.696.121-1.15.286-1.412.518v-7.641c0-.508-.002-1.455.442-2.356.086-.175.163-.322.232-.453.312-.592.468-.89.468-1.913v-2.857c0-.347.17-.685.367-.765.044.228.102.452.19.652.06.134.165.163.295.172.18.016.36.006.538-.02.148-.022.386-.028.441-.212.033-.105.042-.224.048-.341l.012.008c.002.001.23.136.304.753.073.596.259 3.129.314 3.898-.498-.245-1.79-.765-2.542.021-.09.094-.364.382-.226.629.247.447 1.688.157 1.85.123l.03-.006c.36-.077.96-.203 1.415.111.295.203.489.575.573 1.101v7.677c0 .496-.034.861-.084 1.127v-8.315c0-.209-.136-.729-.387-.748-.19-.013-.334.188-.512 1.263-.115.702-.027 6.855-.005 8.22a4.519 4.519 0 0 0-.57-.349c.047.134.075.219.075.223l.023.069-.044.021c.335.191.556.379.56.385l.208.18-.003-.276c-.002-.076-.125-7.683-.002-8.434.12-.729.214-.961.258-1.036.064.085.15.317.15.478v9.364l.222-.297c.237-.318.356-.951.356-1.877v-7.685l-.002-.019c-.094-.6-.322-1.03-.676-1.275-.542-.374-1.234-.228-1.605-.15l-.03.006c-.67.142-1.49.171-1.585-.002-.023-.04.013-.155.19-.339.789-.826 2.425.119 2.44.128l.201.119-.017-.234c-.01-.14-.245-3.424-.332-4.132-.055-.444-.185-.688-.29-.814.126-.114.277-.344.29-.806a.972.972 0 0 0-.12-.51l-.04-.076c-.021-.04-.035-.079-.075-.106a.37.37 0 0 0-.111-.042c-.023-.006-.046-.004-.07-.006a.103.103 0 0 0-.063-.004.678.678 0 0 0-.124.018c-.021.003-.042.01-.063.013-.17.042-.343.038-.517.04a5.413 5.413 0 0 1-.53-.011c-.091-.008-.18-.033-.27-.056a1.935 1.935 0 0 0-.017-.182.654.654 0 0 0-.038-.15c-.015-.038-.07-.1-.055-.141.038-.1.308-.117.383-.125.268-.025.536.021.795.096.084.023.312.06.35.163.042.113-.18.11-.24.11-.164.003-.329 0-.493-.01-.106-.006-.46.023-.468-.146-.006-.152-.226-.152-.218 0 .015.408.513.374.785.385.178.008.366.021.542-.006.117-.017.24-.067.295-.186.146-.31-.245-.466-.448-.525-.331-.098-.676-.155-1.02-.102-.145.023-.311.06-.417.179-.105.115-.082.228-.015.355a.572.572 0 0 1 .057.253h-.002a.12.12 0 0 0-.074.026c-.018.016-.027.037-.037.058a1.337 1.337 0 0 0-.036.073 1.385 1.385 0 0 0-.063.145c-.016.05-.031.1-.04.152-.02.098-.03.2-.02.297.002.016.002.029.006.044.027.18.167.253.34.276l.01.087c-.344.1-.57.573-.57 1.01v2.859c0 .964-.138 1.225-.439 1.8-.07.133-.148.282-.236.458-.467.953-.467 1.937-.467 2.464v8.005a.353.353 0 0 0 .067.311c.224.309 1.033.617 2.305.617.105 0 .216-.002.33-.007a20.055 20.055 0 0 0 1.82-.156 14.855 14.855 0 0 1 2.013-.136c.486 0 1.002.002 1.485.004l.454.002c.9.006 1.596.013 1.607.013l.002-.245c-.01 0-.53-.006-1.253-.01a10.76 10.76 0 0 0 4.558-8.795Zm-10.304-8.223c-.233.034-.672.025-.887.02a8.288 8.288 0 0 0-.252-.005.637.637 0 0 1-.01-.055c.1-.004.2-.016.291-.025a2.98 2.98 0 0 1 .862.032c-.004.012-.004.023-.004.033Zm-.103.81c-.12.06-.299.06-.43.066a1.952 1.952 0 0 1-.185.002c-.054-.002-.163.012-.209-.033-.03-.03-.046-.136-.06-.178a5.848 5.848 0 0 1-.068-.247c-.014-.052-.021-.106-.035-.157l.194.003c.393.01.68.008.881-.017l-.011.217c-.004.096.011.3-.077.345Zm.337-.498-.03.008v-.017l.003-.104c.088-.034.14-.08.16-.147a.199.199 0 0 0-.039-.188.307.307 0 0 0-.098-.075c.02-.215.056-.426.138-.625a.723.723 0 0 1 .142.474c-.015.586-.268.672-.276.674Zm-1.224-1.102c.163.015.33.013.494.013.163 0 .332.004.495-.017a1.07 1.07 0 0 0 .134-.03 2.39 2.39 0 0 0-.11.542c-.322-.069-.772-.046-.908-.03a3.521 3.521 0 0 1-.297.022c-.007-.057-.017-.115-.023-.174-.011-.12-.011-.242-.011-.364.073.02.15.03.226.038Zm-.481.427a.866.866 0 0 1 .03-.322c.006.127.018.253.031.38-.034-.013-.057-.03-.061-.058Z" class="Vector"/>
              <path fill="url(#o)" d="m48.35 113.222-.074-.223c-.173-.508-.587-1.729-.66-1.953a15.302 15.302 0 0 1-.204-.815.697.697 0 0 0 .072-.046c.062-.046.11-.127.06-.2-.046-.067-.138-.105-.219-.13-.026-.119-.053-.232-.074-.332-.033-.14-.058-.253-.073-.32a17.621 17.621 0 0 1-.241-1.373c-.025-.268-.096-.426-.098-.431l-.014-.029-.028-.013c-.023-.01-.573-.257-1.058-.117a1.58 1.58 0 0 0-.389.157l-.01.007a.295.295 0 0 0-.045.037.338.338 0 0 0-.037.031c-.01.007-.019.017-.029.026-.017.014-.036.027-.047.046a.091.091 0 0 0-.018.058c.002.025.012.046.021.069l.01.023.025.059.032.079.04.098.049.115.055.134.063.152.071.166a14.943 14.943 0 0 1 .523 1.498 1.18 1.18 0 0 0-.15.134c-.045.05-.114.125-.07.196.042.069.169.071.24.078.032.004.065.002.1.004.035.136.068.263.093.372.084.36.174 1.279.23 1.927l.021.245.034.443.008.029c.153.336.638.393.66.397l.118.013-.03-.115a.84.84 0 0 1-.02-.147c.347.069.952-.211 1.025-.246l.023-.011.044-.021-.029-.071Zm-.892-3.139a.252.252 0 0 1-.071.058l-.042-.183c.072.027.151.073.113.125Zm-2.08-2.493s.024-.082.403-.191c.366-.108.8.048.914.096.02.051.058.174.073.35a17.4 17.4 0 0 0 .245 1.394c.016.066.042.179.073.319.042.184.094.414.148.642l-.018.006a.887.887 0 0 1-.11.025l-.009-.006a.138.138 0 0 0-.11-.015.28.28 0 0 0-.064.011.088.088 0 0 0-.029.012.125.125 0 0 0-.028.026l-.09.008c-.01-.054-.016-.1-.018-.13-.017-.223-.21-.932-.304-1.275-.021-.077-.037-.129-.04-.146a23.444 23.444 0 0 0-.089-.349c-.036-.138-.07-.278-.103-.416-.004-.014-.008-.033-.017-.052a.194.194 0 0 0-.048-.061.482.482 0 0 0-.364-.121.617.617 0 0 1-.307-.048c-.097-.046-.107-.079-.107-.079Zm.74 2.729a.848.848 0 0 1-.149-.019c-.015-.004-.06-.006-.065-.027-.004-.014.025-.04.032-.05.043-.05.09-.094.14-.134.023.078.046.155.065.232-.007-.004-.015-.002-.023-.002Zm-.423-1.843c-.12-.282-.213-.502-.276-.655.13.063.259.067.38.063.101-.002.176.009.247.076.01.01.011.012.011.014l.006.017c.032.142.069.282.105.422.03.115.06.23.087.345.003.017.019.073.04.152.084.31.283 1.037.299 1.242.002.033.01.077.017.132-.102.01-.201.023-.303.029-.163-.598-.412-1.369-.613-1.837Zm1.454 4.18c0 .071-.006.155-.01.247a1.044 1.044 0 0 0-.003.077c-.014.236-.027.479-.014.652-.126-.033-.331-.107-.413-.268l-.035-.441-.021-.246c-.056-.65-.146-1.564-.232-1.936a9 9 0 0 0-.086-.34c.013-.002.027-.002.04-.002l.255-.023c.067.361.216.982.29 1.285l.036.153c.011.046.03.112.055.188.06.19.14.449.138.648v.006Zm.998.558c-.276.119-.687.247-.867.184.001-.13.011-.276.017-.406l.004-.067c.005-.093.01-.177.011-.25v-.027c.002-.226-.084-.498-.146-.698a2.002 2.002 0 0 1-.051-.176l-.037-.153c-.065-.273-.216-.901-.285-1.262l.096-.009c.002.005.002.011.003.017.002.015.016.025.03.029-.024.209-.054.446.084.621.036.044.097-.019.063-.064-.098-.122-.08-.302-.073-.448.002-.027.006-.056.01-.083.132.131.233.29.293.468.017.054.103.031.086-.023a1.277 1.277 0 0 0-.316-.508.069.069 0 0 0 .04-.011.06.06 0 0 0 .023-.029.876.876 0 0 0 .125-.031c.08.347.16.673.203.805a243.64 243.64 0 0 0 .712 2.11.148.148 0 0 0-.025.011Z" class="Vector"/>
            </g>
          </g>
        </g>
      </g>
      <rect width="90.284" height="3.519" x="101.148" y="555.919" fill="#000" class="NavBar" rx="1.547"/>
      <g class="Right Side">
        <g class="Battery">
          <path stroke="#000" stroke-width=".773" d="M246.414 28.386h10.58c.925 0 1.675.75 1.675 1.676v3.454c0 .926-.75 1.676-1.675 1.676h-10.58c-.926 0-1.676-.75-1.676-1.676v-3.454c0-.926.75-1.676 1.676-1.676Z" class="Rectangle" opacity=".35"/>
          <path fill="#000" d="M259.727 30.452v2.675a1.452 1.452 0 0 0 0-2.675" class="Combined Shape" opacity=".4"/>
          <path fill="#000" d="M245.691 30.188c0-.47.381-.851.851-.851h10.33c.47 0 .85.38.85.85v3.203a.85.85 0 0 1-.85.851h-10.33a.85.85 0 0 1-.851-.85v-3.203Z" class="Rectangle"/>
        </g>
        <path fill="#000" fill-rule="evenodd" d="M235.885 29.52c1.482 0 2.906.57 3.979 1.591.081.079.21.078.29-.002l.773-.78a.217.217 0 0 0-.002-.305 7.28 7.28 0 0 0-10.079 0 .214.214 0 0 0-.002.305l.772.78c.08.08.209.081.29.002a5.774 5.774 0 0 1 3.979-1.59Zm0 2.54a3.28 3.28 0 0 1 2.201.848.208.208 0 0 0 .29-.004l.772-.78a.216.216 0 0 0-.003-.307 4.784 4.784 0 0 0-6.519 0 .216.216 0 0 0-.003.307l.772.78c.079.08.208.082.29.004a3.278 3.278 0 0 1 2.2-.849Zm1.547 1.707a.208.208 0 0 1-.063.154l-1.335 1.348a.207.207 0 0 1-.296 0l-1.335-1.348a.209.209 0 0 1 .006-.306 2.286 2.286 0 0 1 2.954 0 .209.209 0 0 1 .069.152Z" class="Wifi" clip-rule="evenodd"/>
        <path fill="#000" fill-rule="evenodd" d="M226.75 28.223h-.668c-.369 0-.668.3-.668.668v5.796c0 .37.299.669.668.669h.668c.37 0 .669-.3.669-.669v-5.796a.669.669 0 0 0-.669-.668Zm-3.789 1.56h.669c.369 0 .668.3.668.669v4.235c0 .37-.299.669-.668.669h-.669a.668.668 0 0 1-.668-.669v-4.235c0-.37.299-.669.668-.669Zm-2.449 1.56h-.668a.67.67 0 0 0-.669.67v2.674c0 .37.3.669.669.669h.668a.67.67 0 0 0 .669-.669v-2.675a.67.67 0 0 0-.669-.669Zm-3.121 1.338h-.668c-.369 0-.668.3-.668.669v1.337c0 .37.299.669.668.669h.668c.37 0 .669-.3.669-.669V33.35a.669.669 0 0 0-.669-.67Z" class="Mobile Signal" clip-rule="evenodd"/>
      </g>
      <path fill="#000" d="M99.293 13.92h95.897a2.21 2.21 0 0 0-1.6 2.053l-.013.385c0 5.915-4.795 10.71-10.709 10.71h-71.252c-5.915 0-10.71-4.795-10.71-10.71l-.013-.385a2.21 2.21 0 0 0-1.6-2.052Z" class="Notch"/>
    </g>
    <g class="설명번호">
      <g class="1번">
        <path stroke="#D10606" stroke-width="1.547" d="M75.926 513.515h42.535v28.614H75.926z" class="1번"/>
        <g class="1">
          <circle cx="118.464" cy="512.741" r="12.374" fill="#0A75C2" class="Ellipse 6"/>
          <path fill="#fff" d="M119.891 507.739v8.815h-1.74v-6.81l-2.091.665v-1.371l3.643-1.299h.188Z" class="1"/>
        </g>
      </g>
      <g class="2번">
        <path stroke="#D10606" stroke-width="1.547" d="M157.129 54.136h31.708V82.75h-31.708V54.136Z" class="2번"/>
        <g class="2">
          <circle cx="152.491" cy="83.523" r="12.374" fill="#0A75C2" class="Ellipse 6"/>
          <path fill="#fff" d="M155.694 85.977v1.359h-6.017v-1.16l2.845-3.051c.286-.319.512-.598.677-.84.165-.246.284-.465.356-.659.077-.197.115-.384.115-.562 0-.265-.044-.493-.133-.682a.986.986 0 0 0-.392-.447 1.177 1.177 0 0 0-.629-.157c-.266 0-.495.064-.689.193a1.235 1.235 0 0 0-.435.538c-.096.23-.145.489-.145.779h-1.746c0-.524.125-1.003.375-1.438a2.75 2.75 0 0 1 1.057-1.045c.455-.262.995-.393 1.619-.393.617 0 1.136.1 1.559.302.427.198.75.484.967.858.222.37.332.814.332 1.33 0 .29-.046.573-.139.851a3.822 3.822 0 0 1-.398.822 6.67 6.67 0 0 1-.617.822c-.241.277-.509.566-.803.864l-1.529 1.716h3.77Z" class="2"/>
        </g>
      </g>
    </g>
  </g>
  <defs>
    <linearGradient id="b" x1="147.801" x2="147.801" y1="0" y2="580.798" class="b" gradientUnits="userSpaceOnUse">
      <stop stop-color="#AAA"/>
      <stop offset="1" stop-color="#898989"/>
    </linearGradient>
    <linearGradient id="e" x1="39.149" x2="39.149" y1="115.217" y2="117.516" class="e" gradientUnits="userSpaceOnUse">
      <stop offset=".006" stop-color="#15B5EA"/>
      <stop offset=".12" stop-color="#16AFE6"/>
      <stop offset=".313" stop-color="#17A1DC"/>
      <stop offset=".561" stop-color="#1F88C9"/>
      <stop offset=".851" stop-color="#2F64AE"/>
      <stop offset="1" stop-color="#35509E"/>
    </linearGradient>
    <linearGradient id="f" x1="41.378" x2="41.378" y1="115.218" y2="117.517" class="f" gradientUnits="userSpaceOnUse">
      <stop offset=".006" stop-color="#15B5EA"/>
      <stop offset=".12" stop-color="#16AFE6"/>
      <stop offset=".313" stop-color="#17A1DC"/>
      <stop offset=".561" stop-color="#1F88C9"/>
      <stop offset=".851" stop-color="#2F64AE"/>
      <stop offset="1" stop-color="#35509E"/>
    </linearGradient>
    <linearGradient id="g" x1="43.081" x2="43.081" y1="115.218" y2="117.517" class="g" gradientUnits="userSpaceOnUse">
      <stop offset=".006" stop-color="#15B5EA"/>
      <stop offset=".12" stop-color="#16AFE6"/>
      <stop offset=".313" stop-color="#17A1DC"/>
      <stop offset=".561" stop-color="#1F88C9"/>
      <stop offset=".851" stop-color="#2F64AE"/>
      <stop offset="1" stop-color="#35509E"/>
    </linearGradient>
    <linearGradient id="h" x1="44.941" x2="44.941" y1="115.217" y2="117.516" class="h" gradientUnits="userSpaceOnUse">
      <stop offset=".006" stop-color="#15B5EA"/>
      <stop offset=".12" stop-color="#16AFE6"/>
      <stop offset=".313" stop-color="#17A1DC"/>
      <stop offset=".561" stop-color="#1F88C9"/>
      <stop offset=".851" stop-color="#2F64AE"/>
      <stop offset="1" stop-color="#35509E"/>
    </linearGradient>
    <linearGradient id="i" x1="48.258" x2="48.258" y1="115.218" y2="117.517" class="i" gradientUnits="userSpaceOnUse">
      <stop offset=".006" stop-color="#15B5EA"/>
      <stop offset=".12" stop-color="#16AFE6"/>
      <stop offset=".313" stop-color="#17A1DC"/>
      <stop offset=".561" stop-color="#1F88C9"/>
      <stop offset=".851" stop-color="#2F64AE"/>
      <stop offset="1" stop-color="#35509E"/>
    </linearGradient>
    <linearGradient id="j" x1="50.755" x2="50.755" y1="115.218" y2="117.517" class="j" gradientUnits="userSpaceOnUse">
      <stop offset=".006" stop-color="#15B5EA"/>
      <stop offset=".12" stop-color="#16AFE6"/>
      <stop offset=".313" stop-color="#17A1DC"/>
      <stop offset=".561" stop-color="#1F88C9"/>
      <stop offset=".851" stop-color="#2F64AE"/>
      <stop offset="1" stop-color="#35509E"/>
    </linearGradient>
    <linearGradient id="k" x1="52.945" x2="52.945" y1="115.218" y2="117.517" class="k" gradientUnits="userSpaceOnUse">
      <stop offset=".006" stop-color="#15B5EA"/>
      <stop offset=".12" stop-color="#16AFE6"/>
      <stop offset=".313" stop-color="#17A1DC"/>
      <stop offset=".561" stop-color="#1F88C9"/>
      <stop offset=".851" stop-color="#2F64AE"/>
      <stop offset="1" stop-color="#35509E"/>
    </linearGradient>
    <linearGradient id="l" x1="55.13" x2="55.13" y1="115.218" y2="117.517" class="l" gradientUnits="userSpaceOnUse">
      <stop offset=".006" stop-color="#15B5EA"/>
      <stop offset=".12" stop-color="#16AFE6"/>
      <stop offset=".313" stop-color="#17A1DC"/>
      <stop offset=".561" stop-color="#1F88C9"/>
      <stop offset=".851" stop-color="#2F64AE"/>
      <stop offset="1" stop-color="#35509E"/>
    </linearGradient>
    <linearGradient id="m" x1="57.366" x2="57.366" y1="115.218" y2="117.517" class="m" gradientUnits="userSpaceOnUse">
      <stop offset=".006" stop-color="#15B5EA"/>
      <stop offset=".12" stop-color="#16AFE6"/>
      <stop offset=".313" stop-color="#17A1DC"/>
      <stop offset=".561" stop-color="#1F88C9"/>
      <stop offset=".851" stop-color="#2F64AE"/>
      <stop offset="1" stop-color="#35509E"/>
    </linearGradient>
    <linearGradient id="n" x1="39.236" x2="53.491" y1="96.424" y2="112.283" class="n" gradientUnits="userSpaceOnUse">
      <stop offset=".006" stop-color="#15B5EA"/>
      <stop offset=".12" stop-color="#16AFE6"/>
      <stop offset=".313" stop-color="#17A1DC"/>
      <stop offset=".561" stop-color="#1F88C9"/>
      <stop offset=".851" stop-color="#2F64AE"/>
      <stop offset="1" stop-color="#35509E"/>
    </linearGradient>
    <linearGradient id="o" x1="45.007" x2="48.414" y1="107.603" y2="113.266" class="o" gradientUnits="userSpaceOnUse">
      <stop offset=".006" stop-color="#15B2EA"/>
      <stop offset=".12" stop-color="#16AFE6"/>
      <stop offset=".313" stop-color="#17A1DC"/>
      <stop offset=".561" stop-color="#1F88C9"/>
      <stop offset=".851" stop-color="#2F64AE"/>
      <stop offset="1" stop-color="#35509E"/>
    </linearGradient>
    <pattern id="d" width="1" height="1" class="d" patternContentUnits="objectBoundingBox">
      <use xlink:href="#p" transform="scale(.00089 .00043)"/>
    </pattern>
    <filter id="a" width="295.031" height="588.798" x="0" y="0" class="a" color-interpolation-filters="sRGB" filterUnits="userSpaceOnUse">
      <feFlood flood-opacity="0" result="BackgroundImageFix"/>
      <feColorMatrix in="SourceAlpha" result="hardAlpha" values="0 0 0 0 0 0 0 0 0 0 0 0 0 0 0 0 0 0 127 0"/>
      <feOffset dy="4"/>
      <feGaussianBlur stdDeviation="2"/>
      <feComposite in2="hardAlpha" operator="out"/>
      <feColorMatrix values="0 0 0 0 0 0 0 0 0 0 0 0 0 0 0 0 0 0 0.25 0"/>
      <feBlend in2="BackgroundImageFix" result="effect1_dropShadow_967_869"/>
      <feBlend in="SourceGraphic" in2="effect1_dropShadow_967_869" result="shape"/>
    </filter>
  </defs>
</svg>
