<svg xmlns="http://www.w3.org/2000/svg" xmlns:xlink="http://www.w3.org/1999/xlink" width="288" height="582" fill="none" viewBox="0 0 288 582">
  <path stroke="#000" stroke-width=".773" d="M101.152 189.966h4.145a1.816 1.816 0 1 1 0 3.631h-4.145a1.816 1.816 0 1 1 0-3.631Z" opacity=".35"/>
  <path fill="#000" d="M107.891 191.004v.566c0 .469.516.681.516.211a.845.845 0 0 0-.516-.777" opacity=".4"/>
  <path fill="#000" d="M99.727 191.78c0-.787.638-1.425 1.425-1.425h4.145a1.425 1.425 0 0 1 0 2.851h-4.145a1.426 1.426 0 0 1-1.425-1.426Z"/>
  <path fill="#000" fill-rule="evenodd" d="M94.023 190.463c.86 0 1.69.331 2.313.925a.12.12 0 0 0 .169-.002l.449-.453a.124.124 0 0 0-.001-.177 4.235 4.235 0 0 0-5.86 0 .124.124 0 0 0-.002.177l.45.453a.12.12 0 0 0 .168.002 3.356 3.356 0 0 1 2.314-.925Zm-.004 1.475c.473 0 .93.176 1.28.494a.12.12 0 0 0 .168-.002l.45-.454a.125.125 0 0 0-.003-.178 2.781 2.781 0 0 0-3.79 0 .124.124 0 0 0-.001.178l.448.454a.12.12 0 0 0 .169.002c.35-.318.806-.493 1.279-.494Zm.9.993a.12.12 0 0 1-.037.089l-.776.784a.121.121 0 0 1-.172 0l-.776-.784a.12.12 0 0 1 .003-.177 1.328 1.328 0 0 1 1.718 0 .12.12 0 0 1 .04.088Zm-6.209-3.222h-.388a.389.389 0 0 0-.388.389v3.368c0 .215.174.389.388.389h.389a.389.389 0 0 0 .389-.389v-3.368a.389.389 0 0 0-.39-.389Zm-2.192.907h.388c.215 0 .389.174.389.389v2.461a.389.389 0 0 1-.389.389h-.389a.389.389 0 0 1-.388-.389v-2.461c0-.215.174-.389.388-.389Zm-1.432.906h-.389a.389.389 0 0 0-.388.389v1.555c0 .214.174.388.388.388h.389a.388.388 0 0 0 .389-.388v-1.555a.389.389 0 0 0-.39-.389Zm-1.813.778h-.388a.388.388 0 0 0-.389.388v.778c0 .214.174.388.389.388h.388a.388.388 0 0 0 .389-.388v-.778a.388.388 0 0 0-.389-.388Z" clip-rule="evenodd"/>
  <path fill="#727272" d="M0 141.854a2.045 2.045 0 1 1 4.09 0v10.908a2.046 2.046 0 1 1-4.09 0v-10.908Zm0 89.994a2.045 2.045 0 1 1 4.09 0v44.997a2.046 2.046 0 1 1-4.09 0v-44.997Zm287.031-37.497a2.044 2.044 0 1 0-4.09 0v76.359a2.044 2.044 0 1 0 4.09 0v-76.359ZM0 173.216a2.045 2.045 0 0 1 4.09 0v44.997a2.046 2.046 0 1 1-4.09 0v-44.997Z"/>
  <rect width="283.125" height="580.798" x="2.238" y=".802" fill="url(#a)" rx="29.388"/>
  <rect width="275.291" height="574.083" x="5.598" y="4.159" fill="#232020" rx="29.388"/>
  <rect width="254.687" height="553.842" x="16.172" y="14.664" fill="#FEFEFE" rx="21.654"/>
  <mask id="o" width="255" height="555" x="16" y="14" maskUnits="userSpaceOnUse" style="mask-type:alpha">
    <mask id="b" width="255" height="555" x="16" y="14" maskUnits="userSpaceOnUse" style="mask-type:alpha">
      <rect width="254.437" height="553.73" x="16.094" y="14.597" fill="#FEFEFE" rx="21.654"/>
    </mask>
    <g mask="url(#b)">
      <path fill="url(#c)" d="M16.094 41.664h254.437v526.662H16.094z"/>
      <path fill="url(#d)" d="M33.53 116.601h1.107l.36 1.487h.008l.36-1.487h1.107v2.529h-.736v-1.623h-.007l-.44 1.623h-.58l-.438-1.623h-.008v1.623h-.736v-2.529h.002Z"/>
      <path fill="url(#e)" d="M37.58 117.091h-.701v-.492h.701v.492Zm-.701.2h.701v1.839h-.701v-1.839Z"/>
      <path fill="url(#f)" d="M37.977 117.29h.676v.234h.008c.132-.186.331-.28.597-.28.176 0 .326.054.449.161.12.108.182.261.182.462v1.26h-.702v-.963a.652.652 0 0 0-.044-.272c-.028-.059-.092-.088-.185-.088a.367.367 0 0 0-.098.015.283.283 0 0 0-.09.054.257.257 0 0 0-.067.107.524.524 0 0 0-.025.177v.97h-.701v-1.837Z"/>
      <path fill="url(#g)" d="M41.111 117.29h.376v.432h-.376v.64c0 .09.016.154.044.19.029.036.086.056.173.056.053 0 .107-.004.159-.012v.531c-.05 0-.123.004-.219.012a4.01 4.01 0 0 1-.23.011c-.09 0-.168-.006-.24-.017a.524.524 0 0 1-.193-.073.381.381 0 0 1-.141-.167.695.695 0 0 1-.054-.291v-.878h-.312v-.432h.312v-.56h.701v.558Z"/>
      <path fill="url(#h)" d="M42.92 117.333c.061-.163.15-.303.263-.422.113-.119.249-.209.406-.274a1.35 1.35 0 0 1 .519-.098c.19 0 .362.033.52.098a1.2 1.2 0 0 1 .405.274c.113.119.201.259.263.422.061.163.092.339.092.531s-.03.368-.092.531a1.24 1.24 0 0 1-.263.422 1.166 1.166 0 0 1-.406.274 1.35 1.35 0 0 1-.52.098 1.34 1.34 0 0 1-.518-.098 1.193 1.193 0 0 1-.669-.696 1.493 1.493 0 0 1-.092-.531c0-.192.03-.368.092-.531Zm.736.866a.567.567 0 0 0 .124.217.47.47 0 0 0 .502.109.426.426 0 0 0 .161-.109.592.592 0 0 0 .125-.217c.032-.092.048-.203.048-.335s-.016-.244-.048-.336a.578.578 0 0 0-.125-.216.44.44 0 0 0-.331-.142.44.44 0 0 0-.332.142.596.596 0 0 0-.124.216 1.022 1.022 0 0 0-.048.336c0 .132.015.243.048.335Z"/>
      <path fill="url(#i)" d="M46.895 117.988c-.007-.079-.032-.136-.078-.172-.042-.041-.102-.06-.176-.06a.297.297 0 0 0-.157.037.228.228 0 0 0-.094.103.502.502 0 0 0-.044.144 1.185 1.185 0 0 0-.012.174c0 .066.004.121.011.173a.43.43 0 0 0 .045.142.257.257 0 0 0 .095.101.302.302 0 0 0 .157.037.253.253 0 0 0 .186-.079.302.302 0 0 0 .086-.192h.67a.833.833 0 0 1-.313.572 1.005 1.005 0 0 1-.644.207c-.136 0-.266-.023-.385-.069a.973.973 0 0 1-.318-.196.9.9 0 0 1-.215-.306.974.974 0 0 1-.076-.392.99.99 0 0 1 .076-.393.878.878 0 0 1 .213-.308.958.958 0 0 1 .318-.198 1.08 1.08 0 0 1 .387-.069c.255 0 .47.063.642.19.174.127.27.311.291.554h-.665Z"/>
      <path fill="url(#j)" d="M48.46 118.367c.01.109.044.195.105.26a.326.326 0 0 0 .251.098.433.433 0 0 0 .172-.034.26.26 0 0 0 .121-.098h.655a.784.784 0 0 1-.358.433c-.17.098-.366.148-.586.148-.146 0-.282-.021-.408-.063a.969.969 0 0 1-.33-.188.847.847 0 0 1-.216-.303 1.01 1.01 0 0 1-.077-.405c0-.132.023-.257.069-.376a.9.9 0 0 1 .508-.521c.12-.05.25-.075.392-.075.357 0 .62.096.79.288.17.192.255.47.255.836H48.46Zm.672-.365a.295.295 0 0 0-.086-.218.292.292 0 0 0-.22-.088c-.207 0-.328.103-.36.308h.666v-.002Z"/>
      <path fill="url(#k)" d="M51.889 118.717c0 .084.006.161.015.23a.454.454 0 0 0 .07.18h-.715a.496.496 0 0 1-.025-.174h-.008a.587.587 0 0 1-.255.17c-.1.033-.21.05-.335.05a.739.739 0 0 1-.466-.14c-.12-.094-.182-.232-.182-.416 0-.115.025-.211.077-.286a.507.507 0 0 1 .197-.172c.083-.042.167-.071.255-.09a3.31 3.31 0 0 1 .316-.05 3.78 3.78 0 0 0 .192-.029.39.39 0 0 0 .14-.052c.034-.023.051-.059.051-.111 0-.058-.023-.1-.067-.127a.3.3 0 0 0-.163-.042c-.097 0-.164.019-.2.056a.183.183 0 0 0-.06.132h-.651a.57.57 0 0 1 .09-.307.553.553 0 0 1 .218-.186c.09-.042.188-.071.293-.086.105-.015.22-.023.343-.023.207 0 .372.019.492.06.121.038.207.09.26.155a.444.444 0 0 1 .1.211c.014.075.02.174.02.293v.754h-.002Zm-.673-.414a1.268 1.268 0 0 1-.276.088.508.508 0 0 0-.181.069c-.037.027-.056.071-.056.128 0 .044.021.085.063.119a.235.235 0 0 0 .155.052.29.29 0 0 0 .205-.075.296.296 0 0 0 .088-.213v-.168h.002Z"/>
      <path fill="url(#l)" d="M52.262 117.29h.676v.234h.008c.132-.186.331-.28.597-.28a.66.66 0 0 1 .449.161c.12.108.182.261.182.462v1.26h-.702v-.963a.654.654 0 0 0-.044-.272c-.028-.059-.091-.088-.185-.088a.368.368 0 0 0-.098.015.283.283 0 0 0-.09.054.257.257 0 0 0-.067.107.526.526 0 0 0-.025.177v.97h-.701v-1.837Z"/>
      <path fill="url(#m)" d="M54.065 105.85c0-5.957-4.842-10.802-10.794-10.802-5.953 0-10.794 4.845-10.794 10.802 0 3.635 1.806 6.855 4.565 8.814h-.8v.246h3.614l.01-.002a.58.58 0 0 0 .535-.631v-2.794h-.246v2.805a.337.337 0 0 1-.316.374h-2.362c-2.86-1.89-4.753-5.134-4.753-8.814 0-5.821 4.732-10.555 10.547-10.555 5.816 0 10.546 4.736 10.546 10.555 0 3.67-1.881 6.907-4.73 8.799a282.92 282.92 0 0 0-1.868-.006c-.893 0-1.452.067-2.044.138-.502.062-1.023.123-1.801.154-1.454.057-2.26-.282-2.425-.51-.045-.06-.033-.094-.027-.106.118-.324.567-.542 1.44-.696-.005-.075-.013-.157-.02-.245-.696.121-1.15.285-1.413.517v-7.64c0-.508-.002-1.455.443-2.357.086-.174.163-.322.232-.452.312-.593.467-.89.467-1.914v-2.856c0-.348.17-.685.368-.766.044.229.102.453.19.652.06.135.165.163.295.173.18.015.36.006.538-.021.148-.021.385-.027.44-.211.033-.106.043-.224.049-.341l.011.007c.002.002.23.136.305.754.073.596.258 3.129.314 3.898-.498-.246-1.791-.765-2.542.021-.09.094-.364.381-.227.629.248.447 1.688.157 1.851.123l.029-.006c.36-.077.96-.203 1.416.111.295.203.488.575.573 1.101v7.677c0 .496-.035.86-.085 1.127v-8.316c0-.209-.136-.728-.387-.747-.19-.014-.333.188-.511 1.263-.115.702-.027 6.855-.006 8.22a4.534 4.534 0 0 0-.569-.349l.075.222.023.069-.044.021c.335.192.555.38.56.386l.208.18-.004-.276c-.002-.077-.124-7.683-.002-8.434.12-.729.215-.961.259-1.036.063.085.15.317.15.478v9.364l.221-.297c.238-.319.357-.951.357-1.877v-7.685l-.002-.019c-.094-.6-.322-1.03-.676-1.275-.542-.374-1.234-.228-1.606-.15l-.029.006c-.67.142-1.49.171-1.586-.002-.023-.04.014-.155.19-.339.79-.827 2.425.119 2.44.128l.202.119-.017-.234c-.01-.14-.246-3.424-.332-4.132-.055-.445-.186-.688-.291-.815.126-.113.278-.343.291-.805a.978.978 0 0 0-.12-.51l-.04-.077c-.022-.04-.035-.078-.076-.105a.37.37 0 0 0-.11-.042c-.024-.006-.047-.004-.07-.006a.102.102 0 0 0-.063-.004.67.67 0 0 0-.124.017l-.064.014c-.17.042-.343.038-.517.04a5.413 5.413 0 0 1-.529-.011c-.092-.008-.18-.033-.27-.056a1.969 1.969 0 0 0-.017-.182.658.658 0 0 0-.038-.15c-.016-.038-.071-.1-.056-.142.038-.1.309-.117.383-.124.268-.025.537.02.795.096.085.023.313.06.35.163.043.113-.18.109-.239.109-.164.004-.33 0-.494-.01-.105-.006-.46.023-.467-.145-.006-.152-.226-.152-.219 0 .016.408.514.374.786.385.178.008.366.021.542-.006.117-.017.24-.067.295-.186.146-.31-.245-.466-.448-.525-.332-.098-.677-.155-1.02-.102-.145.023-.312.06-.417.179-.106.115-.083.228-.016.354a.569.569 0 0 1 .058.253h-.002a.12.12 0 0 0-.075.027c-.017.016-.026.037-.036.058a1.337 1.337 0 0 0-.036.073 1.385 1.385 0 0 0-.064.145c-.015.05-.03.1-.04.152-.02.098-.029.2-.02.297.003.015.003.029.007.044.026.18.166.253.339.276l.011.086c-.345.1-.57.574-.57 1.01v2.86c0 .964-.139 1.225-.44 1.8-.07.132-.147.282-.235.458-.468.953-.468 1.937-.468 2.464v8.005a.353.353 0 0 0 .067.311c.225.308 1.033.617 2.305.617.106 0 .217-.002.33-.008.787-.03 1.312-.094 1.82-.155a14.855 14.855 0 0 1 2.013-.136c.487 0 1.002.002 1.485.004l.454.002c.9.005 1.596.013 1.608.013l.002-.245c-.01 0-.531-.006-1.253-.01a10.76 10.76 0 0 0 4.558-8.795ZM43.76 97.627c-.234.034-.672.025-.887.019-.096-.002-.18-.004-.253-.004-.004-.02-.008-.038-.01-.056.1-.003.2-.015.292-.025.304-.034.665-.011.862.033-.004.012-.004.023-.004.033Zm-.104.81c-.12.06-.298.06-.429.066a2.022 2.022 0 0 1-.186.002c-.053-.002-.162.011-.208-.033-.031-.03-.046-.136-.06-.178a6.004 6.004 0 0 1-.069-.247c-.013-.052-.02-.106-.034-.158.057 0 .124.002.193.004.393.01.68.008.882-.017l-.012.217c-.004.096.012.3-.077.345Zm.338-.498-.031.008v-.017a1.79 1.79 0 0 0 .004-.104c.088-.034.14-.08.159-.147a.2.2 0 0 0-.038-.189.308.308 0 0 0-.098-.074 2.11 2.11 0 0 1 .138-.625.724.724 0 0 1 .142.473c-.016.587-.269.673-.276.675Zm-1.224-1.102c.162.015.329.013.494.013.163 0 .331.004.494-.017.04-.006.086-.017.134-.03a2.39 2.39 0 0 0-.109.542c-.322-.07-.772-.046-.908-.03a3.562 3.562 0 0 1-.297.022c-.008-.057-.017-.115-.023-.174-.012-.121-.012-.242-.012-.365.073.022.15.031.227.039Zm-.481.427a.866.866 0 0 1 .03-.322c.006.127.017.253.03.38-.034-.014-.057-.03-.06-.058Z"/>
      <path fill="url(#n)" d="M44.202 113.898a9.495 9.495 0 0 1-.075-.222c-.172-.509-.586-1.73-.659-1.954a15.506 15.506 0 0 1-.205-.815.697.697 0 0 0 .073-.046c.061-.046.11-.127.06-.2-.047-.067-.139-.105-.219-.13-.027-.119-.054-.232-.075-.332l-.072-.32a17.574 17.574 0 0 1-.242-1.373c-.025-.268-.096-.425-.098-.431l-.013-.029-.029-.013c-.023-.01-.573-.257-1.057-.117a1.619 1.619 0 0 0-.399.165.286.286 0 0 0-.046.036c-.011.01-.025.019-.036.031a.34.34 0 0 0-.029.027c-.017.013-.036.027-.048.046a.087.087 0 0 0-.017.057.212.212 0 0 0 .021.069l.01.023.025.06.032.078.04.098.048.115c.02.044.037.088.056.134l.063.152c.023.055.048.111.07.167a14.943 14.943 0 0 1 .523 1.497 1.07 1.07 0 0 0-.149.134c-.046.05-.114.125-.07.196.042.069.168.071.239.078.033.004.065.002.1.004.036.136.069.263.093.372.085.361.175 1.279.23 1.927.008.088.016.171.021.246.022.26.035.437.035.443l.008.028c.153.336.638.393.659.397l.118.014-.03-.115a.857.857 0 0 1-.02-.148c.348.069.953-.211 1.026-.245l.023-.012.044-.021-.029-.071Zm-.893-3.139a.235.235 0 0 1-.07.058l-.043-.182c.073.026.151.073.113.124Zm-2.078-2.492s.023-.083.402-.192c.366-.107.799.048.914.096.019.052.057.174.073.351.024.262.174 1.091.245 1.394.015.065.042.178.072.318.043.184.094.414.148.642a.887.887 0 0 1-.128.031l-.008-.006a.138.138 0 0 0-.111-.015.465.465 0 0 0-.063.011.088.088 0 0 0-.03.012.109.109 0 0 0-.028.027l-.09.007a1.192 1.192 0 0 1-.017-.13c-.017-.222-.21-.932-.305-1.275-.02-.077-.036-.129-.04-.146a23.448 23.448 0 0 0-.088-.349 15.768 15.768 0 0 1-.103-.416c-.004-.013-.008-.032-.018-.052a.204.204 0 0 0-.048-.061.482.482 0 0 0-.364-.121.617.617 0 0 1-.306-.048c-.098-.046-.108-.078-.108-.078Zm.739 2.728a.848.848 0 0 1-.15-.019c-.015-.004-.059-.006-.065-.027-.003-.013.025-.04.033-.05a.984.984 0 0 1 .14-.134c.023.079.046.155.065.232-.008-.004-.015-.002-.023-.002Zm-.423-1.842a56.94 56.94 0 0 1-.276-.656c.13.063.258.067.38.063.1-.002.175.01.246.077.01.009.012.011.012.013l.005.017c.033.142.07.282.106.422.03.115.06.23.086.345l.04.152c.085.31.284 1.037.3 1.242.001.033.009.077.016.133-.101.009-.2.023-.302.028-.163-.598-.412-1.369-.613-1.836ZM43 113.332c0 .071-.006.156-.01.248a.967.967 0 0 0-.004.076c-.013.236-.026.48-.013.652-.127-.032-.331-.107-.414-.268l-.034-.441-.022-.246c-.055-.65-.145-1.564-.231-1.936a9.302 9.302 0 0 0-.087-.339c.014-.002.027-.002.04-.002l.256-.023c.067.36.216.981.289 1.284l.036.154c.012.046.03.111.056.188.06.189.14.448.138.648v.005Zm.998.558c-.276.119-.688.248-.868.184.002-.13.011-.276.017-.406l.004-.067c.006-.092.01-.177.012-.249v-.027c.002-.227-.085-.499-.146-.698a2.074 2.074 0 0 1-.052-.177l-.036-.153c-.065-.272-.217-.901-.286-1.262l.096-.009.004.017c.002.015.015.025.029.029-.023.209-.054.447.084.621.037.044.098-.019.063-.063-.097-.123-.08-.303-.073-.449a1.08 1.08 0 0 1 .01-.082c.132.13.234.289.293.467.017.054.104.031.086-.023a1.284 1.284 0 0 0-.316-.508.068.068 0 0 0 .04-.011.055.055 0 0 0 .023-.029.871.871 0 0 0 .125-.031c.08.347.161.673.203.806a271.098 271.098 0 0 0 .713 2.109l-.025.011Z"/>
    </g>
    <rect width="90.284" height="3.519" x="97" y="556.595" fill="#000" rx="1.547"/>
    <path stroke="#000" stroke-width=".773" d="M242.265 29.063h10.58c.926 0 1.676.75 1.676 1.675v3.455c0 .925-.75 1.675-1.676 1.675h-10.58c-.925 0-1.675-.75-1.675-1.675v-3.455c0-.925.75-1.675 1.675-1.675Z" opacity=".35"/>
    <path fill="#000" d="M255.578 31.128v2.675a1.451 1.451 0 0 0 0-2.675" opacity=".4"/>
    <path fill="#000" d="M241.543 30.864c0-.47.381-.85.851-.85h10.329c.47 0 .851.38.851.85v3.203a.85.85 0 0 1-.851.85h-10.329a.85.85 0 0 1-.851-.85v-3.203Z"/>
    <path fill="#000" fill-rule="evenodd" d="M231.737 30.197c1.481 0 2.906.57 3.979 1.59.081.08.21.078.29-.002l.772-.78a.214.214 0 0 0-.002-.305 7.28 7.28 0 0 0-10.079 0 .212.212 0 0 0-.064.152.214.214 0 0 0 .062.153l.773.78c.08.08.209.081.29.002a5.773 5.773 0 0 1 3.979-1.59Zm-.001 2.539c.814 0 1.599.302 2.202.849.082.077.21.075.29-.004l.771-.78a.216.216 0 0 0-.003-.307 4.783 4.783 0 0 0-6.518 0 .216.216 0 0 0-.003.307l.772.78c.079.08.208.081.289.004a3.279 3.279 0 0 1 2.2-.85Zm1.548 1.707a.212.212 0 0 1-.063.154l-1.335 1.348a.209.209 0 0 1-.297 0l-1.335-1.348a.207.207 0 0 1-.062-.154.209.209 0 0 1 .069-.151 2.286 2.286 0 0 1 2.954 0 .217.217 0 0 1 .069.151Zm-10.682-5.545h-.668a.67.67 0 0 0-.669.67v5.795c0 .37.299.669.669.669h.668c.369 0 .668-.3.668-.669v-5.796a.668.668 0 0 0-.668-.669Zm-3.789 1.56h.668c.369 0 .669.3.669.67v4.235c0 .37-.3.669-.669.669h-.668a.668.668 0 0 1-.668-.67v-4.235c0-.369.299-.668.668-.668Zm-2.449 1.561h-.669c-.369 0-.668.3-.668.669v2.675c0 .37.299.669.668.669h.669c.369 0 .668-.3.668-.67v-2.674a.668.668 0 0 0-.668-.669Zm-3.121 1.338h-.668a.668.668 0 0 0-.669.668v1.338c0 .37.299.669.669.669h.668c.369 0 .668-.3.668-.67v-1.337a.668.668 0 0 0-.668-.668Z" clip-rule="evenodd"/>
    <path fill="#000" d="M95.144 14.597h95.898a2.21 2.21 0 0 0-1.6 2.051l-.013.386c0 5.915-4.795 10.71-10.71 10.71h-71.252c-5.915 0-10.71-4.795-10.71-10.71l-.012-.386a2.21 2.21 0 0 0-1.6-2.051Z"/>
  </mask>
  <g mask="url(#o)">
    <path fill="url(#p)" d="M16.242 41.019h254.437v527.436H16.242z"/>
    <rect width="90.373" height="3.52" x="97.156" y="556.772" fill="#000" rx="1.547"/>
    <path stroke="#000" stroke-width=".773" d="M242.562 29.132h10.595c.925 0 1.675.75 1.675 1.675v3.457c0 .925-.75 1.675-1.675 1.675h-10.595c-.925 0-1.675-.75-1.675-1.675v-3.457c0-.925.75-1.675 1.675-1.675Z" opacity=".35"/>
    <path fill="#000" d="M255.891 31.197v2.676a1.452 1.452 0 0 0 0-2.676" opacity=".4"/>
    <path fill="#000" d="M241.836 30.933c0-.47.381-.851.851-.851h10.341c.47 0 .851.38.851.85v3.204a.85.85 0 0 1-.851.851h-10.341a.85.85 0 0 1-.851-.85v-3.204Z"/>
    <path fill="#000" fill-rule="evenodd" d="M232.023 30.267a5.78 5.78 0 0 1 3.983 1.591c.081.08.21.078.29-.002l.773-.78a.215.215 0 0 0-.001-.305 7.293 7.293 0 0 0-10.09 0 .217.217 0 0 0-.002.305l.774.78c.08.08.209.081.29.002a5.783 5.783 0 0 1 3.983-1.59Zm0 2.54c.814 0 1.6.302 2.204.849.081.077.21.076.289-.004l.773-.78a.217.217 0 0 0 .063-.154.22.22 0 0 0-.066-.153 4.79 4.79 0 0 0-6.525 0 .22.22 0 0 0-.066.153c0 .057.022.113.063.154l.773.78c.079.08.208.081.289.004a3.286 3.286 0 0 1 2.203-.85Zm1.549 1.707a.212.212 0 0 1-.063.154l-1.336 1.349a.211.211 0 0 1-.149.061.207.207 0 0 1-.148-.062l-1.337-1.348a.207.207 0 0 1-.062-.154.209.209 0 0 1 .069-.152 2.29 2.29 0 0 1 2.957 0 .209.209 0 0 1 .069.152Zm-10.687-5.545h-.669c-.37 0-.669.3-.669.669v5.797c0 .37.299.669.669.669h.669a.67.67 0 0 0 .669-.67v-5.796a.67.67 0 0 0-.669-.67Zm-3.794 1.56h.669c.369 0 .669.3.669.67v4.235c0 .37-.3.67-.669.67h-.669a.67.67 0 0 1-.669-.67v-4.236c0-.37.299-.669.669-.669Zm-2.448 1.562h-.669c-.37 0-.669.3-.669.669v2.675c0 .37.299.67.669.67h.669a.67.67 0 0 0 .669-.67V32.76a.67.67 0 0 0-.669-.67Zm-3.125 1.337h-.669c-.37 0-.669.3-.669.669v1.337c0 .37.299.67.669.67h.669a.67.67 0 0 0 .669-.67v-1.337a.67.67 0 0 0-.669-.67Z" clip-rule="evenodd"/>
    <path fill="#000" d="M95.75 14.597h95.897a2.21 2.21 0 0 0-1.6 2.051l-.013.386c0 5.915-4.795 10.71-10.709 10.71h-71.252c-5.915 0-10.71-4.795-10.71-10.71l-.013-.386a2.21 2.21 0 0 0-1.6-2.051Z"/>
    <path fill="url(#q)" d="M39.728 128.279h1.091l.355 1.465h.008l.354-1.465h1.091v2.489h-.725v-1.596h-.007l-.432 1.596h-.572l-.432-1.596h-.008v1.596h-.724v-2.489h.001Z"/>
    <path fill="url(#r)" d="M43.718 128.761h-.69v-.485h.69v.485Zm-.69.197h.69v1.809h-.69v-1.809Z"/>
    <path fill="url(#s)" d="M44.11 128.958h.666v.231h.007c.13-.183.326-.276.589-.276.173 0 .32.053.441.159.12.105.18.256.18.454v1.24h-.691v-.947a.638.638 0 0 0-.043-.268c-.029-.059-.091-.087-.184-.087a.358.358 0 0 0-.096.015.293.293 0 0 0-.088.053.254.254 0 0 0-.066.106.511.511 0 0 0-.025.173v.955h-.69v-1.808Z"/>
    <path fill="url(#t)" d="M47.197 128.958h.37v.425h-.37v.63c0 .089.016.151.044.187.028.036.085.055.17.055.053 0 .105-.004.156-.012v.523c-.049 0-.12.004-.215.011-.104.008-.18.012-.226.012a1.51 1.51 0 0 1-.236-.017.528.528 0 0 1-.19-.072.382.382 0 0 1-.14-.164.692.692 0 0 1-.053-.287v-.864h-.308v-.425h.308v-.551h.69v.549Z"/>
    <path fill="url(#u)" d="M48.977 129c.06-.16.148-.298.259-.415.111-.117.245-.206.4-.27a1.33 1.33 0 0 1 .511-.096c.187 0 .357.032.512.096.154.064.288.155.4.27.111.117.198.255.258.415.06.16.09.334.09.523 0 .188-.03.362-.09.522a1.148 1.148 0 0 1-.658.685 1.312 1.312 0 0 1-.512.097c-.186 0-.356-.032-.511-.097a1.177 1.177 0 0 1-.4-.269 1.215 1.215 0 0 1-.259-.416c-.06-.16-.09-.334-.09-.522 0-.189.03-.363.09-.523Zm.725.853a.558.558 0 0 0 .123.213.427.427 0 0 0 .158.108.5.5 0 0 0 .168.032.5.5 0 0 0 .168-.032.427.427 0 0 0 .158-.108.583.583 0 0 0 .123-.213.997.997 0 0 0 .047-.33c0-.13-.015-.24-.047-.331a.582.582 0 0 0-.123-.213.413.413 0 0 0-.158-.107.476.476 0 0 0-.168-.032.476.476 0 0 0-.168.032.412.412 0 0 0-.158.107.592.592 0 0 0-.123.213 1.005 1.005 0 0 0-.047.331c0 .13.015.239.047.33Z"/>
    <path fill="url(#v)" d="M52.896 129.645c-.008-.077-.032-.134-.078-.17a.244.244 0 0 0-.173-.058.29.29 0 0 0-.155.036.225.225 0 0 0-.092.102.49.49 0 0 0-.044.141 1.186 1.186 0 0 0 0 .342.412.412 0 0 0 .044.139.247.247 0 0 0 .094.1.294.294 0 0 0 .155.036.25.25 0 0 0 .183-.077.297.297 0 0 0 .085-.189h.658a.82.82 0 0 1-.307.563.995.995 0 0 1-.634.203 1.034 1.034 0 0 1-.693-.26.882.882 0 0 1-.211-.302.953.953 0 0 1-.076-.385.97.97 0 0 1 .076-.387.86.86 0 0 1 .21-.304.948.948 0 0 1 .313-.194c.118-.045.247-.068.38-.068.252 0 .463.062.633.187.172.124.266.306.287.545h-.655Z"/>
    <path fill="url(#w)" d="M54.434 130.018c.01.107.043.192.104.257.06.064.143.096.247.096a.44.44 0 0 0 .17-.034.26.26 0 0 0 .119-.096h.645a.777.777 0 0 1-.353.426c-.168.096-.36.145-.577.145a1.25 1.25 0 0 1-.402-.062.928.928 0 0 1-.325-.185.829.829 0 0 1-.213-.298.993.993 0 0 1-.076-.398c0-.13.023-.253.068-.37a.891.891 0 0 1 .5-.513 1.01 1.01 0 0 1 .387-.074c.351 0 .61.094.778.283.168.189.25.462.25.823h-1.322Zm.662-.359a.293.293 0 0 0-.302-.302c-.203 0-.322.102-.354.304h.656v-.002Z"/>
    <path fill="url(#x)" d="M57.81 130.362c0 .083.005.159.015.227a.444.444 0 0 0 .067.177h-.703a.486.486 0 0 1-.025-.172h-.008a.573.573 0 0 1-.25.168 1.059 1.059 0 0 1-.33.049.73.73 0 0 1-.46-.137c-.118-.093-.178-.229-.178-.41 0-.113.024-.207.075-.281a.497.497 0 0 1 .194-.17 1 1 0 0 1 .251-.088c.087-.019.19-.034.312-.05a2.94 2.94 0 0 0 .188-.028.365.365 0 0 0 .138-.051c.034-.022.051-.058.051-.109a.137.137 0 0 0-.066-.125.293.293 0 0 0-.16-.041c-.097 0-.163.019-.199.054a.184.184 0 0 0-.058.131h-.642a.559.559 0 0 1 .09-.302.524.524 0 0 1 .214-.183 1.01 1.01 0 0 1 .289-.085 2.37 2.37 0 0 1 .338-.023c.203 0 .366.019.485.059a.527.527 0 0 1 .256.152.447.447 0 0 1 .098.208c.014.074.02.172.02.289v.741h-.002Zm-.663-.407a1.24 1.24 0 0 1-.272.087.5.5 0 0 0-.179.067c-.036.027-.055.07-.055.127 0 .043.021.083.063.117a.234.234 0 0 0 .152.051c.082 0 .15-.025.202-.074a.29.29 0 0 0 .087-.209v-.166h.002Z"/>
    <path fill="url(#y)" d="M58.18 128.958h.666v.231h.007c.13-.183.327-.276.59-.276.173 0 .32.053.44.159.12.105.18.256.18.454v1.24h-.69v-.947a.638.638 0 0 0-.044-.268c-.028-.059-.09-.087-.183-.087a.358.358 0 0 0-.096.015.293.293 0 0 0-.09.053.254.254 0 0 0-.065.106.511.511 0 0 0-.025.173v.955h-.69v-1.808Z"/>
    <path fill="url(#z)" d="M59.959 117.698c0-5.863-4.769-10.632-10.632-10.632-5.863 0-10.632 4.769-10.632 10.632 0 3.578 1.78 6.746 4.497 8.675h-.789v.241h3.561l.01-.001a.572.572 0 0 0 .526-.621v-2.75h-.241v2.761a.332.332 0 0 1-.312.368H43.62c-2.817-1.861-4.681-5.054-4.681-8.675 0-5.729 4.66-10.388 10.388-10.388 5.73 0 10.388 4.661 10.388 10.388 0 3.612-1.853 6.797-4.659 8.66-.575-.004-1.23-.006-1.84-.006-.88 0-1.43.066-2.013.136a19.71 19.71 0 0 1-1.774.151c-1.432.057-2.227-.277-2.39-.502-.043-.058-.031-.092-.026-.104.117-.319.559-.534 1.42-.685l-.021-.241c-.685.119-1.133.281-1.391.509v-7.52c0-.5-.002-1.432.436-2.319.085-.172.16-.317.228-.445.308-.583.46-.876.46-1.883v-2.812c0-.342.169-.674.363-.753.043.224.1.445.187.641.058.133.162.161.29.17.178.015.355.006.53-.02.146-.021.38-.027.435-.208.032-.104.041-.221.047-.336l.011.008c.002.002.227.134.3.741.072.587.255 3.08.31 3.837-.49-.242-1.765-.753-2.504.02-.09.093-.359.376-.223.619.243.44 1.662.155 1.823.121l.028-.006c.355-.075.946-.2 1.395.11.29.2.48.566.564 1.083v7.556c0 .489-.034.847-.083 1.109v-8.184c0-.205-.134-.717-.381-.736-.187-.013-.329.185-.504 1.244-.113.691-.027 6.746-.006 8.09a4.381 4.381 0 0 0-.56-.344c.045.132.073.215.073.219l.023.068-.043.021c.33.189.547.373.55.379l.206.178-.004-.272c-.001-.076-.122-7.562-.001-8.301.119-.717.211-.946.254-1.019a.994.994 0 0 1 .148.47v9.216l.219-.293c.233-.313.35-.936.35-1.847v-7.563l-.001-.019c-.093-.591-.318-1.014-.667-1.255-.534-.368-1.215-.225-1.58-.147l-.03.005c-.66.14-1.467.168-1.562-.002-.022-.039.014-.152.187-.334.778-.813 2.39.117 2.404.127l.198.117-.017-.23c-.01-.138-.241-3.371-.326-4.067-.055-.438-.183-.677-.287-.802.125-.111.274-.338.287-.792a.95.95 0 0 0-.119-.502l-.04-.076c-.02-.04-.034-.077-.073-.104a.373.373 0 0 0-.11-.041c-.022-.006-.045-.004-.068-.006a.11.11 0 0 0-.062-.004.711.711 0 0 0-.123.017l-.062.014c-.168.041-.338.037-.51.039a5.302 5.302 0 0 1-.52-.011c-.09-.008-.177-.032-.266-.055a2.166 2.166 0 0 0-.017-.179.64.64 0 0 0-.038-.147c-.015-.038-.07-.098-.055-.14.038-.098.304-.115.378-.123.264-.024.528.021.783.095.083.022.307.058.345.16.042.111-.177.108-.236.108-.162.003-.324 0-.486-.01-.104-.005-.453.023-.461-.143-.006-.149-.223-.149-.215 0 .015.402.506.368.774.379.175.008.36.021.534-.006.115-.017.235-.066.29-.183.144-.305-.241-.458-.441-.517-.327-.096-.666-.153-1.004-.1-.144.023-.308.059-.412.176-.103.113-.08.224-.015.349a.559.559 0 0 1 .057.249h-.002a.117.117 0 0 0-.074.026.168.168 0 0 0-.035.057 1.27 1.27 0 0 0-.036.072c-.023.047-.046.094-.063.143a1.07 1.07 0 0 0-.058.442c.002.015.002.028.006.043.026.178.164.249.334.272l.01.085c-.339.098-.561.564-.561.994v2.814c0 .949-.136 1.206-.432 1.772-.07.13-.146.277-.233.451-.46.938-.46 1.906-.46 2.425v7.878a.347.347 0 0 0 .066.306c.22.304 1.017.607 2.27.607.104 0 .213-.001.325-.007.775-.03 1.292-.093 1.792-.153a14.62 14.62 0 0 1 1.984-.134c.479 0 .987.002 1.462.004l.447.002c.887.005 1.572.013 1.584.013l.002-.242c-.01 0-.523-.005-1.235-.009a10.588 10.588 0 0 0 4.49-8.656Zm-10.149-8.094c-.23.034-.662.025-.874.019a11.926 11.926 0 0 0-.249-.003l-.01-.055c.099-.004.197-.015.288-.025.3-.034.654-.011.849.032-.004.012-.004.023-.004.032Zm-.102.799c-.119.058-.294.058-.422.064-.06.004-.123.004-.184.002-.052-.002-.16.011-.205-.032-.03-.031-.046-.134-.059-.176a5.955 5.955 0 0 1-.068-.243c-.013-.051-.02-.104-.034-.155.057 0 .123.002.19.004.388.009.67.007.869-.017l-.011.213c-.004.094.011.296-.076.34Zm.332-.491-.03.008v-.017c.002-.034.004-.068.004-.102.087-.034.138-.08.156-.146a.193.193 0 0 0-.037-.184.298.298 0 0 0-.097-.074c.02-.211.055-.419.136-.615a.71.71 0 0 1 .14.466c-.015.577-.264.662-.272.664Zm-1.206-1.085c.16.015.325.013.487.013.16 0 .327.004.487-.017a.998.998 0 0 0 .132-.03 2.36 2.36 0 0 0-.107.534c-.317-.068-.76-.045-.895-.03a3.683 3.683 0 0 1-.292.023c-.008-.057-.017-.114-.023-.172-.011-.119-.011-.238-.011-.359.072.021.147.03.222.038Zm-.473.421a.852.852 0 0 1 .03-.317c.006.124.017.249.03.373-.034-.013-.056-.03-.06-.056Z"/>
    <path fill="url(#A)" d="M50.244 125.617a364.833 364.833 0 0 1-.723-2.142 14.77 14.77 0 0 1-.202-.802.55.55 0 0 0 .072-.045c.06-.045.108-.124.059-.196-.046-.066-.136-.104-.216-.128-.026-.117-.053-.229-.073-.327l-.072-.315a17.298 17.298 0 0 1-.238-1.351c-.024-.264-.094-.419-.096-.425l-.013-.028-.028-.013c-.023-.01-.565-.253-1.042-.115a1.64 1.64 0 0 0-.383.154l-.01.008a.285.285 0 0 0-.045.036c-.011.009-.025.019-.036.03l-.028.026c-.017.014-.036.027-.047.046a.087.087 0 0 0-.017.056c.002.025.011.046.02.068l.01.023.024.058.033.078.04.096c.014.038.031.075.046.113.02.044.036.087.055.132.02.049.042.098.062.149l.07.165a14.77 14.77 0 0 1 .515 1.473c-.052.04-.101.083-.147.132-.045.049-.113.123-.07.193.042.068.166.07.236.077.032.004.064.002.098.004.036.134.068.259.093.366.083.355.171 1.259.226 1.897l.021.241.034.436.008.028c.15.331.628.387.649.391l.117.013-.03-.113a.84.84 0 0 1-.02-.145c.342.068.939-.208 1.01-.242l.023-.011.043-.021-.028-.07Zm-.88-3.089a.232.232 0 0 1-.07.057c-.012-.061-.028-.121-.04-.18.07.027.148.072.11.123Zm-2.047-2.453s.023-.081.396-.189c.36-.105.787.047.9.095.02.051.057.171.072.345.025.258.172 1.074.242 1.372l.072.313c.041.181.092.408.145.632l-.017.006a.716.716 0 0 1-.11.024l-.007-.005a.134.134 0 0 0-.11-.015.338.338 0 0 0-.062.011.109.109 0 0 0-.028.011.124.124 0 0 0-.029.027l-.088.007a1.21 1.21 0 0 1-.017-.128c-.017-.219-.208-.917-.3-1.255l-.04-.143a22.775 22.775 0 0 0-.087-.344c-.035-.136-.07-.273-.102-.409-.003-.013-.007-.032-.017-.051a.194.194 0 0 0-.047-.061.48.48 0 0 0-.358-.119.61.61 0 0 1-.302-.047c-.096-.045-.106-.077-.106-.077Zm.728 2.685a.743.743 0 0 1-.147-.019c-.015-.003-.058-.005-.064-.026-.004-.013.025-.04.032-.049a.98.98 0 0 1 .138-.132c.023.077.045.153.064.228-.007-.004-.015-.002-.023-.002Zm-.416-1.813c-.12-.278-.21-.495-.272-.646a.765.765 0 0 0 .373.063c.1-.002.174.009.244.075.01.01.011.011.011.013l.006.017c.032.14.068.278.104.415.03.114.058.227.084.34l.04.149c.083.306.28 1.021.294 1.223.002.032.01.076.018.13-.1.01-.199.023-.299.029-.16-.589-.405-1.348-.603-1.808Zm1.432 4.114c0 .069-.006.152-.01.243a1.018 1.018 0 0 0-.004.075c-.013.233-.026.472-.013.642-.124-.032-.326-.106-.407-.264l-.034-.434-.021-.242c-.055-.639-.143-1.54-.228-1.906-.023-.1-.053-.213-.085-.334.013-.002.026-.002.04-.002l.25-.022c.066.355.214.966.285 1.264l.036.151c.012.045.03.11.055.185.058.187.138.442.136.638v.006Zm.983.549c-.272.117-.677.243-.855.181.002-.128.011-.272.017-.4l.004-.066c.005-.091.01-.174.011-.246v-.026c.002-.223-.083-.491-.143-.687a2.118 2.118 0 0 1-.051-.173l-.036-.151c-.064-.268-.213-.887-.281-1.242l.094-.01.004.017c.002.016.015.025.028.029-.023.205-.053.439.083.611.036.044.097-.019.063-.062-.097-.121-.08-.298-.072-.442a.778.778 0 0 1 .01-.081c.13.128.23.285.288.461.017.052.102.03.085-.023a1.26 1.26 0 0 0-.312-.5.066.066 0 0 0 .04-.011.056.056 0 0 0 .023-.029.847.847 0 0 0 .122-.03c.08.342.159.662.2.793a255.458 255.458 0 0 0 .702 2.075l-.024.012Z"/>
  </g>
  <path stroke="#D10606" stroke-width="1.547" d="M199.527 102.115h34.028v33.255h-34.028z"/>
  <circle cx="198.757" cy="95.154" r="12.374" fill="#0A75C2"/>
  <path fill="#fff" d="m197.58 94.961-1.39-.332.501-4.46h4.943v1.409h-3.511l-.217 1.951a2.9 2.9 0 0 1 .531-.217c.238-.081.504-.121.798-.121.427 0 .806.066 1.136.2.33.132.61.325.84.58.233.253.411.563.531.93.121.366.182.781.182 1.244 0 .39-.061.764-.182 1.118-.12.35-.304.665-.549.942-.246.274-.554.49-.925.647-.37.157-.809.236-1.317.236a3.61 3.61 0 0 1-1.1-.17 3.022 3.022 0 0 1-.948-.501 2.581 2.581 0 0 1-.671-.804 2.435 2.435 0 0 1-.26-1.087h1.728c.025.25.089.465.194.646.108.178.251.315.429.411.177.097.384.145.622.145.222 0 .411-.042.568-.127.157-.084.284-.201.381-.35a1.66 1.66 0 0 0 .211-.532c.048-.205.073-.427.073-.664a2.32 2.32 0 0 0-.085-.647 1.374 1.374 0 0 0-.26-.501 1.153 1.153 0 0 0-.447-.327 1.559 1.559 0 0 0-.622-.114c-.322 0-.572.05-.749.15a1.78 1.78 0 0 0-.435.345Z"/>
  <defs>
    <linearGradient id="a" x1="143.801" x2="143.801" y1=".802" y2="581.6" gradientUnits="userSpaceOnUse">
      <stop stop-color="#AAA"/>
      <stop offset="1" stop-color="#898989"/>
    </linearGradient>
    <linearGradient id="d" x1="35.001" x2="35.001" y1="115.893" y2="118.192" gradientUnits="userSpaceOnUse">
      <stop offset=".006" stop-color="#15B5EA"/>
      <stop offset=".12" stop-color="#16AFE6"/>
      <stop offset=".313" stop-color="#17A1DC"/>
      <stop offset=".561" stop-color="#1F88C9"/>
      <stop offset=".851" stop-color="#2F64AE"/>
      <stop offset="1" stop-color="#35509E"/>
    </linearGradient>
    <linearGradient id="e" x1="37.229" x2="37.229" y1="115.893" y2="118.192" gradientUnits="userSpaceOnUse">
      <stop offset=".006" stop-color="#15B5EA"/>
      <stop offset=".12" stop-color="#16AFE6"/>
      <stop offset=".313" stop-color="#17A1DC"/>
      <stop offset=".561" stop-color="#1F88C9"/>
      <stop offset=".851" stop-color="#2F64AE"/>
      <stop offset="1" stop-color="#35509E"/>
    </linearGradient>
    <linearGradient id="f" x1="38.933" x2="38.933" y1="115.892" y2="118.191" gradientUnits="userSpaceOnUse">
      <stop offset=".006" stop-color="#15B5EA"/>
      <stop offset=".12" stop-color="#16AFE6"/>
      <stop offset=".313" stop-color="#17A1DC"/>
      <stop offset=".561" stop-color="#1F88C9"/>
      <stop offset=".851" stop-color="#2F64AE"/>
      <stop offset="1" stop-color="#35509E"/>
    </linearGradient>
    <linearGradient id="g" x1="40.792" x2="40.792" y1="115.893" y2="118.192" gradientUnits="userSpaceOnUse">
      <stop offset=".006" stop-color="#15B5EA"/>
      <stop offset=".12" stop-color="#16AFE6"/>
      <stop offset=".313" stop-color="#17A1DC"/>
      <stop offset=".561" stop-color="#1F88C9"/>
      <stop offset=".851" stop-color="#2F64AE"/>
      <stop offset="1" stop-color="#35509E"/>
    </linearGradient>
    <linearGradient id="h" x1="44.11" x2="44.11" y1="115.893" y2="118.192" gradientUnits="userSpaceOnUse">
      <stop offset=".006" stop-color="#15B5EA"/>
      <stop offset=".12" stop-color="#16AFE6"/>
      <stop offset=".313" stop-color="#17A1DC"/>
      <stop offset=".561" stop-color="#1F88C9"/>
      <stop offset=".851" stop-color="#2F64AE"/>
      <stop offset="1" stop-color="#35509E"/>
    </linearGradient>
    <linearGradient id="i" x1="46.606" x2="46.606" y1="115.892" y2="118.191" gradientUnits="userSpaceOnUse">
      <stop offset=".006" stop-color="#15B5EA"/>
      <stop offset=".12" stop-color="#16AFE6"/>
      <stop offset=".313" stop-color="#17A1DC"/>
      <stop offset=".561" stop-color="#1F88C9"/>
      <stop offset=".851" stop-color="#2F64AE"/>
      <stop offset="1" stop-color="#35509E"/>
    </linearGradient>
    <linearGradient id="j" x1="48.797" x2="48.797" y1="115.893" y2="118.192" gradientUnits="userSpaceOnUse">
      <stop offset=".006" stop-color="#15B5EA"/>
      <stop offset=".12" stop-color="#16AFE6"/>
      <stop offset=".313" stop-color="#17A1DC"/>
      <stop offset=".561" stop-color="#1F88C9"/>
      <stop offset=".851" stop-color="#2F64AE"/>
      <stop offset="1" stop-color="#35509E"/>
    </linearGradient>
    <linearGradient id="k" x1="50.982" x2="50.982" y1="115.892" y2="118.191" gradientUnits="userSpaceOnUse">
      <stop offset=".006" stop-color="#15B5EA"/>
      <stop offset=".12" stop-color="#16AFE6"/>
      <stop offset=".313" stop-color="#17A1DC"/>
      <stop offset=".561" stop-color="#1F88C9"/>
      <stop offset=".851" stop-color="#2F64AE"/>
      <stop offset="1" stop-color="#35509E"/>
    </linearGradient>
    <linearGradient id="l" x1="53.218" x2="53.218" y1="115.892" y2="118.191" gradientUnits="userSpaceOnUse">
      <stop offset=".006" stop-color="#15B5EA"/>
      <stop offset=".12" stop-color="#16AFE6"/>
      <stop offset=".313" stop-color="#17A1DC"/>
      <stop offset=".561" stop-color="#1F88C9"/>
      <stop offset=".851" stop-color="#2F64AE"/>
      <stop offset="1" stop-color="#35509E"/>
    </linearGradient>
    <linearGradient id="m" x1="35.087" x2="49.342" y1="97.1" y2="112.959" gradientUnits="userSpaceOnUse">
      <stop offset=".006" stop-color="#15B5EA"/>
      <stop offset=".12" stop-color="#16AFE6"/>
      <stop offset=".313" stop-color="#17A1DC"/>
      <stop offset=".561" stop-color="#1F88C9"/>
      <stop offset=".851" stop-color="#2F64AE"/>
      <stop offset="1" stop-color="#35509E"/>
    </linearGradient>
    <linearGradient id="n" x1="40.859" x2="44.266" y1="108.28" y2="113.942" gradientUnits="userSpaceOnUse">
      <stop offset=".006" stop-color="#15B2EA"/>
      <stop offset=".12" stop-color="#16AFE6"/>
      <stop offset=".313" stop-color="#17A1DC"/>
      <stop offset=".561" stop-color="#1F88C9"/>
      <stop offset=".851" stop-color="#2F64AE"/>
      <stop offset="1" stop-color="#35509E"/>
    </linearGradient>
    <linearGradient id="q" x1="41.178" x2="41.178" y1="127.583" y2="129.846" gradientUnits="userSpaceOnUse">
      <stop offset=".006" stop-color="#15B5EA"/>
      <stop offset=".12" stop-color="#16AFE6"/>
      <stop offset=".313" stop-color="#17A1DC"/>
      <stop offset=".561" stop-color="#1F88C9"/>
      <stop offset=".851" stop-color="#2F64AE"/>
      <stop offset="1" stop-color="#35509E"/>
    </linearGradient>
    <linearGradient id="r" x1="43.372" x2="43.372" y1="127.582" y2="129.845" gradientUnits="userSpaceOnUse">
      <stop offset=".006" stop-color="#15B5EA"/>
      <stop offset=".12" stop-color="#16AFE6"/>
      <stop offset=".313" stop-color="#17A1DC"/>
      <stop offset=".561" stop-color="#1F88C9"/>
      <stop offset=".851" stop-color="#2F64AE"/>
      <stop offset="1" stop-color="#35509E"/>
    </linearGradient>
    <linearGradient id="s" x1="45.051" x2="45.051" y1="127.583" y2="129.845" gradientUnits="userSpaceOnUse">
      <stop offset=".006" stop-color="#15B5EA"/>
      <stop offset=".12" stop-color="#16AFE6"/>
      <stop offset=".313" stop-color="#17A1DC"/>
      <stop offset=".561" stop-color="#1F88C9"/>
      <stop offset=".851" stop-color="#2F64AE"/>
      <stop offset="1" stop-color="#35509E"/>
    </linearGradient>
    <linearGradient id="t" x1="46.883" x2="46.883" y1="127.583" y2="129.845" gradientUnits="userSpaceOnUse">
      <stop offset=".006" stop-color="#15B5EA"/>
      <stop offset=".12" stop-color="#16AFE6"/>
      <stop offset=".313" stop-color="#17A1DC"/>
      <stop offset=".561" stop-color="#1F88C9"/>
      <stop offset=".851" stop-color="#2F64AE"/>
      <stop offset="1" stop-color="#35509E"/>
    </linearGradient>
    <linearGradient id="u" x1="50.149" x2="50.149" y1="127.583" y2="129.846" gradientUnits="userSpaceOnUse">
      <stop offset=".006" stop-color="#15B5EA"/>
      <stop offset=".12" stop-color="#16AFE6"/>
      <stop offset=".313" stop-color="#17A1DC"/>
      <stop offset=".561" stop-color="#1F88C9"/>
      <stop offset=".851" stop-color="#2F64AE"/>
      <stop offset="1" stop-color="#35509E"/>
    </linearGradient>
    <linearGradient id="v" x1="52.611" x2="52.611" y1="127.583" y2="129.845" gradientUnits="userSpaceOnUse">
      <stop offset=".006" stop-color="#15B5EA"/>
      <stop offset=".12" stop-color="#16AFE6"/>
      <stop offset=".313" stop-color="#17A1DC"/>
      <stop offset=".561" stop-color="#1F88C9"/>
      <stop offset=".851" stop-color="#2F64AE"/>
      <stop offset="1" stop-color="#35509E"/>
    </linearGradient>
    <linearGradient id="w" x1="54.766" x2="54.766" y1="127.584" y2="129.846" gradientUnits="userSpaceOnUse">
      <stop offset=".006" stop-color="#15B5EA"/>
      <stop offset=".12" stop-color="#16AFE6"/>
      <stop offset=".313" stop-color="#17A1DC"/>
      <stop offset=".561" stop-color="#1F88C9"/>
      <stop offset=".851" stop-color="#2F64AE"/>
      <stop offset="1" stop-color="#35509E"/>
    </linearGradient>
    <linearGradient id="x" x1="56.916" x2="56.916" y1="127.583" y2="129.845" gradientUnits="userSpaceOnUse">
      <stop offset=".006" stop-color="#15B5EA"/>
      <stop offset=".12" stop-color="#16AFE6"/>
      <stop offset=".313" stop-color="#17A1DC"/>
      <stop offset=".561" stop-color="#1F88C9"/>
      <stop offset=".851" stop-color="#2F64AE"/>
      <stop offset="1" stop-color="#35509E"/>
    </linearGradient>
    <linearGradient id="y" x1="59.121" x2="59.121" y1="127.583" y2="129.845" gradientUnits="userSpaceOnUse">
      <stop offset=".006" stop-color="#15B5EA"/>
      <stop offset=".12" stop-color="#16AFE6"/>
      <stop offset=".313" stop-color="#17A1DC"/>
      <stop offset=".561" stop-color="#1F88C9"/>
      <stop offset=".851" stop-color="#2F64AE"/>
      <stop offset="1" stop-color="#35509E"/>
    </linearGradient>
    <linearGradient id="z" x1="41.267" x2="55.295" y1="109.086" y2="124.706" gradientUnits="userSpaceOnUse">
      <stop offset=".006" stop-color="#15B5EA"/>
      <stop offset=".12" stop-color="#16AFE6"/>
      <stop offset=".313" stop-color="#17A1DC"/>
      <stop offset=".561" stop-color="#1F88C9"/>
      <stop offset=".851" stop-color="#2F64AE"/>
      <stop offset="1" stop-color="#35509E"/>
    </linearGradient>
    <linearGradient id="A" x1="46.951" x2="50.303" y1="120.088" y2="125.663" gradientUnits="userSpaceOnUse">
      <stop offset=".006" stop-color="#15B2EA"/>
      <stop offset=".12" stop-color="#16AFE6"/>
      <stop offset=".313" stop-color="#17A1DC"/>
      <stop offset=".561" stop-color="#1F88C9"/>
      <stop offset=".851" stop-color="#2F64AE"/>
      <stop offset="1" stop-color="#35509E"/>
    </linearGradient>
    <pattern id="c" width="1" height="1" patternContentUnits="objectBoundingBox">
      <use xlink:href="#B" transform="scale(.00089 .00043)"/>
    </pattern>
    <pattern id="p" width="1" height="1" patternContentUnits="objectBoundingBox">
      <use xlink:href="#C" transform="scale(.00089 .00043)"/>
    </pattern>
  </defs>
</svg>
