<svg xmlns="http://www.w3.org/2000/svg" xmlns:xlink="http://www.w3.org/1999/xlink" width="288" height="581" fill="none" viewBox="0 0 288 581">
  <path stroke="#000" stroke-width=".773" d="M101.152 189.367h4.145a1.816 1.816 0 1 1 0 3.631h-4.145a1.815 1.815 0 1 1 0-3.631Z" opacity=".35"/>
  <path fill="#000" d="M107.891 190.405v.566c0 .47.516.681.516.212a.845.845 0 0 0-.516-.778" opacity=".4"/>
  <path fill="#000" d="M99.727 191.182c0-.787.638-1.425 1.425-1.425h4.145a1.425 1.425 0 0 1 0 2.85h-4.145a1.425 1.425 0 0 1-1.425-1.425Z"/>
  <path fill="#000" fill-rule="evenodd" d="M94.023 189.865c.86 0 1.69.331 2.313.924a.12.12 0 0 0 .169-.001l.449-.454a.124.124 0 0 0-.001-.177 4.235 4.235 0 0 0-5.86 0 .124.124 0 0 0-.002.177l.45.454a.12.12 0 0 0 .168.001 3.355 3.355 0 0 1 2.314-.924Zm-.004 1.475c.473 0 .93.176 1.28.493a.12.12 0 0 0 .168-.002l.45-.453a.125.125 0 0 0-.003-.179 2.783 2.783 0 0 0-3.79 0 .126.126 0 0 0-.002.179l.45.453a.12.12 0 0 0 .168.002c.35-.317.806-.493 1.279-.493Zm.9.992a.123.123 0 0 1-.037.09l-.776.783a.121.121 0 0 1-.172 0l-.776-.783a.123.123 0 0 1 .003-.178 1.33 1.33 0 0 1 1.718 0 .12.12 0 0 1 .04.088Zm-6.209-3.221h-.388a.389.389 0 0 0-.388.389v3.368c0 .215.174.389.388.389h.389a.389.389 0 0 0 .389-.389V189.5a.389.389 0 0 0-.39-.389Zm-2.192.908h.388c.215 0 .389.174.389.388v2.462a.388.388 0 0 1-.389.388h-.389a.388.388 0 0 1-.388-.388v-2.462c0-.214.174-.388.388-.388Zm-1.432.906h-.389a.388.388 0 0 0-.388.388v1.555c0 .215.174.389.388.389h.389a.389.389 0 0 0 .389-.389v-1.555a.388.388 0 0 0-.39-.388Zm-1.813.777h-.388a.389.389 0 0 0-.389.389v.777c0 .215.174.389.389.389h.388a.389.389 0 0 0 .389-.389v-.777a.389.389 0 0 0-.389-.389Z" clip-rule="evenodd"/>
  <path fill="#727272" d="M0 141.256a2.045 2.045 0 0 1 4.09 0v10.909a2.045 2.045 0 0 1-4.09 0v-10.909Zm0 89.994a2.045 2.045 0 0 1 4.09 0v44.998a2.045 2.045 0 0 1-4.09 0V231.25Zm287.031-37.497a2.045 2.045 0 1 0-4.09 0v76.359a2.045 2.045 0 1 0 4.09 0v-76.359ZM0 172.619a2.046 2.046 0 1 1 4.09 0v44.997a2.045 2.045 0 0 1-4.09 0v-44.997Z"/>
  <rect width="283.125" height="580.798" x="2.238" y=".203" fill="url(#a)" rx="29.388"/>
  <rect width="275.291" height="574.083" x="5.598" y="3.561" fill="#232020" rx="29.388"/>
  <rect width="254.687" height="553.842" x="16.172" y="14.065" fill="#FEFEFE" rx="21.654"/>
  <rect width="254.687" height="553.842" x="16.172" y="14.065" fill="#AFC0CF" rx="21.654"/>
  <mask id="o" width="255" height="555" x="16" y="13" maskUnits="userSpaceOnUse" style="mask-type:alpha">
    <mask id="b" width="255" height="555" x="16" y="13" maskUnits="userSpaceOnUse" style="mask-type:alpha">
      <rect width="254.437" height="553.73" x="16.094" y="13.996" fill="#AFC0CF" rx="21.654"/>
    </mask>
    <g mask="url(#b)">
      <path fill="url(#c)" d="M16.094 41.063h254.437v526.662H16.094z"/>
      <path fill="url(#d)" d="M33.53 116h1.107l.36 1.488h.008l.36-1.488h1.107v2.529h-.736v-1.622h-.007l-.44 1.622h-.58l-.438-1.622h-.008v1.622h-.736V116h.002Z"/>
      <path fill="url(#e)" d="M37.58 116.491h-.701v-.493h.701v.493Zm-.701.199h.701v1.839h-.701v-1.839Z"/>
      <path fill="url(#f)" d="M37.977 116.69h.676v.233h.008c.132-.185.331-.279.597-.279.176 0 .326.053.449.161.12.107.182.26.182.462v1.259h-.702v-.962a.645.645 0 0 0-.044-.272c-.028-.06-.092-.089-.185-.089a.28.28 0 0 0-.188.069.261.261 0 0 0-.067.108.518.518 0 0 0-.025.176v.97h-.701v-1.836Z"/>
      <path fill="url(#g)" d="M41.111 116.69h.376v.431h-.376v.641c0 .09.016.153.044.189.029.037.086.056.173.056.053 0 .107-.004.159-.011v.531c-.05 0-.123.003-.219.011a3.411 3.411 0 0 1-.23.012c-.09 0-.168-.006-.24-.018a.522.522 0 0 1-.193-.072.393.393 0 0 1-.141-.167.703.703 0 0 1-.054-.292v-.878h-.312v-.431h.312v-.56h.701v.558Z"/>
      <path fill="url(#h)" d="M42.92 116.732a1.179 1.179 0 0 1 .669-.696 1.35 1.35 0 0 1 .519-.098c.19 0 .362.033.52.098a1.2 1.2 0 0 1 .405.274c.113.119.201.259.263.422.061.163.092.34.092.531 0 .192-.03.368-.092.531a1.24 1.24 0 0 1-.263.422 1.166 1.166 0 0 1-.406.274 1.331 1.331 0 0 1-.52.098 1.32 1.32 0 0 1-.518-.098 1.193 1.193 0 0 1-.669-.696 1.493 1.493 0 0 1-.092-.531c0-.191.03-.368.092-.531Zm.736.867a.574.574 0 0 0 .124.217c.05.051.104.088.161.109a.49.49 0 0 0 .17.032.49.49 0 0 0 .171-.032.437.437 0 0 0 .161-.109.6.6 0 0 0 .125-.217 1.01 1.01 0 0 0 .048-.336c0-.132-.016-.243-.048-.335a.59.59 0 0 0-.125-.217.426.426 0 0 0-.16-.109.492.492 0 0 0-.171-.033.492.492 0 0 0-.17.033.426.426 0 0 0-.162.109.6.6 0 0 0-.124.217 1.016 1.016 0 0 0-.048.335 1 1 0 0 0 .048.336Z"/>
      <path fill="url(#i)" d="M46.895 117.387c-.007-.078-.032-.136-.078-.172a.247.247 0 0 0-.176-.06.297.297 0 0 0-.157.037.233.233 0 0 0-.094.103.511.511 0 0 0-.044.144 1.2 1.2 0 0 0 0 .347c.007.052.02.1.044.142a.26.26 0 0 0 .095.102.302.302 0 0 0 .157.036.256.256 0 0 0 .186-.078.302.302 0 0 0 .086-.192h.67a.833.833 0 0 1-.313.571 1.005 1.005 0 0 1-.644.207c-.136 0-.266-.023-.385-.069a.903.903 0 0 1-.533-.502.97.97 0 0 1-.076-.391c0-.142.025-.272.076-.393a.87.87 0 0 1 .213-.309.972.972 0 0 1 .318-.197 1.08 1.08 0 0 1 .387-.069c.255 0 .47.063.642.189.174.127.27.311.291.554h-.665Z"/>
      <path fill="url(#j)" d="M48.46 117.766a.42.42 0 0 0 .105.261.33.33 0 0 0 .251.098.433.433 0 0 0 .172-.035.254.254 0 0 0 .121-.098h.655a.79.79 0 0 1-.358.434c-.17.098-.366.147-.586.147-.146 0-.282-.021-.408-.063a.937.937 0 0 1-.33-.188.838.838 0 0 1-.216-.303 1.009 1.009 0 0 1-.077-.404c0-.133.023-.257.069-.376a.9.9 0 0 1 .508-.522c.12-.049.25-.074.392-.074.357 0 .62.095.79.287.17.192.255.47.255.836H48.46Zm.672-.364a.299.299 0 0 0-.306-.307c-.207 0-.328.104-.36.309h.666v-.002Z"/>
      <path fill="url(#k)" d="M51.889 118.116c0 .084.006.161.015.23a.448.448 0 0 0 .07.18h-.715a.493.493 0 0 1-.025-.174h-.008a.598.598 0 0 1-.255.171c-.1.032-.21.049-.335.049a.739.739 0 0 1-.466-.14c-.12-.094-.182-.232-.182-.416 0-.115.025-.211.077-.285a.502.502 0 0 1 .197-.173c.083-.042.167-.071.255-.09.088-.019.194-.034.316-.05a3 3 0 0 0 .192-.029.373.373 0 0 0 .14-.051c.034-.023.051-.06.051-.112a.138.138 0 0 0-.067-.126.292.292 0 0 0-.163-.042c-.097 0-.164.019-.2.055a.187.187 0 0 0-.06.133h-.651a.568.568 0 0 1 .09-.307.537.537 0 0 1 .218-.186c.09-.042.188-.071.293-.086a2.3 2.3 0 0 1 .343-.023c.207 0 .372.019.492.059.121.038.207.09.26.155a.449.449 0 0 1 .1.211c.014.075.02.175.02.294v.753h-.002Zm-.673-.414a1.215 1.215 0 0 1-.276.088.508.508 0 0 0-.181.069c-.037.027-.056.071-.056.129 0 .044.021.084.063.118a.235.235 0 0 0 .155.052.29.29 0 0 0 .205-.075.292.292 0 0 0 .088-.212v-.169h.002Z"/>
      <path fill="url(#l)" d="M52.262 116.69h.676v.233h.008c.132-.185.331-.279.597-.279.177 0 .326.053.449.161.12.107.182.26.182.462v1.259h-.702v-.962a.647.647 0 0 0-.044-.272c-.028-.06-.091-.089-.185-.089a.28.28 0 0 0-.188.069.261.261 0 0 0-.067.108.52.52 0 0 0-.025.176v.97h-.701v-1.836Z"/>
      <path fill="url(#m)" d="M54.065 105.25c0-5.958-4.842-10.803-10.794-10.803-5.953 0-10.794 4.845-10.794 10.803 0 3.635 1.806 6.854 4.565 8.814h-.8v.245h3.614l.01-.002a.58.58 0 0 0 .535-.631v-2.793h-.246v2.805a.338.338 0 0 1-.316.374h-2.362c-2.86-1.891-4.753-5.135-4.753-8.814 0-5.821 4.732-10.555 10.547-10.555 5.816 0 10.546 4.736 10.546 10.555 0 3.669-1.881 6.906-4.73 8.798-.584-.003-1.25-.005-1.868-.005-.893 0-1.452.067-2.044.138-.502.061-1.023.122-1.801.153-1.454.058-2.26-.282-2.425-.51-.045-.059-.033-.094-.027-.105.118-.324.567-.543 1.44-.696-.005-.075-.013-.158-.02-.246-.696.121-1.15.286-1.413.518v-7.641c0-.508-.002-1.455.443-2.356.086-.175.163-.322.232-.453.312-.592.467-.889.467-1.913v-2.857c0-.347.17-.684.368-.765.044.228.102.452.19.652.06.134.165.163.295.172.18.016.36.006.538-.02.148-.022.385-.027.44-.212.033-.105.043-.224.049-.34l.011.007c.002.002.23.136.305.753.073.597.258 3.129.314 3.898-.498-.245-1.791-.765-2.542.021-.09.094-.364.382-.227.629.248.447 1.688.157 1.851.123l.029-.006c.36-.076.96-.203 1.416.111.295.204.488.576.573 1.101v7.677c0 .497-.035.861-.085 1.127v-8.315c0-.209-.136-.729-.387-.748-.19-.013-.333.188-.511 1.264-.115.701-.027 6.854-.006 8.219a4.655 4.655 0 0 0-.569-.349c.046.135.075.219.075.223l.023.069-.044.021c.335.192.555.38.56.385l.208.181-.004-.277c-.002-.076-.124-7.682-.002-8.434.12-.729.215-.961.259-1.035.063.084.15.316.15.477v9.364l.221-.297c.238-.318.357-.951.357-1.877v-7.685l-.002-.019c-.094-.6-.322-1.029-.676-1.275-.542-.374-1.234-.228-1.606-.149l-.029.005c-.67.142-1.49.171-1.586-.002-.023-.04.014-.155.19-.339.79-.826 2.425.119 2.44.129l.202.118-.017-.233c-.01-.14-.246-3.425-.332-4.132-.055-.445-.186-.689-.291-.815.126-.113.278-.343.291-.805a.976.976 0 0 0-.12-.51l-.04-.077c-.022-.04-.035-.079-.076-.106a.37.37 0 0 0-.11-.042c-.024-.006-.047-.004-.07-.006a.102.102 0 0 0-.063-.004.678.678 0 0 0-.124.018c-.021.004-.043.01-.064.013-.17.042-.343.039-.517.04a5.413 5.413 0 0 1-.529-.011c-.092-.008-.18-.033-.27-.056a1.969 1.969 0 0 0-.017-.182.66.66 0 0 0-.038-.15c-.016-.038-.071-.099-.056-.141.038-.1.309-.117.383-.125.268-.025.537.021.795.096.085.023.313.06.35.163.043.113-.18.11-.239.11-.164.003-.33 0-.494-.01-.105-.006-.46.023-.467-.146-.006-.151-.226-.151-.219 0 .016.408.514.374.786.385.178.008.366.022.542-.005.117-.018.24-.068.295-.186.146-.311-.245-.466-.448-.526-.332-.097-.677-.155-1.02-.101-.145.023-.312.06-.417.178-.106.115-.083.228-.016.355a.569.569 0 0 1 .058.253h-.002a.12.12 0 0 0-.075.027c-.017.015-.026.036-.036.057a1.337 1.337 0 0 0-.036.073 1.385 1.385 0 0 0-.064.146c-.015.05-.03.1-.04.151-.02.098-.029.2-.02.297.003.016.003.03.007.044.026.18.166.254.339.277l.011.086c-.345.1-.57.573-.57 1.01v2.859c0 .964-.139 1.225-.44 1.8-.07.133-.147.282-.235.459-.468.953-.468 1.936-.468 2.463v8.005a.353.353 0 0 0 .067.311c.225.309 1.033.617 2.305.617.106 0 .217-.002.33-.007a20.059 20.059 0 0 0 1.82-.156 14.855 14.855 0 0 1 2.013-.136c.487 0 1.002.002 1.485.004l.454.002c.9.006 1.596.013 1.608.013l.002-.245c-.01 0-.531-.006-1.253-.01a10.758 10.758 0 0 0 4.558-8.794ZM43.76 97.026c-.234.035-.672.025-.887.02a8.348 8.348 0 0 0-.253-.005.675.675 0 0 1-.01-.055c.1-.004.2-.016.292-.025.304-.035.665-.012.862.032-.004.012-.004.023-.004.033Zm-.104.811c-.12.06-.298.06-.429.065a1.954 1.954 0 0 1-.186.002c-.053-.002-.162.012-.208-.032-.031-.031-.046-.136-.06-.179a6.004 6.004 0 0 1-.069-.247c-.013-.052-.02-.105-.034-.157.057 0 .124.002.193.004.393.01.68.007.882-.018l-.012.217c-.004.096.012.301-.077.345Zm.338-.498-.031.007v-.017a1.79 1.79 0 0 0 .004-.103c.088-.035.14-.081.159-.148a.199.199 0 0 0-.038-.188.307.307 0 0 0-.098-.075 2.11 2.11 0 0 1 .138-.625.724.724 0 0 1 .142.474c-.016.586-.269.673-.276.675Zm-1.224-1.103c.162.015.329.014.494.014.163 0 .331.003.494-.018.04-.005.086-.017.134-.03a2.39 2.39 0 0 0-.109.542c-.322-.069-.772-.046-.908-.03a3.52 3.52 0 0 1-.297.023c-.008-.058-.017-.115-.023-.175-.012-.12-.012-.242-.012-.364.073.02.15.03.227.038Zm-.481.428a.866.866 0 0 1 .03-.322c.006.126.017.253.03.38-.034-.014-.057-.031-.06-.058Z"/>
      <path fill="url(#n)" d="M44.202 113.297a348.476 348.476 0 0 1-.734-2.176c-.042-.13-.122-.464-.205-.815a.473.473 0 0 0 .073-.046c.061-.046.11-.126.06-.199-.047-.067-.139-.106-.219-.13-.027-.119-.054-.232-.075-.332l-.072-.32a17.657 17.657 0 0 1-.242-1.373c-.025-.269-.096-.426-.098-.432l-.013-.028-.029-.014c-.023-.009-.573-.257-1.057-.117a1.661 1.661 0 0 0-.399.165.29.29 0 0 0-.046.037c-.011.009-.025.019-.036.03l-.029.027c-.017.014-.036.027-.048.046a.09.09 0 0 0-.017.058.212.212 0 0 0 .021.069l.01.023.025.059.032.079.04.098c.016.038.033.076.048.115.02.044.037.088.056.134l.063.151c.023.056.048.111.07.167a15.038 15.038 0 0 1 .523 1.497 1.145 1.145 0 0 0-.149.135c-.046.05-.114.124-.07.195.042.069.168.071.239.079.033.004.065.002.1.004.036.136.069.262.093.372.085.36.175 1.279.23 1.927.008.088.016.17.021.245.022.261.035.437.035.443l.008.029c.153.335.638.393.659.397l.118.013-.03-.115a.83.83 0 0 1-.02-.148c.348.069.953-.211 1.026-.245l.023-.012.044-.021-.029-.071Zm-.893-3.138a.233.233 0 0 1-.07.057l-.043-.182c.073.027.151.073.113.125Zm-2.078-2.493s.023-.082.402-.192c.366-.107.799.048.914.096.019.052.057.175.073.351.024.263.174 1.091.245 1.394.015.065.042.178.072.318.043.184.094.414.148.643l-.017.005a.634.634 0 0 1-.111.025c-.002-.002-.004-.004-.008-.005a.138.138 0 0 0-.111-.016.352.352 0 0 0-.092.023.128.128 0 0 0-.029.027l-.09.008a1.15 1.15 0 0 1-.017-.131c-.017-.222-.21-.931-.305-1.275l-.04-.145a23.448 23.448 0 0 0-.088-.349 15.768 15.768 0 0 1-.103-.416c-.004-.014-.008-.033-.018-.052a.21.21 0 0 0-.048-.062.48.48 0 0 0-.364-.12.617.617 0 0 1-.306-.048c-.098-.046-.108-.079-.108-.079Zm.739 2.729a.766.766 0 0 1-.15-.02c-.015-.003-.059-.005-.065-.026-.003-.014.025-.041.033-.05.042-.05.09-.094.14-.135.023.079.046.156.065.232-.008-.003-.015-.001-.023-.001Zm-.423-1.843a43.21 43.21 0 0 1-.276-.656c.13.063.258.067.38.063.1-.001.175.01.246.077.01.01.012.012.012.014a.058.058 0 0 1 .005.017c.033.142.07.282.106.422.03.115.06.23.086.345l.04.151c.085.311.284 1.038.3 1.243.001.032.009.076.016.132-.101.01-.2.023-.302.029-.163-.598-.412-1.369-.613-1.837Zm1.454 4.18c0 .071-.006.155-.01.247a1.045 1.045 0 0 0-.004.077 5.534 5.534 0 0 0-.013.652c-.127-.033-.331-.108-.414-.269l-.034-.441-.022-.245c-.055-.65-.145-1.565-.231-1.937-.023-.101-.054-.216-.087-.339.014-.002.027-.002.04-.002l.256-.023c.067.36.216.982.289 1.285l.036.153c.012.046.03.111.056.188.06.19.14.449.138.648v.006Zm.998.558c-.276.119-.688.247-.868.184.002-.131.011-.276.017-.407l.004-.067c.006-.092.01-.176.012-.249v-.027c.002-.226-.085-.498-.146-.698a2.07 2.07 0 0 1-.052-.176l-.036-.154c-.065-.272-.217-.901-.286-1.261l.096-.01.004.017c.002.016.015.025.029.029-.023.209-.054.447.084.621.037.045.098-.019.063-.063-.097-.123-.08-.303-.073-.448.002-.027.006-.056.01-.083.132.13.234.29.293.468.017.054.104.031.086-.023a1.277 1.277 0 0 0-.316-.508.063.063 0 0 0 .04-.012.053.053 0 0 0 .023-.028 1.03 1.03 0 0 0 .125-.031c.08.347.161.673.203.805a252.631 252.631 0 0 0 .713 2.109l-.025.012Z"/>
    </g>
    <rect width="90.284" height="3.519" x="97" y="555.994" fill="#000" rx="1.547"/>
    <path stroke="#000" stroke-width=".773" d="M242.265 28.462h10.58c.926 0 1.676.75 1.676 1.675v3.455c0 .925-.75 1.676-1.676 1.676h-10.58c-.925 0-1.675-.75-1.675-1.676v-3.454c0-.926.75-1.676 1.675-1.676Z" opacity=".35"/>
    <path fill="#000" d="M255.578 30.527v2.675a1.451 1.451 0 0 0 0-2.675" opacity=".4"/>
    <path fill="#000" d="M241.543 30.264c0-.47.381-.85.851-.85h10.329c.47 0 .851.38.851.85v3.203a.85.85 0 0 1-.851.85h-10.329a.85.85 0 0 1-.851-.85v-3.203Z"/>
    <path fill="#000" fill-rule="evenodd" d="M231.737 29.596c1.481 0 2.906.57 3.979 1.59.081.08.21.079.29-.002l.772-.78a.214.214 0 0 0-.002-.305 7.28 7.28 0 0 0-10.079 0 .213.213 0 0 0-.064.152.214.214 0 0 0 .062.153l.773.78c.08.08.209.082.29.003a5.773 5.773 0 0 1 3.979-1.59Zm-.001 2.539a3.28 3.28 0 0 1 2.202.849c.082.078.21.076.29-.004l.771-.78a.216.216 0 0 0-.003-.307 4.783 4.783 0 0 0-6.518 0 .216.216 0 0 0-.003.307l.772.78c.079.08.208.082.289.004a3.279 3.279 0 0 1 2.2-.85Zm1.548 1.708a.212.212 0 0 1-.063.154l-1.335 1.348a.209.209 0 0 1-.297 0l-1.335-1.348a.207.207 0 0 1-.062-.154.209.209 0 0 1 .069-.152 2.286 2.286 0 0 1 2.954 0 .217.217 0 0 1 .069.152Zm-10.682-5.545h-.668c-.37 0-.669.3-.669.669v5.796c0 .369.299.668.669.668h.668c.369 0 .668-.3.668-.668v-5.796a.668.668 0 0 0-.668-.67Zm-3.789 1.56h.668c.369 0 .669.3.669.669v4.235c0 .37-.3.67-.669.67h-.668a.668.668 0 0 1-.668-.67v-4.235c0-.37.299-.669.668-.669Zm-2.449 1.56h-.669c-.369 0-.668.3-.668.67v2.674c0 .37.299.669.668.669h.669c.369 0 .668-.3.668-.669v-2.675a.668.668 0 0 0-.668-.669Zm-3.121 1.338h-.668c-.37 0-.669.3-.669.669v1.337c0 .37.299.669.669.669h.668c.369 0 .668-.3.668-.669v-1.337a.668.668 0 0 0-.668-.669Z" clip-rule="evenodd"/>
    <path fill="#000" d="M95.144 13.996h95.898a2.21 2.21 0 0 0-1.6 2.052l-.013.386c0 5.914-4.795 10.71-10.71 10.71h-71.252c-5.915 0-10.71-4.796-10.71-10.71l-.012-.386a2.21 2.21 0 0 0-1.6-2.052Z"/>
  </mask>
  <g mask="url(#o)">
    <path fill="url(#p)" d="M16.242 40.418h254.437v526.968H16.242z"/>
    <rect width="90.373" height="3.52" x="97.156" y="556.172" fill="#000" rx="1.547"/>
    <path stroke="#000" stroke-width=".773" d="M242.562 28.534h10.595c.925 0 1.675.75 1.675 1.676v3.456c0 .925-.75 1.676-1.675 1.676h-10.595c-.925 0-1.675-.75-1.675-1.676V30.21c0-.926.75-1.676 1.675-1.676Z" opacity=".35"/>
    <path fill="#000" d="M255.891 30.6v2.675a1.452 1.452 0 0 0 0-2.675" opacity=".4"/>
    <path fill="#000" d="M241.836 30.335c0-.47.381-.85.851-.85h10.341c.47 0 .851.38.851.85v3.204a.85.85 0 0 1-.851.85h-10.341a.85.85 0 0 1-.851-.85v-3.204Z"/>
    <path fill="#000" fill-rule="evenodd" d="M232.023 29.668a5.78 5.78 0 0 1 3.983 1.59c.081.08.21.079.29-.002l.773-.78a.214.214 0 0 0-.001-.305 7.293 7.293 0 0 0-10.09 0 .217.217 0 0 0-.002.305l.774.78c.08.08.209.082.29.003a5.783 5.783 0 0 1 3.983-1.591Zm0 2.539c.814 0 1.6.303 2.204.85.081.077.21.075.289-.005l.773-.78a.217.217 0 0 0 .063-.154.22.22 0 0 0-.066-.153 4.79 4.79 0 0 0-6.525 0 .22.22 0 0 0-.066.153c0 .058.022.113.063.154l.773.78c.079.08.208.082.289.004a3.286 3.286 0 0 1 2.203-.849Zm1.549 1.707a.212.212 0 0 1-.063.155l-1.336 1.348a.211.211 0 0 1-.149.062.207.207 0 0 1-.148-.062l-1.337-1.348a.207.207 0 0 1-.062-.155.209.209 0 0 1 .069-.151 2.29 2.29 0 0 1 2.957 0 .209.209 0 0 1 .069.151Zm-10.687-5.544h-.669a.668.668 0 0 0-.669.668v5.797c0 .37.299.669.669.669h.669a.67.67 0 0 0 .669-.669v-5.797a.67.67 0 0 0-.669-.669Zm-3.794 1.56h.669c.369 0 .669.3.669.669v4.236c0 .37-.3.669-.669.669h-.669a.67.67 0 0 1-.669-.67V30.6c0-.37.299-.67.669-.67Zm-2.448 1.561h-.669a.67.67 0 0 0-.669.67v2.675c0 .37.299.669.669.669h.669a.67.67 0 0 0 .669-.67V32.16a.67.67 0 0 0-.669-.669Zm-3.125 1.337h-.669c-.37 0-.669.3-.669.669v1.338c0 .37.299.669.669.669h.669a.67.67 0 0 0 .669-.67v-1.337a.67.67 0 0 0-.669-.669Z" clip-rule="evenodd"/>
    <path fill="#000" d="M95.75 13.996h95.897a2.21 2.21 0 0 0-1.6 2.052l-.013.386c0 5.914-4.795 10.71-10.709 10.71h-71.252c-5.915 0-10.71-4.796-10.71-10.71l-.013-.386a2.21 2.21 0 0 0-1.6-2.052Z"/>
    <path fill="url(#q)" d="M27.322 132.399h.799l.26 1.073h.005l.26-1.073h.799v1.823h-.531v-1.169h-.006l-.316 1.169h-.419l-.316-1.169h-.006v1.169h-.53v-1.823Z"/>
    <path fill="url(#r)" d="M30.244 132.753h-.506v-.356h.506v.356Zm-.506.144h.506v1.325h-.506v-1.325Z"/>
    <path fill="url(#s)" d="M30.527 132.897h.488v.169h.006c.095-.134.24-.202.431-.202.127 0 .235.039.324.116.087.078.131.188.131.334v.908h-.506v-.694a.463.463 0 0 0-.032-.196c-.02-.043-.066-.064-.134-.064a.193.193 0 0 0-.136.05.187.187 0 0 0-.048.077.378.378 0 0 0-.018.127v.7h-.506v-1.325Z"/>
    <path fill="url(#t)" d="M32.79 132.897h.27v.311h-.27v.462c0 .065.011.111.032.137.02.026.062.04.124.04a.867.867 0 0 0 .115-.008v.383c-.036 0-.089.003-.158.008a2.219 2.219 0 0 1-.166.008c-.065 0-.121-.004-.172-.012a.362.362 0 0 1-.14-.053.274.274 0 0 1-.102-.12.505.505 0 0 1-.04-.21v-.633h-.224v-.311h.225v-.404h.506v.402Z"/>
    <path fill="url(#u)" d="M34.098 132.928a.841.841 0 0 1 .483-.502.973.973 0 0 1 .374-.071c.137 0 .261.024.374.071a.855.855 0 0 1 .483.502c.044.117.066.245.066.383s-.022.265-.066.383a.841.841 0 0 1-.483.502.972.972 0 0 1-.374.07.967.967 0 0 1-.375-.07.87.87 0 0 1-.293-.198.899.899 0 0 1-.19-.304 1.08 1.08 0 0 1-.066-.383c0-.138.022-.266.067-.383Zm.53.625a.41.41 0 0 0 .09.156.312.312 0 0 0 .116.079.357.357 0 0 0 .123.023.357.357 0 0 0 .124-.023.312.312 0 0 0 .116-.079.43.43 0 0 0 .09-.156.733.733 0 0 0 .034-.242.725.725 0 0 0-.034-.242.411.411 0 0 0-.09-.156.3.3 0 0 0-.116-.079.359.359 0 0 0-.123-.024.359.359 0 0 0-.123.024.3.3 0 0 0-.117.079.42.42 0 0 0-.09.156.733.733 0 0 0-.034.242.72.72 0 0 0 .035.242Z"/>
    <path fill="url(#v)" d="M36.962 133.401c-.006-.057-.024-.098-.057-.125a.177.177 0 0 0-.127-.043.215.215 0 0 0-.113.027.171.171 0 0 0-.068.074.37.37 0 0 0-.032.104.85.85 0 0 0 0 .25.308.308 0 0 0 .032.103c.017.03.039.055.069.073.03.018.068.026.113.026a.18.18 0 0 0 .134-.057.217.217 0 0 0 .063-.138h.482a.598.598 0 0 1-.225.412.722.722 0 0 1-.465.149.74.74 0 0 1-.507-.19.648.648 0 0 1-.155-.222.694.694 0 0 1-.055-.282.71.71 0 0 1 .055-.283.64.64 0 0 1 .154-.223.708.708 0 0 1 .229-.142.786.786 0 0 1 .28-.05c.183 0 .338.046.462.137a.52.52 0 0 1 .21.4h-.48Z"/>
    <path fill="url(#w)" d="M38.093 133.673a.302.302 0 0 0 .076.188.238.238 0 0 0 .181.071.306.306 0 0 0 .125-.025.19.19 0 0 0 .087-.07h.473a.57.57 0 0 1-.259.312.83.83 0 0 1-.423.106.937.937 0 0 1-.294-.045.685.685 0 0 1-.238-.136.6.6 0 0 1-.156-.218.728.728 0 0 1-.056-.292c0-.095.017-.185.05-.271a.649.649 0 0 1 .366-.376.733.733 0 0 1 .284-.054c.257 0 .447.069.57.208.123.138.183.338.183.602h-.969Zm.485-.262a.215.215 0 0 0-.22-.221c-.15 0-.237.074-.26.222h.48v-.001Z"/>
    <path fill="url(#x)" d="M40.567 133.926c0 .061.004.116.01.166.01.05.026.093.05.13h-.515a.36.36 0 0 1-.018-.126h-.006a.426.426 0 0 1-.184.123.76.76 0 0 1-.241.036.532.532 0 0 1-.336-.101c-.087-.068-.132-.167-.132-.3a.35.35 0 0 1 .056-.206.362.362 0 0 1 .142-.124.732.732 0 0 1 .184-.065c.064-.014.14-.025.228-.036.064-.009.11-.015.138-.021a.281.281 0 0 0 .101-.037c.025-.017.038-.043.038-.08a.1.1 0 0 0-.049-.092.219.219 0 0 0-.117-.03c-.07 0-.12.014-.146.04a.133.133 0 0 0-.042.095h-.47a.412.412 0 0 1 .064-.221.388.388 0 0 1 .158-.134.763.763 0 0 1 .212-.062c.076-.011.159-.017.247-.017.15 0 .268.014.355.043.088.028.15.065.188.112a.323.323 0 0 1 .072.152c.01.054.014.126.014.212v.543h-.001Zm-.486-.299a.865.865 0 0 1-.199.064.361.361 0 0 0-.13.05c-.027.019-.041.051-.041.092 0 .032.015.061.046.086a.17.17 0 0 0 .112.037.215.215 0 0 0 .148-.053.215.215 0 0 0 .063-.154v-.122h.002Z"/>
    <path fill="url(#y)" d="M40.836 132.897h.488v.169h.006c.095-.134.239-.202.43-.202.128 0 .236.039.324.116a.424.424 0 0 1 .132.334v.908h-.506v-.694a.463.463 0 0 0-.032-.196c-.02-.043-.066-.064-.134-.064a.193.193 0 0 0-.136.05.186.186 0 0 0-.048.077.378.378 0 0 0-.018.127v.7h-.506v-1.325Z"/>
    <path fill="url(#z)" d="M42.14 124.65c0-4.294-3.493-7.787-7.787-7.787-4.294 0-7.787 3.493-7.787 7.787a7.785 7.785 0 0 0 3.294 6.354h-.578v.176h2.608l.007-.001a.419.419 0 0 0 .386-.455v-2.013h-.177v2.022a.243.243 0 0 1-.228.269h-1.704a7.609 7.609 0 0 1-3.43-6.353c0-4.196 3.415-7.609 7.61-7.609s7.608 3.414 7.608 7.609a7.605 7.605 0 0 1-3.413 6.342c-.421-.003-.9-.004-1.347-.004-.644 0-1.048.048-1.475.099-.362.045-.738.089-1.3.111-1.048.042-1.63-.203-1.749-.368-.032-.042-.023-.067-.02-.076.086-.233.41-.391 1.04-.501l-.015-.177c-.502.087-.83.206-1.019.373v-5.508c0-.366-.001-1.049.32-1.698.062-.126.117-.233.167-.326.225-.428.337-.642.337-1.38v-2.059c0-.25.123-.494.265-.552.032.165.074.327.137.47.043.097.119.118.213.125.13.011.26.004.388-.016.107-.015.278-.019.318-.152.024-.076.03-.161.035-.246l.008.006c.002.001.166.098.22.543.052.43.186 2.256.226 2.81-.359-.177-1.292-.552-1.834.015-.064.068-.262.275-.163.453.179.322 1.218.114 1.335.089l.021-.004c.26-.056.693-.147 1.022.08.212.146.352.415.413.793v5.534c0 .358-.025.621-.061.813v-5.994c0-.151-.098-.525-.28-.539-.136-.01-.24.135-.368.91-.083.506-.02 4.941-.004 5.926a3.192 3.192 0 0 0-.41-.252l.053.16.017.05-.032.015c.242.139.4.274.404.278l.15.13-.003-.199c-.001-.055-.09-5.538-.001-6.08.087-.525.155-.692.187-.746a.73.73 0 0 1 .107.344v6.75l.16-.214c.172-.23.258-.686.258-1.353v-5.54l-.002-.013c-.067-.433-.232-.743-.488-.92-.39-.269-.89-.164-1.158-.107l-.02.004c-.484.102-1.076.123-1.145-.002-.016-.029.01-.112.137-.244.57-.596 1.75.085 1.76.092l.146.086-.013-.169c-.006-.1-.176-2.468-.239-2.978-.04-.321-.134-.496-.21-.587.092-.082.2-.248.21-.581a.713.713 0 0 0-.087-.368l-.029-.055c-.015-.029-.025-.056-.054-.076a.274.274 0 0 0-.08-.03c-.016-.004-.033-.003-.05-.004a.448.448 0 0 0-.136.009l-.045.01c-.123.03-.247.028-.373.029-.127.001-.255.003-.381-.008-.067-.006-.13-.024-.195-.04a1.436 1.436 0 0 0-.013-.132.465.465 0 0 0-.027-.107c-.011-.028-.051-.072-.04-.103.027-.072.222-.084.276-.09.194-.018.387.016.574.07.06.016.225.042.253.117.03.082-.13.079-.173.079-.119.003-.238 0-.357-.007-.076-.004-.331.016-.337-.105-.004-.109-.163-.109-.157 0 .01.294.37.269.566.278.129.005.264.015.391-.005.085-.012.173-.048.213-.134.105-.223-.177-.335-.323-.378a1.686 1.686 0 0 0-.735-.074c-.106.017-.226.043-.302.129-.076.083-.06.164-.01.256a.41.41 0 0 1 .04.182.088.088 0 0 0-.055.019c-.012.012-.019.027-.026.042l-.026.052a.897.897 0 0 0-.075.215c-.014.07-.02.143-.014.214.002.011.002.021.005.032.019.13.12.182.244.199l.008.062c-.248.072-.411.413-.411.728v2.061c0 .695-.1.883-.317 1.298-.051.095-.106.203-.17.33-.337.687-.337 1.396-.337 1.776v5.77a.253.253 0 0 0 .048.224c.162.223.745.445 1.663.445.076 0 .156-.001.238-.005.568-.022.946-.068 1.313-.112.421-.051.82-.098 1.452-.098l1.071.002.328.002c.65.004 1.151.01 1.16.01v-.177c-.006 0-.382-.005-.903-.007a7.756 7.756 0 0 0 3.288-6.34Zm-7.433-5.928a4.764 4.764 0 0 1-.64.014l-.182-.003c-.003-.014-.006-.027-.007-.04.072-.003.144-.011.21-.018.22-.025.48-.008.622.024-.003.008-.003.016-.003.023Zm-.075.585c-.087.043-.215.043-.31.047a1.2 1.2 0 0 1-.133.001c-.039-.001-.118.009-.151-.023-.022-.022-.033-.098-.043-.129a4.224 4.224 0 0 1-.05-.178c-.01-.037-.015-.076-.024-.113l.14.002c.282.007.49.006.635-.012l-.008.156c-.003.069.008.217-.056.249Zm.244-.36-.023.006v-.012l.003-.075c.064-.025.101-.058.115-.106a.144.144 0 0 0-.028-.136.214.214 0 0 0-.07-.054 1.5 1.5 0 0 1 .1-.45c.06.08.106.189.102.341-.011.423-.194.485-.2.486Zm-.884-.794c.118.011.238.009.357.009.118 0 .24.003.357-.012a.707.707 0 0 0 .096-.022 1.717 1.717 0 0 0-.078.391 2.486 2.486 0 0 0-.655-.022c-.077.008-.15.015-.215.017-.005-.042-.012-.083-.016-.126-.009-.087-.009-.174-.009-.263a.982.982 0 0 0 .163.028Zm-.346.308a.625.625 0 0 1 .022-.232c.004.091.012.182.022.273-.025-.009-.042-.022-.044-.041Z"/>
    <path fill="url(#A)" d="M35.025 130.45a286.075 286.075 0 0 1-.53-1.568c-.03-.094-.088-.335-.147-.588a.315.315 0 0 0 .053-.033c.044-.033.078-.091.042-.144-.033-.048-.1-.076-.157-.094a9.929 9.929 0 0 1-.054-.239l-.053-.23c-.05-.211-.156-.808-.174-.99-.018-.194-.069-.307-.07-.311l-.01-.021-.02-.009c-.017-.007-.414-.186-.764-.085a1.185 1.185 0 0 0-.28.114l-.007.005a.235.235 0 0 0-.033.026c-.008.007-.018.014-.026.023a.179.179 0 0 0-.021.019c-.013.01-.026.019-.035.033a.062.062 0 0 0-.012.041.145.145 0 0 0 .015.05l.007.017.018.043.023.056.03.071.034.083.04.097.046.109.05.12a10.835 10.835 0 0 1 .377 1.079.785.785 0 0 0-.107.097c-.033.036-.083.09-.05.141.03.05.12.051.172.057.023.003.047.001.072.003.026.098.05.189.068.268.06.259.125.921.165 1.389l.016.177.024.319.006.021c.11.241.46.283.475.286l.086.009-.022-.083a.6.6 0 0 1-.014-.106c.25.05.687-.152.74-.177l.016-.008.032-.015-.02-.052Zm-.644-2.262a.159.159 0 0 1-.051.041l-.03-.131c.052.019.109.053.081.09Zm-1.5-1.797s.017-.059.29-.138c.265-.077.577.035.66.069a1 1 0 0 1 .053.253c.018.189.125.786.176 1.005.012.047.03.128.053.229l.106.463a.462.462 0 0 1-.093.022l-.005-.004a.1.1 0 0 0-.08-.011.354.354 0 0 0-.045.008.079.079 0 0 0-.041.028c-.023.001-.044.004-.066.006a.91.91 0 0 1-.012-.094c-.013-.161-.152-.672-.22-.919l-.03-.106a7.672 7.672 0 0 0-.063-.251c-.026-.1-.05-.2-.074-.3-.003-.01-.006-.023-.013-.037a.154.154 0 0 0-.034-.045.35.35 0 0 0-.263-.087.44.44 0 0 1-.221-.034c-.07-.033-.077-.057-.077-.057Zm.534 1.967a.568.568 0 0 1-.108-.014c-.01-.003-.043-.004-.047-.019-.002-.01.018-.029.024-.036a.733.733 0 0 1 .1-.097c.017.057.034.112.048.167-.006-.002-.011-.001-.017-.001Zm-.305-1.328a33.344 33.344 0 0 1-.2-.473.563.563 0 0 0 .274.046c.074-.002.127.007.178.055.008.007.009.008.009.01l.004.012c.023.102.05.203.076.304.022.083.043.166.062.249l.03.109c.06.224.204.748.215.896.001.023.007.055.012.095-.073.007-.145.017-.218.021a11.596 11.596 0 0 0-.442-1.324Zm1.049 3.013c0 .051-.005.112-.007.178a.723.723 0 0 0-.003.055c-.01.17-.02.346-.01.47-.09-.023-.239-.077-.298-.193l-.025-.318-.015-.177c-.04-.469-.105-1.128-.168-1.396a5.544 5.544 0 0 0-.062-.245l.03-.001.183-.017c.049.26.156.708.209.926l.026.111c.008.033.022.08.04.135.043.137.101.324.1.468v.004Zm.72.402c-.2.086-.496.178-.626.133.001-.094.008-.199.012-.293l.003-.049c.004-.066.007-.127.008-.179v-.02c.002-.163-.06-.359-.105-.503a1.457 1.457 0 0 1-.037-.127l-.026-.111c-.047-.196-.157-.649-.206-.909l.069-.007.002.012c.002.012.011.018.021.021-.016.151-.038.322.061.448.026.032.07-.014.046-.046-.07-.088-.059-.218-.053-.323a.79.79 0 0 1 .007-.059.848.848 0 0 1 .211.337c.013.038.075.022.063-.017a.92.92 0 0 0-.228-.366.046.046 0 0 0 .045-.029.878.878 0 0 0 .09-.022c.058.25.116.485.147.58a172.146 172.146 0 0 0 .514 1.521.087.087 0 0 0-.018.008Z"/>
  </g>
  <path stroke="#D10606" stroke-width="1.547" d="M17.789 514.491H268.36v30.161H17.789z"/>
  <circle cx="34.026" cy="508.305" r="12.374" fill="#0A75C2"/>
  <path fill="#fff" d="M35.7 503.23h.255v1.389h-.103c-.46 0-.868.069-1.227.206a2.52 2.52 0 0 0-.912.586 2.536 2.536 0 0 0-.568.906 3.46 3.46 0 0 0-.193 1.19v1.462c0 .315.03.592.09.834.065.238.155.437.272.598.121.157.262.276.423.357.161.076.343.115.544.115.19 0 .36-.041.514-.121.157-.081.29-.194.398-.339.113-.149.198-.322.254-.519.06-.202.09-.421.09-.659 0-.237-.03-.457-.09-.658a1.487 1.487 0 0 0-.254-.52 1.156 1.156 0 0 0-.954-.465c-.274 0-.516.064-.725.193a1.391 1.391 0 0 0-.484.483 1.3 1.3 0 0 0-.187.623l-.526-.339a2.51 2.51 0 0 1 .194-.882c.12-.278.286-.523.495-.737.214-.217.47-.386.767-.507a2.587 2.587 0 0 1 1.01-.188c.41 0 .77.079 1.081.236.314.157.576.373.785.647.21.273.367.59.472.948.104.359.157.741.157 1.148 0 .427-.07.824-.212 1.19a2.781 2.781 0 0 1-1.528 1.601 3.11 3.11 0 0 1-1.22.23c-.468 0-.893-.085-1.276-.254a2.9 2.9 0 0 1-.978-.725 3.278 3.278 0 0 1-.635-1.105 4.339 4.339 0 0 1-.217-1.402v-.677c0-.709.102-1.357.308-1.945.21-.592.51-1.104.9-1.535a4 4 0 0 1 1.414-1.009c.552-.238 1.174-.356 1.867-.356Z"/>
  <defs>
    <linearGradient id="a" x1="143.801" x2="143.801" y1=".203" y2="581.001" gradientUnits="userSpaceOnUse">
      <stop stop-color="#AAA"/>
      <stop offset="1" stop-color="#898989"/>
    </linearGradient>
    <linearGradient id="d" x1="35.001" x2="35.001" y1="115.292" y2="117.592" gradientUnits="userSpaceOnUse">
      <stop offset=".006" stop-color="#15B5EA"/>
      <stop offset=".12" stop-color="#16AFE6"/>
      <stop offset=".313" stop-color="#17A1DC"/>
      <stop offset=".561" stop-color="#1F88C9"/>
      <stop offset=".851" stop-color="#2F64AE"/>
      <stop offset="1" stop-color="#35509E"/>
    </linearGradient>
    <linearGradient id="e" x1="37.229" x2="37.229" y1="115.292" y2="117.592" gradientUnits="userSpaceOnUse">
      <stop offset=".006" stop-color="#15B5EA"/>
      <stop offset=".12" stop-color="#16AFE6"/>
      <stop offset=".313" stop-color="#17A1DC"/>
      <stop offset=".561" stop-color="#1F88C9"/>
      <stop offset=".851" stop-color="#2F64AE"/>
      <stop offset="1" stop-color="#35509E"/>
    </linearGradient>
    <linearGradient id="f" x1="38.933" x2="38.933" y1="115.292" y2="117.591" gradientUnits="userSpaceOnUse">
      <stop offset=".006" stop-color="#15B5EA"/>
      <stop offset=".12" stop-color="#16AFE6"/>
      <stop offset=".313" stop-color="#17A1DC"/>
      <stop offset=".561" stop-color="#1F88C9"/>
      <stop offset=".851" stop-color="#2F64AE"/>
      <stop offset="1" stop-color="#35509E"/>
    </linearGradient>
    <linearGradient id="g" x1="40.792" x2="40.792" y1="115.292" y2="117.591" gradientUnits="userSpaceOnUse">
      <stop offset=".006" stop-color="#15B5EA"/>
      <stop offset=".12" stop-color="#16AFE6"/>
      <stop offset=".313" stop-color="#17A1DC"/>
      <stop offset=".561" stop-color="#1F88C9"/>
      <stop offset=".851" stop-color="#2F64AE"/>
      <stop offset="1" stop-color="#35509E"/>
    </linearGradient>
    <linearGradient id="h" x1="44.11" x2="44.11" y1="115.292" y2="117.591" gradientUnits="userSpaceOnUse">
      <stop offset=".006" stop-color="#15B5EA"/>
      <stop offset=".12" stop-color="#16AFE6"/>
      <stop offset=".313" stop-color="#17A1DC"/>
      <stop offset=".561" stop-color="#1F88C9"/>
      <stop offset=".851" stop-color="#2F64AE"/>
      <stop offset="1" stop-color="#35509E"/>
    </linearGradient>
    <linearGradient id="i" x1="46.606" x2="46.606" y1="115.292" y2="117.591" gradientUnits="userSpaceOnUse">
      <stop offset=".006" stop-color="#15B5EA"/>
      <stop offset=".12" stop-color="#16AFE6"/>
      <stop offset=".313" stop-color="#17A1DC"/>
      <stop offset=".561" stop-color="#1F88C9"/>
      <stop offset=".851" stop-color="#2F64AE"/>
      <stop offset="1" stop-color="#35509E"/>
    </linearGradient>
    <linearGradient id="j" x1="48.797" x2="48.797" y1="115.293" y2="117.592" gradientUnits="userSpaceOnUse">
      <stop offset=".006" stop-color="#15B5EA"/>
      <stop offset=".12" stop-color="#16AFE6"/>
      <stop offset=".313" stop-color="#17A1DC"/>
      <stop offset=".561" stop-color="#1F88C9"/>
      <stop offset=".851" stop-color="#2F64AE"/>
      <stop offset="1" stop-color="#35509E"/>
    </linearGradient>
    <linearGradient id="k" x1="50.982" x2="50.982" y1="115.292" y2="117.591" gradientUnits="userSpaceOnUse">
      <stop offset=".006" stop-color="#15B5EA"/>
      <stop offset=".12" stop-color="#16AFE6"/>
      <stop offset=".313" stop-color="#17A1DC"/>
      <stop offset=".561" stop-color="#1F88C9"/>
      <stop offset=".851" stop-color="#2F64AE"/>
      <stop offset="1" stop-color="#35509E"/>
    </linearGradient>
    <linearGradient id="l" x1="53.218" x2="53.218" y1="115.292" y2="117.591" gradientUnits="userSpaceOnUse">
      <stop offset=".006" stop-color="#15B5EA"/>
      <stop offset=".12" stop-color="#16AFE6"/>
      <stop offset=".313" stop-color="#17A1DC"/>
      <stop offset=".561" stop-color="#1F88C9"/>
      <stop offset=".851" stop-color="#2F64AE"/>
      <stop offset="1" stop-color="#35509E"/>
    </linearGradient>
    <linearGradient id="m" x1="35.087" x2="49.342" y1="96.499" y2="112.359" gradientUnits="userSpaceOnUse">
      <stop offset=".006" stop-color="#15B5EA"/>
      <stop offset=".12" stop-color="#16AFE6"/>
      <stop offset=".313" stop-color="#17A1DC"/>
      <stop offset=".561" stop-color="#1F88C9"/>
      <stop offset=".851" stop-color="#2F64AE"/>
      <stop offset="1" stop-color="#35509E"/>
    </linearGradient>
    <linearGradient id="n" x1="40.859" x2="44.266" y1="107.679" y2="113.341" gradientUnits="userSpaceOnUse">
      <stop offset=".006" stop-color="#15B2EA"/>
      <stop offset=".12" stop-color="#16AFE6"/>
      <stop offset=".313" stop-color="#17A1DC"/>
      <stop offset=".561" stop-color="#1F88C9"/>
      <stop offset=".851" stop-color="#2F64AE"/>
      <stop offset="1" stop-color="#35509E"/>
    </linearGradient>
    <linearGradient id="q" x1="28.383" x2="28.383" y1="131.889" y2="133.547" gradientUnits="userSpaceOnUse">
      <stop offset=".006" stop-color="#15B5EA"/>
      <stop offset=".12" stop-color="#16AFE6"/>
      <stop offset=".313" stop-color="#17A1DC"/>
      <stop offset=".561" stop-color="#1F88C9"/>
      <stop offset=".851" stop-color="#2F64AE"/>
      <stop offset="1" stop-color="#35509E"/>
    </linearGradient>
    <linearGradient id="r" x1="29.991" x2="29.991" y1="131.889" y2="133.546" gradientUnits="userSpaceOnUse">
      <stop offset=".006" stop-color="#15B5EA"/>
      <stop offset=".12" stop-color="#16AFE6"/>
      <stop offset=".313" stop-color="#17A1DC"/>
      <stop offset=".561" stop-color="#1F88C9"/>
      <stop offset=".851" stop-color="#2F64AE"/>
      <stop offset="1" stop-color="#35509E"/>
    </linearGradient>
    <linearGradient id="s" x1="31.217" x2="31.217" y1="131.89" y2="133.547" gradientUnits="userSpaceOnUse">
      <stop offset=".006" stop-color="#15B5EA"/>
      <stop offset=".12" stop-color="#16AFE6"/>
      <stop offset=".313" stop-color="#17A1DC"/>
      <stop offset=".561" stop-color="#1F88C9"/>
      <stop offset=".851" stop-color="#2F64AE"/>
      <stop offset="1" stop-color="#35509E"/>
    </linearGradient>
    <linearGradient id="t" x1="32.56" x2="32.56" y1="131.89" y2="133.547" gradientUnits="userSpaceOnUse">
      <stop offset=".006" stop-color="#15B5EA"/>
      <stop offset=".12" stop-color="#16AFE6"/>
      <stop offset=".313" stop-color="#17A1DC"/>
      <stop offset=".561" stop-color="#1F88C9"/>
      <stop offset=".851" stop-color="#2F64AE"/>
      <stop offset="1" stop-color="#35509E"/>
    </linearGradient>
    <linearGradient id="u" x1="34.956" x2="34.956" y1="131.89" y2="133.547" gradientUnits="userSpaceOnUse">
      <stop offset=".006" stop-color="#15B5EA"/>
      <stop offset=".12" stop-color="#16AFE6"/>
      <stop offset=".313" stop-color="#17A1DC"/>
      <stop offset=".561" stop-color="#1F88C9"/>
      <stop offset=".851" stop-color="#2F64AE"/>
      <stop offset="1" stop-color="#35509E"/>
    </linearGradient>
    <linearGradient id="v" x1="36.753" x2="36.753" y1="131.89" y2="133.547" gradientUnits="userSpaceOnUse">
      <stop offset=".006" stop-color="#15B5EA"/>
      <stop offset=".12" stop-color="#16AFE6"/>
      <stop offset=".313" stop-color="#17A1DC"/>
      <stop offset=".561" stop-color="#1F88C9"/>
      <stop offset=".851" stop-color="#2F64AE"/>
      <stop offset="1" stop-color="#35509E"/>
    </linearGradient>
    <linearGradient id="w" x1="38.337" x2="38.337" y1="131.89" y2="133.548" gradientUnits="userSpaceOnUse">
      <stop offset=".006" stop-color="#15B5EA"/>
      <stop offset=".12" stop-color="#16AFE6"/>
      <stop offset=".313" stop-color="#17A1DC"/>
      <stop offset=".561" stop-color="#1F88C9"/>
      <stop offset=".851" stop-color="#2F64AE"/>
      <stop offset="1" stop-color="#35509E"/>
    </linearGradient>
    <linearGradient id="x" x1="39.912" x2="39.912" y1="131.89" y2="133.547" gradientUnits="userSpaceOnUse">
      <stop offset=".006" stop-color="#15B5EA"/>
      <stop offset=".12" stop-color="#16AFE6"/>
      <stop offset=".313" stop-color="#17A1DC"/>
      <stop offset=".561" stop-color="#1F88C9"/>
      <stop offset=".851" stop-color="#2F64AE"/>
      <stop offset="1" stop-color="#35509E"/>
    </linearGradient>
    <linearGradient id="y" x1="41.526" x2="41.526" y1="131.89" y2="133.547" gradientUnits="userSpaceOnUse">
      <stop offset=".006" stop-color="#15B5EA"/>
      <stop offset=".12" stop-color="#16AFE6"/>
      <stop offset=".313" stop-color="#17A1DC"/>
      <stop offset=".561" stop-color="#1F88C9"/>
      <stop offset=".851" stop-color="#2F64AE"/>
      <stop offset="1" stop-color="#35509E"/>
    </linearGradient>
    <linearGradient id="z" x1="28.45" x2="38.724" y1="118.342" y2="129.782" gradientUnits="userSpaceOnUse">
      <stop offset=".006" stop-color="#15B5EA"/>
      <stop offset=".12" stop-color="#16AFE6"/>
      <stop offset=".313" stop-color="#17A1DC"/>
      <stop offset=".561" stop-color="#1F88C9"/>
      <stop offset=".851" stop-color="#2F64AE"/>
      <stop offset="1" stop-color="#35509E"/>
    </linearGradient>
    <linearGradient id="A" x1="32.614" x2="35.068" y1="126.401" y2="130.484" gradientUnits="userSpaceOnUse">
      <stop offset=".006" stop-color="#15B2EA"/>
      <stop offset=".12" stop-color="#16AFE6"/>
      <stop offset=".313" stop-color="#17A1DC"/>
      <stop offset=".561" stop-color="#1F88C9"/>
      <stop offset=".851" stop-color="#2F64AE"/>
      <stop offset="1" stop-color="#35509E"/>
    </linearGradient>
    <pattern id="c" width="1" height="1" patternContentUnits="objectBoundingBox">
      <use xlink:href="#B" transform="scale(.00089 .00043)"/>
    </pattern>
    <pattern id="p" width="1" height="1" patternContentUnits="objectBoundingBox">
      <use xlink:href="#C" transform="scale(.00089 .00043)"/>
    </pattern>
  </defs>
</svg>
