<svg xmlns="http://www.w3.org/2000/svg" xmlns:xlink="http://www.w3.org/1999/xlink" width="288" height="582" fill="none" viewBox="0 0 288 582">
  <path stroke="#000" stroke-width=".773" d="M101.152 189.564h4.145a1.816 1.816 0 1 1 0 3.632h-4.145a1.816 1.816 0 1 1 0-3.632Z" opacity=".35"/>
  <path fill="#000" d="M107.891 190.603v.565c0 .47.516.681.516.212a.843.843 0 0 0-.516-.777" opacity=".4"/>
  <path fill="#000" d="M99.727 191.379c0-.787.638-1.425 1.425-1.425h4.145a1.425 1.425 0 0 1 0 2.85h-4.145a1.425 1.425 0 0 1-1.425-1.425Z"/>
  <path fill="#000" fill-rule="evenodd" d="M94.023 190.062c.86 0 1.69.331 2.313.924a.12.12 0 0 0 .169-.001l.449-.454a.123.123 0 0 0 .036-.088.126.126 0 0 0-.037-.089 4.235 4.235 0 0 0-5.86 0 .126.126 0 0 0-.038.089.12.12 0 0 0 .036.088l.45.454a.12.12 0 0 0 .168.001 3.36 3.36 0 0 1 2.314-.924Zm-.004 1.475c.473 0 .93.176 1.28.494a.12.12 0 0 0 .168-.003l.45-.453a.125.125 0 0 0-.003-.178 2.781 2.781 0 0 0-3.79 0 .124.124 0 0 0-.001.178l.448.453a.12.12 0 0 0 .169.003c.35-.318.806-.494 1.279-.494Zm.9.992a.123.123 0 0 1-.037.09l-.776.783a.121.121 0 0 1-.172 0l-.776-.783a.123.123 0 0 1 .003-.178 1.33 1.33 0 0 1 1.718 0 .12.12 0 0 1 .04.088Zm-6.209-3.22h-.388a.388.388 0 0 0-.388.388v3.368c0 .215.174.389.388.389h.389a.389.389 0 0 0 .389-.389v-3.368a.388.388 0 0 0-.39-.388Zm-2.192.907h.388c.215 0 .389.174.389.388v2.462a.389.389 0 0 1-.389.389h-.389a.389.389 0 0 1-.388-.389v-2.462c0-.214.174-.388.388-.388Zm-1.432.906h-.389a.389.389 0 0 0-.388.389v1.554c0 .215.174.389.388.389h.389a.389.389 0 0 0 .389-.389v-1.554a.389.389 0 0 0-.39-.389Zm-1.813.777h-.388a.389.389 0 0 0-.389.389v.777c0 .215.174.389.389.389h.388a.389.389 0 0 0 .389-.389v-.777a.389.389 0 0 0-.389-.389Z" clip-rule="evenodd"/>
  <path fill="#727272" d="M0 141.454a2.046 2.046 0 1 1 4.09 0v10.908a2.045 2.045 0 1 1-4.09 0v-10.908Zm0 89.994a2.046 2.046 0 1 1 4.09 0v44.997a2.045 2.045 0 1 1-4.09 0v-44.997Zm287.031-37.497a2.045 2.045 0 1 0-4.09 0v76.359a2.045 2.045 0 1 0 4.09 0v-76.359ZM0 172.816a2.045 2.045 0 1 1 4.09 0v44.997a2.045 2.045 0 1 1-4.09 0v-44.997Z"/>
  <rect width="283.125" height="580.798" x="2.238" y=".401" fill="url(#a)" rx="29.388"/>
  <rect width="275.291" height="574.083" x="5.598" y="3.759" fill="#232020" rx="29.388"/>
  <rect width="254.687" height="553.842" x="16.012" y="14.124" fill="#F5F5F5" rx="21.654"/>
  <mask id="o" width="256" height="554" x="15" y="14" maskUnits="userSpaceOnUse" style="mask-type:alpha">
    <mask id="b" width="256" height="554" x="15" y="14" maskUnits="userSpaceOnUse" style="mask-type:alpha">
      <rect width="254.437" height="553.73" x="15.934" y="14.057" fill="#FEFEFE" rx="21.654"/>
    </mask>
    <g mask="url(#b)">
      <path fill="url(#c)" d="M15.934 41.124h254.437v526.662H15.934z"/>
      <path fill="url(#d)" d="M33.37 116.061h1.107l.36 1.487h.007l.36-1.487h1.108v2.529h-.736v-1.623h-.008l-.438 1.623h-.58l-.44-1.623h-.007v1.623h-.736v-2.529h.002Z"/>
      <path fill="url(#e)" d="M37.42 116.551h-.701v-.492h.701v.492Zm-.701.2h.701v1.838h-.701v-1.838Z"/>
      <path fill="url(#f)" d="M37.816 116.75h.677v.234h.007c.133-.186.332-.28.598-.28.176 0 .326.054.448.161.121.108.182.261.182.462v1.26h-.7v-.963a.654.654 0 0 0-.045-.272c-.029-.059-.092-.088-.186-.088a.368.368 0 0 0-.097.015.281.281 0 0 0-.09.054.257.257 0 0 0-.068.107.526.526 0 0 0-.024.177v.97h-.702v-1.837Z"/>
      <path fill="url(#g)" d="M40.951 116.75h.376v.432h-.376v.64c0 .09.015.154.044.19.029.036.086.056.172.056.054 0 .108-.004.16-.012v.531c-.05 0-.123.004-.219.012a4.014 4.014 0 0 1-.23.011c-.09 0-.168-.006-.24-.017a.543.543 0 0 1-.193-.073.381.381 0 0 1-.142-.167.698.698 0 0 1-.053-.291v-.878h-.313v-.432h.313v-.56h.701v.558Z"/>
      <path fill="url(#h)" d="M42.76 116.793a1.166 1.166 0 0 1 .669-.696 1.35 1.35 0 0 1 .519-.098c.19 0 .362.033.519.098a1.193 1.193 0 0 1 .669.696c.06.163.092.339.092.531s-.031.368-.092.531a1.25 1.25 0 0 1-.263.422 1.165 1.165 0 0 1-.406.274 1.35 1.35 0 0 1-.52.098 1.34 1.34 0 0 1-.518-.098 1.193 1.193 0 0 1-.407-.274 1.239 1.239 0 0 1-.262-.422 1.493 1.493 0 0 1-.092-.531c0-.192.03-.368.092-.531Zm.736.866a.574.574 0 0 0 .124.217.43.43 0 0 0 .161.109.491.491 0 0 0 .17.033.491.491 0 0 0 .171-.033.425.425 0 0 0 .161-.109.6.6 0 0 0 .125-.217 1.01 1.01 0 0 0 .047-.335c0-.132-.015-.244-.047-.336a.578.578 0 0 0-.125-.216.44.44 0 0 0-.331-.142.44.44 0 0 0-.331.142.587.587 0 0 0-.125.216 1.025 1.025 0 0 0-.048.336c0 .132.015.243.048.335Z"/>
      <path fill="url(#i)" d="M46.735 117.448c-.008-.079-.032-.136-.078-.173a.247.247 0 0 0-.177-.059.307.307 0 0 0-.157.036.236.236 0 0 0-.094.104.498.498 0 0 0-.044.144 1.185 1.185 0 0 0-.011.174c0 .065.004.121.011.173a.42.42 0 0 0 .044.142.258.258 0 0 0 .096.101.302.302 0 0 0 .157.037.253.253 0 0 0 .186-.079.302.302 0 0 0 .086-.192h.669a.833.833 0 0 1-.312.572 1.005 1.005 0 0 1-.644.207c-.136 0-.266-.023-.385-.069a.972.972 0 0 1-.318-.196.896.896 0 0 1-.215-.306.974.974 0 0 1-.076-.392c0-.142.025-.272.076-.393a.878.878 0 0 1 .213-.308.957.957 0 0 1 .318-.198 1.08 1.08 0 0 1 .387-.069c.255 0 .47.063.642.19.174.126.27.311.291.554h-.665Z"/>
      <path fill="url(#j)" d="M48.3 117.827a.416.416 0 0 0 .105.26.326.326 0 0 0 .25.098.432.432 0 0 0 .173-.034.26.26 0 0 0 .12-.098h.656a.788.788 0 0 1-.358.433c-.17.098-.366.148-.586.148-.146 0-.282-.021-.408-.063a.968.968 0 0 1-.33-.188.85.85 0 0 1-.216-.303 1.01 1.01 0 0 1-.077-.405c0-.132.023-.257.069-.376a.9.9 0 0 1 .508-.521c.12-.05.25-.075.392-.075.357 0 .62.096.79.288.17.191.255.469.255.836H48.3Zm.672-.365a.294.294 0 0 0-.086-.218.292.292 0 0 0-.22-.088c-.207 0-.328.103-.36.308h.666v-.002Z"/>
      <path fill="url(#k)" d="M51.729 118.177c0 .084.005.161.015.23a.454.454 0 0 0 .069.18h-.715a.499.499 0 0 1-.025-.175h-.007a.58.58 0 0 1-.255.171c-.1.033-.21.05-.335.05a.739.739 0 0 1-.466-.14c-.12-.094-.182-.232-.182-.416 0-.115.025-.211.077-.286a.5.5 0 0 1 .197-.172.997.997 0 0 1 .255-.09 3.26 3.26 0 0 1 .316-.05c.088-.012.151-.021.192-.029a.391.391 0 0 0 .14-.052c.034-.023.051-.059.051-.111 0-.058-.023-.1-.067-.127a.3.3 0 0 0-.163-.042c-.097 0-.165.019-.2.056a.183.183 0 0 0-.06.132h-.652a.57.57 0 0 1 .09-.307.552.552 0 0 1 .219-.186c.09-.042.188-.071.293-.086.105-.015.22-.023.343-.023.207 0 .371.019.492.06.12.038.207.09.26.155a.445.445 0 0 1 .1.211c.014.075.02.174.02.293v.754h-.002Zm-.673-.415a1.211 1.211 0 0 1-.276.089.508.508 0 0 0-.182.069c-.036.027-.055.071-.055.128 0 .044.02.085.063.119a.234.234 0 0 0 .155.052.29.29 0 0 0 .205-.075.296.296 0 0 0 .088-.213v-.169h.002Z"/>
      <path fill="url(#l)" d="M52.102 116.75h.676v.234h.008c.132-.186.331-.28.597-.28.176 0 .326.054.449.161.12.108.182.261.182.462v1.26h-.702v-.963a.652.652 0 0 0-.044-.272c-.028-.059-.092-.088-.185-.088a.367.367 0 0 0-.098.015.283.283 0 0 0-.09.054.257.257 0 0 0-.067.107.524.524 0 0 0-.025.177v.97h-.701v-1.837Z"/>
      <path fill="url(#m)" d="M53.904 105.31c0-5.957-4.841-10.802-10.794-10.802-5.952 0-10.794 4.845-10.794 10.802 0 3.635 1.807 6.855 4.566 8.814h-.8v.246h3.614l.01-.002a.58.58 0 0 0 .534-.631v-2.794h-.245v2.805a.337.337 0 0 1-.316.374h-2.362c-2.86-1.89-4.753-5.134-4.753-8.814 0-5.82 4.732-10.555 10.546-10.555 5.817 0 10.547 4.736 10.547 10.555 0 3.67-1.881 6.907-4.73 8.799a283.01 283.01 0 0 0-1.868-.006c-.893 0-1.452.067-2.044.138-.502.062-1.023.123-1.801.154-1.454.057-2.26-.282-2.426-.51-.044-.06-.032-.094-.026-.106.118-.324.567-.542 1.44-.696-.005-.075-.013-.157-.02-.245-.696.121-1.15.285-1.413.517v-7.64c0-.508-.002-1.455.443-2.357.086-.174.163-.322.232-.452.312-.593.467-.89.467-1.914v-2.856c0-.347.17-.685.368-.766.044.229.101.453.19.652.059.135.164.163.295.173.18.015.36.006.538-.021.148-.021.385-.027.44-.211.033-.105.043-.224.049-.341l.011.007c.002.002.23.136.305.754.072.596.258 3.129.314 3.898-.498-.246-1.791-.765-2.542.021-.09.094-.365.381-.227.629.248.447 1.688.157 1.851.123l.029-.006c.36-.077.96-.203 1.416.111.295.203.488.575.572 1.101v7.677c0 .496-.034.86-.084 1.127v-8.316c0-.209-.136-.728-.387-.747-.19-.014-.333.188-.511 1.263-.115.702-.027 6.855-.006 8.22a4.519 4.519 0 0 0-.57-.349c.047.134.076.218.076.222l.023.069-.044.021c.335.192.555.38.559.386l.209.18-.004-.276c-.002-.077-.125-7.683-.002-8.434.12-.729.215-.961.259-1.036.063.085.15.317.15.478v9.364l.221-.297c.238-.319.357-.951.357-1.877v-7.685l-.002-.019c-.094-.6-.322-1.03-.677-1.275-.542-.374-1.233-.228-1.605-.15l-.029.006c-.67.142-1.49.171-1.586-.002-.023-.04.013-.155.19-.339.789-.827 2.425.119 2.44.128l.202.119-.018-.234c-.01-.14-.245-3.424-.331-4.132-.056-.445-.186-.688-.291-.815.126-.113.278-.343.29-.805a.972.972 0 0 0-.12-.51l-.04-.077c-.021-.04-.035-.078-.075-.105a.37.37 0 0 0-.11-.042c-.024-.006-.047-.004-.07-.006a.103.103 0 0 0-.063-.004.677.677 0 0 0-.125.017l-.063.014c-.17.042-.343.038-.517.04a5.487 5.487 0 0 1-.529-.011c-.092-.008-.18-.033-.27-.056a1.966 1.966 0 0 0-.017-.182.66.66 0 0 0-.039-.15c-.015-.038-.07-.1-.055-.142.038-.1.308-.117.383-.124.268-.025.536.02.795.096.084.023.312.059.35.163.043.113-.18.109-.239.109-.165.004-.33 0-.494-.01-.105-.005-.46.023-.468-.145-.005-.152-.226-.152-.218 0 .015.408.514.373.786.385.178.008.365.021.542-.006.117-.017.24-.067.295-.186.145-.31-.245-.466-.449-.525-.33-.098-.676-.155-1.019-.102-.145.023-.312.06-.417.178-.106.116-.083.229-.016.355a.572.572 0 0 1 .058.253h-.002a.119.119 0 0 0-.075.027 1.3 1.3 0 0 0-.073.13c-.023.048-.046.096-.063.146-.015.05-.03.1-.04.152-.02.097-.029.2-.02.297.003.015.003.029.007.044.026.18.166.253.339.276l.011.086c-.345.1-.57.574-.57 1.01v2.86c0 .964-.139 1.225-.44 1.8-.07.132-.147.282-.235.458-.468.953-.468 1.937-.468 2.464v8.005a.353.353 0 0 0 .067.311c.224.308 1.033.617 2.305.617.105 0 .217-.002.33-.008.787-.03 1.312-.094 1.82-.155a14.855 14.855 0 0 1 2.013-.136c.487 0 1.002.002 1.485.004l.454.002c.9.005 1.596.013 1.607.013l.002-.245c-.01 0-.53-.006-1.252-.01a10.76 10.76 0 0 0 4.557-8.795Zm-10.303-8.223c-.234.034-.673.025-.887.019-.096-.002-.18-.004-.253-.004a.65.65 0 0 1-.01-.056c.1-.004.2-.015.291-.025.305-.034.665-.011.863.033-.004.012-.004.023-.004.033Zm-.104.81c-.12.06-.298.06-.429.066a2.02 2.02 0 0 1-.186.002c-.053-.002-.163.011-.209-.033-.03-.03-.045-.136-.059-.178a5.852 5.852 0 0 1-.069-.248c-.013-.051-.02-.105-.034-.157.057 0 .124.002.193.004.393.01.68.008.882-.017l-.012.217c-.004.095.012.3-.077.345Zm.337-.498-.03.008v-.017c.002-.035.004-.07.004-.104.088-.035.14-.08.159-.148a.199.199 0 0 0-.039-.188.308.308 0 0 0-.097-.074c.019-.215.055-.426.138-.625a.723.723 0 0 1 .141.473c-.015.587-.268.673-.276.675Zm-1.224-1.102c.163.015.33.013.495.013.163 0 .331.004.494-.017.04-.006.086-.017.134-.03-.06.176-.092.358-.11.542-.321-.07-.771-.046-.907-.03a3.521 3.521 0 0 1-.297.022c-.008-.057-.017-.115-.023-.174-.012-.121-.012-.242-.012-.365.073.021.15.031.226.039Zm-.48.427a.869.869 0 0 1 .03-.322c.006.127.017.253.03.38-.034-.014-.057-.03-.06-.058Z"/>
      <path fill="url(#n)" d="M44.042 113.358a10.11 10.11 0 0 1-.075-.222c-.172-.509-.586-1.73-.659-1.954a15.302 15.302 0 0 1-.205-.815.697.697 0 0 0 .073-.046c.061-.046.11-.127.06-.2-.047-.067-.139-.105-.22-.13-.026-.119-.053-.232-.074-.332l-.073-.32a17.621 17.621 0 0 1-.241-1.373c-.025-.268-.096-.425-.098-.431l-.013-.029-.029-.013c-.023-.01-.573-.257-1.057-.117a1.62 1.62 0 0 0-.399.165.296.296 0 0 0-.046.036c-.011.01-.025.019-.036.031a.245.245 0 0 0-.03.027c-.016.013-.035.026-.047.046a.087.087 0 0 0-.017.057c.002.025.011.046.02.069.005.008.007.016.01.023.008.019.018.04.025.06l.033.078.04.098.048.115c.02.044.036.088.056.134l.063.152c.023.055.048.111.07.167a14.918 14.918 0 0 1 .523 1.497c-.053.04-.103.084-.149.134s-.115.125-.07.196c.041.069.168.071.239.078.032.004.065.002.1.004.036.136.069.263.093.372.085.361.175 1.279.23 1.927.008.088.016.171.021.246l.035.442.008.029c.153.336.638.393.659.397l.118.014-.03-.115a.867.867 0 0 1-.02-.148c.347.069.953-.211 1.026-.246l.023-.011.044-.021-.03-.071Zm-.893-3.139a.252.252 0 0 1-.07.058l-.043-.182c.073.026.151.072.113.124Zm-2.079-2.492s.023-.083.403-.192c.366-.107.799.048.913.096.02.052.058.174.073.351.025.262.175 1.091.246 1.394.015.065.042.178.072.318.042.184.094.414.148.642l-.017.006a.887.887 0 0 1-.111.025.026.026 0 0 0-.008-.006.138.138 0 0 0-.111-.015.467.467 0 0 0-.063.011.088.088 0 0 0-.03.012.11.11 0 0 0-.028.027l-.09.007a1.188 1.188 0 0 1-.017-.13c-.018-.222-.211-.932-.305-1.275-.02-.077-.036-.129-.04-.146a23.444 23.444 0 0 0-.088-.349 15.795 15.795 0 0 1-.104-.416c-.003-.013-.007-.032-.017-.052a.206.206 0 0 0-.048-.061.482.482 0 0 0-.364-.121.617.617 0 0 1-.306-.048c-.098-.046-.108-.078-.108-.078Zm.74 2.728a.848.848 0 0 1-.15-.019c-.015-.004-.059-.006-.065-.027-.003-.013.025-.04.033-.05a.999.999 0 0 1 .14-.134c.023.079.046.155.065.232-.008-.004-.015-.002-.023-.002Zm-.424-1.843c-.12-.281-.212-.502-.275-.655.13.063.258.067.379.063.102-.002.176.01.247.077.01.009.012.011.012.013l.005.017c.033.142.07.282.106.422.03.115.06.23.086.345l.04.152c.084.31.284 1.037.299 1.242.002.033.01.077.017.133-.101.009-.2.023-.303.028-.162-.598-.411-1.369-.613-1.837Zm1.455 4.18c0 .071-.006.156-.01.248a1.017 1.017 0 0 0-.004.076c-.013.236-.027.48-.013.652-.127-.032-.332-.107-.414-.268l-.035-.441c-.005-.077-.013-.159-.02-.246-.056-.65-.146-1.564-.232-1.936a8.642 8.642 0 0 0-.087-.339c.014-.002.027-.002.04-.002l.255-.023c.068.36.217.981.29 1.284l.036.154c.012.046.03.111.056.187.059.19.14.449.138.649v.005Zm.998.558c-.276.119-.688.248-.868.184.002-.13.011-.276.017-.406l.004-.067c.006-.092.01-.177.011-.25v-.026c.002-.227-.084-.499-.145-.698a2.111 2.111 0 0 1-.052-.177l-.036-.153c-.065-.272-.217-.901-.286-1.262l.096-.009.004.017c.002.015.015.025.029.029-.023.209-.054.447.084.621.036.044.098-.019.063-.063-.098-.123-.08-.303-.073-.449a1.08 1.08 0 0 1 .01-.082c.132.13.234.289.293.467.017.054.103.031.086-.023a1.284 1.284 0 0 0-.316-.508.069.069 0 0 0 .04-.011.055.055 0 0 0 .023-.029.876.876 0 0 0 .125-.031c.08.347.16.673.203.806a264.203 264.203 0 0 0 .713 2.109l-.025.011Z"/>
    </g>
    <rect width="90.284" height="3.519" x="96.84" y="556.055" fill="#000" rx="1.547"/>
    <path stroke="#000" stroke-width=".773" d="M242.105 28.522h10.58c.926 0 1.676.75 1.676 1.676v3.455c0 .925-.75 1.675-1.676 1.675h-10.58c-.925 0-1.675-.75-1.675-1.675v-3.455c0-.925.75-1.676 1.675-1.676Z" opacity=".35"/>
    <path fill="#000" d="M255.418 30.588v2.675a1.451 1.451 0 0 0 0-2.675" opacity=".4"/>
    <path fill="#000" d="M241.383 30.324c0-.47.381-.85.851-.85h10.329c.47 0 .851.38.851.85v3.203a.85.85 0 0 1-.851.85h-10.329a.85.85 0 0 1-.851-.85v-3.203Z"/>
    <path fill="#000" fill-rule="evenodd" d="M231.577 29.657c1.481 0 2.905.57 3.979 1.59.081.08.21.078.289-.002l.773-.78a.218.218 0 0 0 .063-.153.218.218 0 0 0-.065-.152 7.28 7.28 0 0 0-10.079 0 .212.212 0 0 0-.064.152.213.213 0 0 0 .062.153l.773.78c.079.08.209.081.29.002a5.773 5.773 0 0 1 3.979-1.59Zm-.001 2.539c.814 0 1.599.302 2.202.849.081.077.21.075.289-.004l.772-.78a.215.215 0 0 0-.003-.307 4.783 4.783 0 0 0-6.518 0 .215.215 0 0 0-.003.306l.771.78c.08.08.208.082.29.005a3.28 3.28 0 0 1 2.2-.85Zm1.547 1.707a.207.207 0 0 1-.062.154l-1.335 1.348a.209.209 0 0 1-.297 0l-1.335-1.348a.212.212 0 0 1-.063-.154.214.214 0 0 1 .07-.151 2.285 2.285 0 0 1 2.953 0 .21.21 0 0 1 .069.151Zm-10.681-5.545h-.669c-.369 0-.668.3-.668.67v5.795c0 .37.299.669.668.669h.669c.369 0 .668-.3.668-.669v-5.796a.668.668 0 0 0-.668-.669Zm-3.789 1.56h.668c.369 0 .669.3.669.67v4.235c0 .37-.3.669-.669.669h-.668a.67.67 0 0 1-.669-.67v-4.235c0-.369.3-.668.669-.668Zm-2.449 1.561h-.669c-.369 0-.668.3-.668.669v2.675c0 .37.299.669.668.669h.669c.369 0 .668-.3.668-.67v-2.674a.668.668 0 0 0-.668-.669Zm-3.121 1.338h-.669a.668.668 0 0 0-.668.668v1.338c0 .37.299.669.668.669h.669c.369 0 .668-.3.668-.67v-1.337a.668.668 0 0 0-.668-.668Z" clip-rule="evenodd"/>
    <path fill="#000" d="M94.984 14.057h95.898a2.21 2.21 0 0 0-1.6 2.051l-.013.386c0 5.915-4.795 10.71-10.71 10.71h-71.252c-5.915 0-10.71-4.795-10.71-10.71l-.012-.386a2.21 2.21 0 0 0-1.6-2.051Z"/>
  </mask>
  <g mask="url(#o)">
    <path fill="url(#p)" d="M16.082 41.39h254.437v526.662H16.082z"/>
    <path fill="url(#q)" d="M16.242 39.843h254.437v527.436H16.242z"/>
    <rect width="90.373" height="3.52" x="96.996" y="556.232" fill="#000" rx="1.547"/>
    <path stroke="#000" stroke-width=".773" d="M242.402 28.594h10.595c.925 0 1.675.75 1.675 1.675v3.456c0 .926-.75 1.676-1.675 1.676h-10.595c-.925 0-1.675-.75-1.675-1.676V30.27c0-.925.75-1.675 1.675-1.675Z" opacity=".35"/>
    <path fill="#000" d="M255.73 30.66v2.675a1.45 1.45 0 0 0 0-2.676" opacity=".4"/>
    <path fill="#000" d="M241.676 30.395a.85.85 0 0 1 .85-.851h10.342c.47 0 .851.38.851.85v3.204a.85.85 0 0 1-.851.851h-10.342a.85.85 0 0 1-.85-.85v-3.204Z"/>
    <path fill="#000" fill-rule="evenodd" d="M231.863 29.728a5.78 5.78 0 0 1 3.983 1.591c.081.079.21.078.29-.002l.773-.78a.214.214 0 0 0-.001-.305 7.293 7.293 0 0 0-10.09 0 .218.218 0 0 0-.002.305l.774.78c.08.08.209.081.29.002a5.78 5.78 0 0 1 3.983-1.59Zm0 2.54c.814 0 1.6.302 2.203.849a.208.208 0 0 0 .29-.004l.773-.78a.217.217 0 0 0 .063-.154.22.22 0 0 0-.066-.153 4.791 4.791 0 0 0-6.525 0 .216.216 0 0 0-.003.307l.772.78c.08.08.209.081.29.004a3.287 3.287 0 0 1 2.203-.85Zm1.549 1.707a.212.212 0 0 1-.063.154l-1.337 1.348a.207.207 0 0 1-.296 0l-1.337-1.348a.212.212 0 0 1-.063-.154.214.214 0 0 1 .07-.151 2.289 2.289 0 0 1 2.956 0 .214.214 0 0 1 .07.151Zm-10.687-5.545h-.669a.67.67 0 0 0-.669.67v5.797c0 .369.299.669.669.669h.669a.67.67 0 0 0 .669-.67V29.1a.67.67 0 0 0-.669-.67Zm-3.794 1.561h.669c.369 0 .669.3.669.67v4.235c0 .37-.3.67-.669.67h-.669a.67.67 0 0 1-.669-.67V30.66c0-.37.299-.669.669-.669Zm-2.448 1.562h-.669c-.37 0-.669.3-.669.669v2.675c0 .37.299.67.669.67h.669a.67.67 0 0 0 .669-.67v-2.675a.67.67 0 0 0-.669-.67Zm-3.125 1.337h-.669c-.37 0-.669.3-.669.669v1.337c0 .37.299.67.669.67h.669a.67.67 0 0 0 .669-.67V33.56a.67.67 0 0 0-.669-.67Z" clip-rule="evenodd"/>
    <path fill="#000" d="M95.59 14.057h95.897a2.21 2.21 0 0 0-1.6 2.051l-.013.386c0 5.915-4.795 10.71-10.71 10.71h-71.251c-5.915 0-10.71-4.795-10.71-10.71l-.013-.386a2.21 2.21 0 0 0-1.6-2.051Z"/>
  </g>
  <path stroke="#D10606" stroke-width="1.547" d="M30.937 116.405h226.596v42.535H30.937z"/>
  <circle cx="241.292" cy="113.311" r="12.374" fill="#0A75C2"/>
  <path fill="#fff" d="M244.64 113.837v1.366h-6.338l-.084-1.058 3.667-5.818h1.384l-1.499 2.507-1.824 3.003h4.694Zm-.997-5.51v8.797h-1.74v-8.797h1.74Z"/>
  <path stroke="#D10606" stroke-width="1.547" d="M20.879 48.349h214.996v33.255H20.879z"/>
  <circle cx="37.124" cy="39.842" r="12.374" fill="#0A75C2"/>
  <path fill="#fff" d="M36.092 38.5h.93c.298 0 .544-.05.737-.15a.994.994 0 0 0 .43-.436 1.43 1.43 0 0 0 .144-.658c0-.226-.044-.425-.133-.598a.9.9 0 0 0-.392-.411c-.178-.1-.401-.151-.671-.151-.214 0-.41.042-.592.127a1.084 1.084 0 0 0-.435.356.935.935 0 0 0-.163.556H34.2c0-.483.129-.904.386-1.263a2.628 2.628 0 0 1 1.052-.84 3.436 3.436 0 0 1 1.45-.302c.596 0 1.117.097 1.565.29.447.19.795.47 1.045.84.25.37.374.83.374 1.378 0 .278-.064.548-.193.81a2.274 2.274 0 0 1-.556.7c-.237.206-.527.37-.87.496-.342.12-.727.181-1.154.181h-1.208v-.924Zm0 1.324v-.9H37.3c.48 0 .9.054 1.263.163.362.108.666.265.912.47.246.202.431.442.556.72.125.274.187.578.187.912 0 .411-.078.778-.235 1.1a2.302 2.302 0 0 1-.665.81 3.03 3.03 0 0 1-.99.507 4.327 4.327 0 0 1-2.333.018 3.255 3.255 0 0 1-.967-.465 2.395 2.395 0 0 1-.688-.786c-.17-.318-.254-.694-.254-1.13h1.746c0 .226.056.427.17.605.112.177.267.316.464.417.202.1.425.15.671.15.278 0 .516-.05.713-.15a1.09 1.09 0 0 0 .46-.435c.108-.19.162-.41.162-.659 0-.322-.058-.58-.175-.773a1.039 1.039 0 0 0-.502-.435 1.964 1.964 0 0 0-.773-.14h-.93Z"/>
  <path fill="url(#r)" d="M41.951 147.14h1.002l.326 1.345h.007l.326-1.345h1.002v2.287h-.665v-1.467h-.008l-.397 1.467h-.525l-.397-1.467h-.007v1.467h-.666v-2.287h.002Z"/>
  <path fill="url(#s)" d="M45.615 147.584h-.635v-.445h.635v.445Zm-.635.181h.635v1.663h-.635v-1.663Z"/>
  <path fill="url(#t)" d="M45.977 147.764h.612v.212h.007c.12-.168.3-.253.54-.253.16 0 .295.048.406.145.11.097.165.236.165.418v1.139h-.635v-.87a.583.583 0 0 0-.04-.246c-.025-.054-.083-.08-.168-.08a.248.248 0 0 0-.17.062.24.24 0 0 0-.06.097.478.478 0 0 0-.023.16v.877h-.634v-1.661Z"/>
  <path fill="url(#u)" d="M48.812 147.764h.34v.39h-.34v.58c0 .081.014.138.04.171.026.033.078.051.156.051a.98.98 0 0 0 .144-.011v.48c-.045 0-.111.004-.198.011-.095.007-.165.01-.208.01-.082 0-.153-.005-.217-.015a.486.486 0 0 1-.175-.066.347.347 0 0 1-.128-.151.635.635 0 0 1-.049-.264v-.794h-.282v-.39h.282v-.506h.635v.504Z"/>
  <path fill="url(#v)" d="M50.45 147.803a1.067 1.067 0 0 1 .605-.63c.143-.059.3-.088.47-.088.172 0 .328.029.47.088.143.059.266.143.368.248.102.108.182.234.237.382.056.147.084.307.084.48 0 .174-.028.333-.084.48a1.067 1.067 0 0 1-.605.63c-.142.059-.3.088-.47.088-.171 0-.327-.029-.47-.088a1.081 1.081 0 0 1-.605-.63 1.344 1.344 0 0 1-.083-.48c0-.173.028-.333.083-.48Zm.666.784c.03.083.066.149.113.196a.395.395 0 0 0 .146.098c.052.019.102.03.154.03a.446.446 0 0 0 .154-.03.395.395 0 0 0 .146-.098.544.544 0 0 0 .113-.196.918.918 0 0 0 .043-.304c0-.12-.014-.22-.043-.303a.52.52 0 0 0-.113-.196.387.387 0 0 0-.146-.099.446.446 0 0 0-.154-.03.445.445 0 0 0-.154.03.386.386 0 0 0-.146.099.534.534 0 0 0-.113.196.916.916 0 0 0-.043.303c0 .12.014.22.043.304Z"/>
  <path fill="url(#w)" d="M54.045 148.395c-.007-.071-.03-.123-.071-.156a.224.224 0 0 0-.16-.053.266.266 0 0 0-.142.033.206.206 0 0 0-.085.093.452.452 0 0 0-.04.13 1.073 1.073 0 0 0 0 .314.4.4 0 0 0 .04.128c.021.039.049.07.087.092a.27.27 0 0 0 .142.033.229.229 0 0 0 .168-.071.273.273 0 0 0 .078-.173h.605a.75.75 0 0 1-.282.516.91.91 0 0 1-.583.188.957.957 0 0 1-.348-.063.868.868 0 0 1-.288-.177.8.8 0 0 1-.194-.277.874.874 0 0 1-.07-.354c0-.128.023-.246.07-.355a.79.79 0 0 1 .192-.279.872.872 0 0 1 .288-.179.972.972 0 0 1 .35-.062.96.96 0 0 1 .581.171.654.654 0 0 1 .264.501h-.602Z"/>
  <path fill="url(#x)" d="M55.462 148.738a.38.38 0 0 0 .096.236.297.297 0 0 0 .227.088c.055 0 .107-.01.156-.031a.231.231 0 0 0 .11-.089h.592a.71.71 0 0 1-.324.392 1.043 1.043 0 0 1-.53.134c-.132 0-.256-.019-.37-.057a.88.88 0 0 1-.298-.17.77.77 0 0 1-.196-.274.915.915 0 0 1-.07-.366.92.92 0 0 1 .063-.34.817.817 0 0 1 .46-.472.922.922 0 0 1 .355-.067c.322 0 .56.086.714.26.155.173.23.425.23.756h-1.215Zm.609-.33a.267.267 0 0 0-.078-.197.266.266 0 0 0-.2-.08c-.187 0-.296.094-.325.279h.603v-.002Z"/>
  <path fill="url(#y)" d="M58.572 149.054c0 .077.005.146.014.208.01.063.03.117.062.163H58a.44.44 0 0 1-.022-.157h-.007a.537.537 0 0 1-.23.154.985.985 0 0 1-.304.045.67.67 0 0 1-.422-.127c-.109-.085-.164-.209-.164-.376 0-.104.022-.191.069-.258a.45.45 0 0 1 .178-.156.975.975 0 0 1 .231-.082 3.57 3.57 0 0 1 .286-.045c.08-.01.137-.019.174-.026a.335.335 0 0 0 .126-.047c.031-.02.047-.053.047-.1 0-.052-.02-.09-.06-.115a.266.266 0 0 0-.148-.038c-.089 0-.15.018-.182.05a.168.168 0 0 0-.054.12h-.59a.51.51 0 0 1 .082-.277.498.498 0 0 1 .198-.169.95.95 0 0 1 .265-.078c.095-.013.2-.02.31-.02.188 0 .337.017.446.053a.49.49 0 0 1 .236.141.402.402 0 0 1 .09.191c.012.067.017.157.017.265v.681h-.001Zm-.609-.374a1.15 1.15 0 0 1-.25.08.465.465 0 0 0-.164.062c-.033.024-.05.064-.05.116 0 .04.018.076.057.108a.215.215 0 0 0 .14.046.263.263 0 0 0 .186-.067.266.266 0 0 0 .08-.193v-.152h.001Z"/>
  <path fill="url(#z)" d="M58.906 147.764h.612v.212h.007c.12-.168.3-.253.541-.253.16 0 .295.048.406.145.11.097.165.236.165.418v1.139h-.635v-.87a.584.584 0 0 0-.04-.246c-.026-.054-.083-.08-.168-.08a.248.248 0 0 0-.17.062.24.24 0 0 0-.06.097.478.478 0 0 0-.023.16v.877h-.635v-1.661Z"/>
  <path fill="url(#A)" d="M60.538 137.418c0-5.388-4.381-9.77-9.769-9.77-5.387 0-9.769 4.382-9.769 9.77 0 3.287 1.635 6.198 4.132 7.971h-.725v.222h3.272l.009-.002a.526.526 0 0 0 .484-.571v-2.526h-.222v2.537a.306.306 0 0 1-.286.338h-2.138a9.544 9.544 0 0 1-4.302-7.971c0-5.264 4.283-9.546 9.545-9.546 5.264 0 9.546 4.283 9.546 9.546a9.54 9.54 0 0 1-4.282 7.957 308.01 308.01 0 0 0-1.69-.005c-.808 0-1.315.06-1.85.125a17.99 17.99 0 0 1-1.63.138c-1.316.052-2.046-.255-2.195-.461-.04-.054-.03-.085-.025-.095.108-.293.514-.491 1.304-.63l-.019-.222c-.63.11-1.04.259-1.278.469v-6.91c0-.46-.002-1.316.4-2.131.079-.158.148-.292.21-.41.283-.535.424-.804.424-1.73v-2.584c0-.313.154-.619.333-.691.04.206.091.409.171.589.054.121.15.147.267.156.163.014.326.005.488-.019.133-.019.348-.024.398-.191.03-.095.038-.203.044-.308l.01.007c.002.001.208.123.276.681.066.539.234 2.83.284 3.525-.45-.222-1.621-.692-2.3.019-.082.085-.33.345-.205.569.223.404 1.527.142 1.675.111l.026-.005c.326-.07.868-.184 1.281.1.267.184.442.521.518.996v6.942c0 .45-.03.779-.076 1.02v-7.52c0-.189-.123-.659-.35-.676-.172-.013-.302.169-.463 1.142-.104.635-.024 6.199-.005 7.434a3.998 3.998 0 0 0-.515-.316l.067.201.021.063-.04.019c.304.173.503.343.507.348l.189.163-.004-.249c-.002-.07-.113-6.948-.002-7.628.11-.659.195-.869.234-.936a.912.912 0 0 1 .136.431v8.469l.2-.269c.216-.288.323-.86.323-1.697v-6.95l-.001-.017c-.085-.543-.292-.932-.612-1.153-.491-.339-1.117-.207-1.453-.136l-.026.005c-.607.129-1.35.155-1.436-.001-.021-.037.012-.141.172-.307.714-.747 2.195.107 2.209.116l.182.108-.016-.212c-.009-.127-.222-3.097-.3-3.737-.05-.402-.168-.622-.264-.737.115-.102.252-.31.264-.728a.885.885 0 0 0-.11-.461.903.903 0 0 0-.036-.069c-.019-.037-.03-.072-.067-.096a.346.346 0 0 0-.1-.038c-.022-.005-.043-.003-.063-.005a.094.094 0 0 0-.057-.004.604.604 0 0 0-.113.016c-.02.003-.038.009-.057.012-.155.038-.31.035-.469.036-.16.002-.32.004-.478-.01-.083-.007-.163-.029-.245-.05a1.804 1.804 0 0 0-.015-.165.592.592 0 0 0-.035-.135c-.014-.035-.064-.09-.05-.128.035-.091.279-.106.347-.113a1.96 1.96 0 0 1 .72.086c.075.021.282.054.316.148.039.102-.162.099-.216.099-.15.003-.298 0-.448-.009-.095-.005-.416.021-.423-.132-.005-.137-.204-.137-.197 0 .014.37.464.338.71.349.162.007.332.019.491-.005.106-.016.217-.061.267-.169.132-.281-.222-.421-.406-.475-.3-.088-.611-.14-.922-.092-.132.021-.283.054-.378.162-.095.104-.075.206-.014.32a.52.52 0 0 1 .052.229h-.002a.106.106 0 0 0-.067.025c-.016.013-.024.033-.033.052a1.167 1.167 0 0 0-.033.065c-.02.044-.042.087-.057.132-.014.045-.028.09-.037.137-.017.089-.026.181-.017.269.002.014.002.026.005.04.024.163.151.229.307.25l.01.078c-.312.09-.516.518-.516.913v2.586c0 .872-.125 1.108-.397 1.628-.064.12-.134.255-.214.414-.423.862-.423 1.752-.423 2.229v7.239a.318.318 0 0 0 .061.281c.203.279.935.558 2.086.558.095 0 .196-.002.298-.007.713-.028 1.188-.085 1.648-.14.528-.065 1.03-.123 1.822-.123.44 0 .907.001 1.344.003l.41.002c.816.005 1.445.012 1.455.012l.002-.222c-.008 0-.48-.005-1.134-.009a9.729 9.729 0 0 0 4.125-7.953Zm-9.325-7.437c-.212.031-.609.022-.803.017-.086-.002-.163-.004-.229-.004-.003-.017-.007-.034-.008-.05.09-.003.18-.014.263-.022.276-.032.602-.011.78.029-.003.011-.003.021-.003.03Zm-.094.733c-.109.054-.27.054-.388.059a1.573 1.573 0 0 1-.168.002c-.049-.002-.148.01-.19-.03-.027-.027-.04-.123-.053-.161a5.503 5.503 0 0 1-.062-.224c-.013-.046-.02-.095-.032-.142.052 0 .113.002.175.004a6 6 0 0 0 .798-.016l-.01.196c-.004.087.01.272-.07.312Zm.306-.451-.028.007v-.015l.003-.094c.08-.031.127-.073.144-.134a.178.178 0 0 0-.034-.169.264.264 0 0 0-.089-.068c.017-.194.05-.385.125-.565.076.1.133.237.128.428-.014.53-.242.609-.25.61Zm-1.108-.997c.147.014.298.012.447.012.147 0 .3.004.447-.015a.984.984 0 0 0 .122-.028 2.16 2.16 0 0 0-.1.491c-.29-.063-.698-.042-.821-.028-.095.01-.187.019-.269.021-.007-.052-.015-.104-.02-.158-.011-.109-.011-.218-.011-.329.066.019.135.027.205.034Zm-.436.387a.78.78 0 0 1 .028-.291c.005.114.016.228.028.343-.031-.012-.052-.028-.056-.052Z"/>
  <path fill="url(#B)" d="m51.61 144.696-.067-.201c-.156-.46-.53-1.564-.597-1.767-.038-.118-.11-.42-.185-.737a.482.482 0 0 0 .066-.042c.055-.041.099-.114.053-.18-.041-.061-.124-.096-.197-.118-.025-.108-.049-.21-.068-.3-.03-.127-.052-.229-.066-.29a15.89 15.89 0 0 1-.218-1.241c-.023-.243-.087-.385-.089-.39l-.012-.026-.026-.012c-.02-.009-.518-.233-.957-.106a1.46 1.46 0 0 0-.36.149.253.253 0 0 0-.042.033c-.01.009-.023.017-.033.028a.284.284 0 0 0-.026.024c-.016.012-.033.024-.044.041a.081.081 0 0 0-.015.052.2.2 0 0 0 .019.063l.009.021.022.053.03.072.036.088c.014.035.03.069.043.104.018.04.033.08.05.121l.058.137c.02.051.043.101.064.151l.017.04c.144.337.318.848.456 1.314a1.05 1.05 0 0 0-.135.122c-.041.045-.104.113-.064.177.038.062.153.064.217.071.03.003.059.002.09.003.033.123.062.238.085.337.076.326.158 1.156.208 1.742l.019.222c.02.236.031.396.031.401l.007.026c.139.303.578.355.597.359l.107.012-.028-.104a.758.758 0 0 1-.017-.134c.314.063.862-.19.928-.222l.02-.01.04-.019-.026-.064Zm-.808-2.839a.205.205 0 0 1-.064.052l-.038-.164c.066.024.137.065.102.112Zm-1.881-2.254s.02-.074.364-.173c.331-.097.723.043.827.086.018.047.052.158.066.318a15.742 15.742 0 0 0 .288 1.548l.133.581-.015.005a.606.606 0 0 1-.1.023c-.002-.002-.004-.004-.008-.005a.121.121 0 0 0-.1-.014.287.287 0 0 0-.083.02.113.113 0 0 0-.026.025c-.028.001-.054.005-.082.007a1.107 1.107 0 0 1-.016-.118c-.015-.201-.19-.843-.275-1.153l-.037-.132c-.026-.106-.052-.21-.08-.316a15.17 15.17 0 0 1-.093-.376c-.003-.012-.007-.029-.016-.047a.186.186 0 0 0-.043-.055.433.433 0 0 0-.33-.109.571.571 0 0 1-.277-.044c-.088-.041-.097-.071-.097-.071Zm.67 2.468a.698.698 0 0 1-.136-.018c-.014-.003-.054-.005-.059-.024-.003-.012.023-.037.03-.045a.979.979 0 0 1 .126-.122c.021.072.042.141.06.21-.008-.003-.015-.001-.022-.001Zm-.384-1.667c-.11-.255-.192-.454-.25-.593.118.057.234.061.344.057.092-.001.16.009.224.07.008.008.01.01.01.012l.005.015c.03.129.063.255.095.382.028.104.054.208.079.312.003.016.017.066.036.137.076.281.257.938.27 1.124.002.029.009.069.016.119-.092.009-.182.021-.274.026a14.468 14.468 0 0 0-.555-1.661Zm1.316 3.78c0 .064-.005.141-.009.224a.937.937 0 0 0-.003.069 5.003 5.003 0 0 0-.012.59c-.114-.03-.3-.097-.375-.243l-.03-.399-.02-.222c-.05-.588-.132-1.415-.21-1.751a6.656 6.656 0 0 0-.078-.307c.012-.002.025-.002.037-.002l.23-.02c.061.326.196.887.262 1.161l.033.139c.01.042.028.101.05.17.054.172.127.406.125.586v.005Zm.904.505c-.25.107-.623.223-.786.166.002-.118.01-.249.016-.367l.003-.061a5.27 5.27 0 0 0 .01-.225v-.025c.002-.204-.076-.451-.131-.631a1.983 1.983 0 0 1-.047-.159l-.033-.139c-.059-.246-.196-.815-.258-1.141l.086-.009.004.016c.002.014.014.022.026.026-.02.189-.049.404.076.562.033.04.089-.018.057-.058-.088-.111-.072-.274-.066-.405a.999.999 0 0 1 .01-.075c.119.118.21.262.264.423.016.049.094.028.078-.021a1.155 1.155 0 0 0-.286-.459.063.063 0 0 0 .037-.01.052.052 0 0 0 .02-.026.851.851 0 0 0 .113-.028c.073.314.146.608.184.728a236.33 236.33 0 0 0 .645 1.907l-.022.011Z"/>
  <defs>
    <linearGradient id="a" x1="143.801" x2="143.801" y1=".401" y2="581.199" gradientUnits="userSpaceOnUse">
      <stop stop-color="#AAA"/>
      <stop offset="1" stop-color="#898989"/>
    </linearGradient>
    <linearGradient id="d" x1="34.841" x2="34.841" y1="115.353" y2="117.652" gradientUnits="userSpaceOnUse">
      <stop offset=".006" stop-color="#15B5EA"/>
      <stop offset=".12" stop-color="#16AFE6"/>
      <stop offset=".313" stop-color="#17A1DC"/>
      <stop offset=".561" stop-color="#1F88C9"/>
      <stop offset=".851" stop-color="#2F64AE"/>
      <stop offset="1" stop-color="#35509E"/>
    </linearGradient>
    <linearGradient id="e" x1="37.069" x2="37.069" y1="115.353" y2="117.652" gradientUnits="userSpaceOnUse">
      <stop offset=".006" stop-color="#15B5EA"/>
      <stop offset=".12" stop-color="#16AFE6"/>
      <stop offset=".313" stop-color="#17A1DC"/>
      <stop offset=".561" stop-color="#1F88C9"/>
      <stop offset=".851" stop-color="#2F64AE"/>
      <stop offset="1" stop-color="#35509E"/>
    </linearGradient>
    <linearGradient id="f" x1="38.773" x2="38.773" y1="115.352" y2="117.651" gradientUnits="userSpaceOnUse">
      <stop offset=".006" stop-color="#15B5EA"/>
      <stop offset=".12" stop-color="#16AFE6"/>
      <stop offset=".313" stop-color="#17A1DC"/>
      <stop offset=".561" stop-color="#1F88C9"/>
      <stop offset=".851" stop-color="#2F64AE"/>
      <stop offset="1" stop-color="#35509E"/>
    </linearGradient>
    <linearGradient id="g" x1="40.632" x2="40.632" y1="115.353" y2="117.652" gradientUnits="userSpaceOnUse">
      <stop offset=".006" stop-color="#15B5EA"/>
      <stop offset=".12" stop-color="#16AFE6"/>
      <stop offset=".313" stop-color="#17A1DC"/>
      <stop offset=".561" stop-color="#1F88C9"/>
      <stop offset=".851" stop-color="#2F64AE"/>
      <stop offset="1" stop-color="#35509E"/>
    </linearGradient>
    <linearGradient id="h" x1="43.95" x2="43.95" y1="115.353" y2="117.652" gradientUnits="userSpaceOnUse">
      <stop offset=".006" stop-color="#15B5EA"/>
      <stop offset=".12" stop-color="#16AFE6"/>
      <stop offset=".313" stop-color="#17A1DC"/>
      <stop offset=".561" stop-color="#1F88C9"/>
      <stop offset=".851" stop-color="#2F64AE"/>
      <stop offset="1" stop-color="#35509E"/>
    </linearGradient>
    <linearGradient id="i" x1="46.446" x2="46.446" y1="115.352" y2="117.651" gradientUnits="userSpaceOnUse">
      <stop offset=".006" stop-color="#15B5EA"/>
      <stop offset=".12" stop-color="#16AFE6"/>
      <stop offset=".313" stop-color="#17A1DC"/>
      <stop offset=".561" stop-color="#1F88C9"/>
      <stop offset=".851" stop-color="#2F64AE"/>
      <stop offset="1" stop-color="#35509E"/>
    </linearGradient>
    <linearGradient id="j" x1="48.637" x2="48.637" y1="115.353" y2="117.652" gradientUnits="userSpaceOnUse">
      <stop offset=".006" stop-color="#15B5EA"/>
      <stop offset=".12" stop-color="#16AFE6"/>
      <stop offset=".313" stop-color="#17A1DC"/>
      <stop offset=".561" stop-color="#1F88C9"/>
      <stop offset=".851" stop-color="#2F64AE"/>
      <stop offset="1" stop-color="#35509E"/>
    </linearGradient>
    <linearGradient id="k" x1="50.822" x2="50.822" y1="115.352" y2="117.651" gradientUnits="userSpaceOnUse">
      <stop offset=".006" stop-color="#15B5EA"/>
      <stop offset=".12" stop-color="#16AFE6"/>
      <stop offset=".313" stop-color="#17A1DC"/>
      <stop offset=".561" stop-color="#1F88C9"/>
      <stop offset=".851" stop-color="#2F64AE"/>
      <stop offset="1" stop-color="#35509E"/>
    </linearGradient>
    <linearGradient id="l" x1="53.057" x2="53.057" y1="115.352" y2="117.651" gradientUnits="userSpaceOnUse">
      <stop offset=".006" stop-color="#15B5EA"/>
      <stop offset=".12" stop-color="#16AFE6"/>
      <stop offset=".313" stop-color="#17A1DC"/>
      <stop offset=".561" stop-color="#1F88C9"/>
      <stop offset=".851" stop-color="#2F64AE"/>
      <stop offset="1" stop-color="#35509E"/>
    </linearGradient>
    <linearGradient id="m" x1="34.927" x2="49.182" y1="96.559" y2="112.419" gradientUnits="userSpaceOnUse">
      <stop offset=".006" stop-color="#15B5EA"/>
      <stop offset=".12" stop-color="#16AFE6"/>
      <stop offset=".313" stop-color="#17A1DC"/>
      <stop offset=".561" stop-color="#1F88C9"/>
      <stop offset=".851" stop-color="#2F64AE"/>
      <stop offset="1" stop-color="#35509E"/>
    </linearGradient>
    <linearGradient id="n" x1="40.699" x2="44.106" y1="107.74" y2="113.402" gradientUnits="userSpaceOnUse">
      <stop offset=".006" stop-color="#15B2EA"/>
      <stop offset=".12" stop-color="#16AFE6"/>
      <stop offset=".313" stop-color="#17A1DC"/>
      <stop offset=".561" stop-color="#1F88C9"/>
      <stop offset=".851" stop-color="#2F64AE"/>
      <stop offset="1" stop-color="#35509E"/>
    </linearGradient>
    <linearGradient id="r" x1="43.283" x2="43.283" y1="146.5" y2="148.579" gradientUnits="userSpaceOnUse">
      <stop offset=".006" stop-color="#15B5EA"/>
      <stop offset=".12" stop-color="#16AFE6"/>
      <stop offset=".313" stop-color="#17A1DC"/>
      <stop offset=".561" stop-color="#1F88C9"/>
      <stop offset=".851" stop-color="#2F64AE"/>
      <stop offset="1" stop-color="#35509E"/>
    </linearGradient>
    <linearGradient id="s" x1="45.297" x2="45.297" y1="146.501" y2="148.58" gradientUnits="userSpaceOnUse">
      <stop offset=".006" stop-color="#15B5EA"/>
      <stop offset=".12" stop-color="#16AFE6"/>
      <stop offset=".313" stop-color="#17A1DC"/>
      <stop offset=".561" stop-color="#1F88C9"/>
      <stop offset=".851" stop-color="#2F64AE"/>
      <stop offset="1" stop-color="#35509E"/>
    </linearGradient>
    <linearGradient id="t" x1="46.842" x2="46.842" y1="146.5" y2="148.579" gradientUnits="userSpaceOnUse">
      <stop offset=".006" stop-color="#15B5EA"/>
      <stop offset=".12" stop-color="#16AFE6"/>
      <stop offset=".313" stop-color="#17A1DC"/>
      <stop offset=".561" stop-color="#1F88C9"/>
      <stop offset=".851" stop-color="#2F64AE"/>
      <stop offset="1" stop-color="#35509E"/>
    </linearGradient>
    <linearGradient id="u" x1="48.523" x2="48.523" y1="146.5" y2="148.579" gradientUnits="userSpaceOnUse">
      <stop offset=".006" stop-color="#15B5EA"/>
      <stop offset=".12" stop-color="#16AFE6"/>
      <stop offset=".313" stop-color="#17A1DC"/>
      <stop offset=".561" stop-color="#1F88C9"/>
      <stop offset=".851" stop-color="#2F64AE"/>
      <stop offset="1" stop-color="#35509E"/>
    </linearGradient>
    <linearGradient id="v" x1="51.527" x2="51.527" y1="146.501" y2="148.58" gradientUnits="userSpaceOnUse">
      <stop offset=".006" stop-color="#15B5EA"/>
      <stop offset=".12" stop-color="#16AFE6"/>
      <stop offset=".313" stop-color="#17A1DC"/>
      <stop offset=".561" stop-color="#1F88C9"/>
      <stop offset=".851" stop-color="#2F64AE"/>
      <stop offset="1" stop-color="#35509E"/>
    </linearGradient>
    <linearGradient id="w" x1="53.783" x2="53.783" y1="146.5" y2="148.579" gradientUnits="userSpaceOnUse">
      <stop offset=".006" stop-color="#15B5EA"/>
      <stop offset=".12" stop-color="#16AFE6"/>
      <stop offset=".313" stop-color="#17A1DC"/>
      <stop offset=".561" stop-color="#1F88C9"/>
      <stop offset=".851" stop-color="#2F64AE"/>
      <stop offset="1" stop-color="#35509E"/>
    </linearGradient>
    <linearGradient id="x" x1="55.768" x2="55.768" y1="146.501" y2="148.58" gradientUnits="userSpaceOnUse">
      <stop offset=".006" stop-color="#15B5EA"/>
      <stop offset=".12" stop-color="#16AFE6"/>
      <stop offset=".313" stop-color="#17A1DC"/>
      <stop offset=".561" stop-color="#1F88C9"/>
      <stop offset=".851" stop-color="#2F64AE"/>
      <stop offset="1" stop-color="#35509E"/>
    </linearGradient>
    <linearGradient id="y" x1="57.751" x2="57.751" y1="146.5" y2="148.579" gradientUnits="userSpaceOnUse">
      <stop offset=".006" stop-color="#15B5EA"/>
      <stop offset=".12" stop-color="#16AFE6"/>
      <stop offset=".313" stop-color="#17A1DC"/>
      <stop offset=".561" stop-color="#1F88C9"/>
      <stop offset=".851" stop-color="#2F64AE"/>
      <stop offset="1" stop-color="#35509E"/>
    </linearGradient>
    <linearGradient id="z" x1="59.771" x2="59.771" y1="146.5" y2="148.579" gradientUnits="userSpaceOnUse">
      <stop offset=".006" stop-color="#15B5EA"/>
      <stop offset=".12" stop-color="#16AFE6"/>
      <stop offset=".313" stop-color="#17A1DC"/>
      <stop offset=".561" stop-color="#1F88C9"/>
      <stop offset=".851" stop-color="#2F64AE"/>
      <stop offset="1" stop-color="#35509E"/>
    </linearGradient>
    <linearGradient id="A" x1="43.363" x2="56.253" y1="129.504" y2="143.857" gradientUnits="userSpaceOnUse">
      <stop offset=".006" stop-color="#15B5EA"/>
      <stop offset=".12" stop-color="#16AFE6"/>
      <stop offset=".313" stop-color="#17A1DC"/>
      <stop offset=".561" stop-color="#1F88C9"/>
      <stop offset=".851" stop-color="#2F64AE"/>
      <stop offset="1" stop-color="#35509E"/>
    </linearGradient>
    <linearGradient id="B" x1="48.585" x2="51.665" y1="139.615" y2="144.738" gradientUnits="userSpaceOnUse">
      <stop offset=".006" stop-color="#15B2EA"/>
      <stop offset=".12" stop-color="#16AFE6"/>
      <stop offset=".313" stop-color="#17A1DC"/>
      <stop offset=".561" stop-color="#1F88C9"/>
      <stop offset=".851" stop-color="#2F64AE"/>
      <stop offset="1" stop-color="#35509E"/>
    </linearGradient>
    <pattern id="c" width="1" height="1" patternContentUnits="objectBoundingBox">
      <use xlink:href="#C" transform="scale(.00089 .00043)"/>
    </pattern>
    <pattern id="p" width="1" height="1" patternContentUnits="objectBoundingBox">
      <use xlink:href="#D" transform="scale(.00089 .00043)"/>
    </pattern>
    <pattern id="q" width="1" height="1" patternContentUnits="objectBoundingBox">
      <use xlink:href="#E" transform="scale(.00089 .00043)"/>
    </pattern>
  </defs>
</svg>
