<svg xmlns="http://www.w3.org/2000/svg" width="2253" height="1205" fill="none" viewBox="0 0 2253 1205">
  <rect width="59" height="500" x="1812.27" y="692.28" fill="#111" rx="29.5"/>
  <path fill="#111" d="M2222.27 692.28c16.56 0 30 13.431 30 30 0 16.568-13.44 30-30 30h-380c-16.57 0-30-13.432-30-30 0-16.569 13.43-30 30-30h380Zm-.78 440c16.57 0 30 13.43 30 30s-13.43 30-30 30h-380c-16.56 0-30-13.43-30-30s13.44-30 30-30h380Z"/>
  <rect width="59.693" height="482.454" x="2115.69" y="800.218" fill="#111" rx="29.847" transform="rotate(40.87 2115.69 800.218)"/>
  <rect width="59" height="500" x="1212.27" y="692.28" fill="#111" rx="29.5"/>
  <path fill="#111" d="M1622.27 692.28c16.56 0 30 13.431 30 30 0 16.568-13.44 30-30 30h-380c-16.57 0-30-13.432-30-30 0-16.569 13.43-30 30-30h380Zm-.78 440c16.57 0 30 13.43 30 30s-13.43 30-30 30h-380c-16.56 0-30-13.43-30-30s13.44-30 30-30h380Z"/>
  <rect width="59.693" height="482.454" x="1515.69" y="800.218" fill="#111" rx="29.847" transform="rotate(40.87 1515.69 800.218)"/>
  <rect width="59" height="500" x="612.266" y="692.28" fill="#111" rx="29.5"/>
  <path fill="#111" d="M1022.27 692.28c16.56 0 30 13.431 30 30 0 16.568-13.44 30-30 30H642.265c-16.568 0-30-13.432-30-30 0-16.569 13.432-30 30-30h380.005Z"/>
  <rect width="60" height="640.335" x="600" y="719.261" fill="#111" rx="30" transform="rotate(-40.87 600 719.261)"/>
  <rect width="60" height="345.581" x="1018.85" y="680.526" fill="#ED02D0" rx="30" transform="rotate(40.87 1018.85 680.526)"/>
  <path fill="#111" d="M202.265 722.327c0-16.569 13.432-30 30-30 16.569 0 30 13.431 30 30v440.003c0 16.57-13.431 30-30 30-16.568 0-30-13.43-30-30V722.327Z"/>
  <path fill="#111" d="M422.265 692.28c16.569 0 30 13.431 30 30 0 16.568-13.431 30-30 30h-380c-16.568 0-30-13.432-30-30 0-16.569 13.432-30 30-30h380Z"/>
  <path fill="#111" fill-rule="evenodd" d="M1732.27 682.28c44.18 0 80-35.817 80-80s-35.82-80-80-80c-44.19 0-80 35.817-80 80s35.81 80 80 80Zm0-60c11.04 0 20-8.955 20-20 0-11.046-8.96-20-20-20-11.05 0-20 8.954-20 20 0 11.045 8.95 20 20 20Zm-600 60c44.18 0 80-35.817 80-80s-35.82-80-80-80c-44.19 0-80 35.817-80 80s35.81 80 80 80Zm0-60c11.04 0 20-8.955 20-20 0-11.046-8.96-20-20-20-11.05 0-20 8.954-20 20 0 11.045 8.95 20 20 20Zm-600.005 60c44.183 0 80-35.817 80-80s-35.817-80-80-80-80 35.817-80 80 35.817 80 80 80Zm0-60c11.046 0 20-8.955 20-20 0-11.046-8.954-20-20-20s-20 8.954-20 20c0 11.045 8.954 20 20 20Z" clip-rule="evenodd"/>
  <rect width="59" height="500" x="1812.27" y="12.28" fill="#111" rx="29.5"/>
  <path fill="#111" d="M2222.27 12.28c16.56 0 30 13.431 30 30 0 16.568-13.44 30-30 30h-380c-16.57 0-30-13.432-30-30 0-16.569 13.43-30 30-30h380Zm-.78 440c16.57 0 30 13.431 30 30 0 16.568-13.43 30-30 30h-380c-16.56 0-30-13.432-30-30 0-16.569 13.44-30 30-30h380Z"/>
  <rect width="59.693" height="482.454" x="2115.69" y="120.218" fill="#111" rx="29.847" transform="rotate(40.87 2115.69 120.218)"/>
  <rect width="59" height="500" x="1212.27" y="12.28" fill="#111" rx="29.5"/>
  <rect width="58.858" height="641.156" x="1619.72" y="1.274" fill="#111" rx="29.429" transform="rotate(40.87 1619.72 1.274)"/>
  <rect width="60" height="350.913" x="1389.46" y="259.271" fill="#111" rx="30" transform="rotate(-40.874 1389.46 259.271)"/>
  <rect width="59" height="500" x="612.265" y="12.28" fill="#111" rx="29.5"/>
  <path fill="#111" d="M970.265 392.28c16.568 0 29.995 13.431 29.995 30 0 16.568-13.427 30-29.995 30h-329c-16.569 0-30-13.432-30-30 0-16.569 13.431-30 30-30h329Z"/>
  <rect width="60" height="640.335" x="600" y="39.261" fill="#111" rx="30" transform="rotate(-40.87 600 39.26)"/>
  <rect width="59" height="500" x="12.266" y="12.28" fill="#111" rx="29.5"/>
  <path fill="#111" d="M392.265 42.28c0-16.569 13.432-30 30-30 16.569 0 30 13.431 30 30v440c0 16.568-13.431 30-30 30-16.568 0-30-13.432-30-30v-440Z"/>
  <rect width="60" height="640.335" y="39.261" fill="#111" rx="30" transform="rotate(-40.87 0 39.26)"/>
  <rect width="60" height="345.581" x="418.854" y=".526" fill="#111" rx="30" transform="rotate(40.87 418.854 .526)"/>
  <rect width="60" height="345.581" x="418.854" y=".526" fill="#2D0ED0" rx="30" transform="rotate(40.87 418.854 .526)"/>
</svg>
